SplineFontDB: 3.2
FontName: Samaano-Wide-Bold
FullName: Samaano Wide Bold
FamilyName: Samaano
Weight: Wide-Bold
Copyright: Copyright 2025 The Samaano Project Authors (https://github.com/mitradranirban/samaano-fonts)
UComments: "2024-8-27: Created with FontForge (http://fontforge.org)"
Version: 2.500
ItalicAngle: 0
UnderlinePosition: 0
UnderlineWidth: 102
Ascent: 1638
Descent: 410
InvalidEm: 0
UFOAscent: 1638
UFODescent: -410
LayerCount: 2
Layer: 0 0 "Back" 1
Layer: 1 0 "public.default" 0 "glyphs"
StyleMap: 0x0020
FSType: 256
OS2Version: 0
OS2_WeightWidthSlopeOnly: 0
OS2_UseTypoMetrics: 0
CreationTime: 1758187930
ModificationTime: 1758187930
PfmFamily: 16
TTFWeight: 700
TTFWidth: 5
LineGap: 0
VLineGap: 0
Panose: 2 7 8 9 2 2 5 2 4 4
OS2TypoAscent: 2457
OS2TypoAOffset: 0
OS2TypoDescent: -615
OS2TypoDOffset: 0
OS2TypoLinegap: 0
OS2WinAscent: 3225
OS2WinAOffset: 0
OS2WinDescent: 1040
OS2WinDOffset: 0
HheadAscent: 2457
HheadAOffset: 0
HheadDescent: -615
HheadDOffset: 0
OS2CapHeight: 1548
OS2XHeight: 1023
OS2FamilyClass: 1031
OS2Vendor: 'anir'
Lookup: 1 0 0 "loclLocalizedFormsinLatinlookup10" { "loclLocalizedFormsinLatinlookup10 subtable"  } ['locl' ('latn' <'MOL ' 'ROM ' > ) ]
Lookup: 6 0 0 "loclLocalizedFormsinLatinlookup11" { "loclLocalizedFormsinLatinlookup11 contextual 0"  "loclLocalizedFormsinLatinlookup11 contextual 1"  } ['locl' ('latn' <'CAT ' > ) ]
Lookup: 4 0 0 "Ligature Substitution lookup 2" { "Ligature Substitution lookup 2 subtable"  } []
Lookup: 4 0 0 "Ligature Substitution lookup 3" { "Ligature Substitution lookup 3 subtable"  } []
Lookup: 6 16 0 "ccmp_soft_dotted" { "ccmp_soft_dotted subtable"  } ['ccmp' ('latn' <'dflt' > 'DFLT' <'dflt' > ) ]
Lookup: 1 16 0 "Single Substitution lookup 5" { "Single Substitution lookup 5 subtable"  } []
Lookup: 4 0 0 "dligDiscretionaryLigatureslookup0" { "dligDiscretionaryLigatureslookup0 subtable"  } ['dlig' ('latn' <'dflt' > 'DFLT' <'dflt' > ) ]

StartChar: uni0000
Encoding: 0 0 0
GlifName: _notdef
Width: 2048
VWidth: 0
Flags: W
LayerCount: 2
Fore
SplineSet
525 -16 m 257
 1523 -16 l 257
 1523 1624 l 257
 525 1624 l 257
 525 -16 l 257
599 64 m 257
 599 1548 l 257
 992 827 l 257
 599 64 l 257
691 64 m 257
 1030 750 l 257
 1371 64 l 257
 691 64 l 257
719 1558 m 257
 1350 1558 l 257
 1032 909 l 257
 719 1558 l 257
1070 832 m 257
 1446 1559 l 257
 1446 64 l 257
 1070 832 l 257
EndSplineSet
EndChar

StartChar: A
Encoding: 1 65 1
GlifName: A_
Width: 2048
VWidth: 0
GlyphClass: 2
Flags: W
AnchorPoint: "top" 1014 1637 basechar 0
AnchorPoint: "base" 1020 -11 basechar 0
LayerCount: 2
Fore
SplineSet
121 0 m 257
 320 0 l 257
 320 1548 l 257
 121 1548 l 257
 121 0 l 257
182 1332 m 257
 1850 1332 l 257
 1850 1548 l 257
 182 1548 l 257
 182 1332 l 257
200 1023 m 257
 200 849 l 257
 1838 849 l 257
 1838 1023 l 257
 200 1023 l 257
1725 0 m 257
 1925 0 l 257
 1925 1548 l 257
 1725 1548 l 257
 1725 0 l 257
EndSplineSet
EndChar

StartChar: AE
Encoding: 3 198 3
GlifName: A_E_
Width: 2048
VWidth: 0
GlyphClass: 2
Flags: W
AnchorPoint: "top" 1172 1808 basechar 0
AnchorPoint: "base" 1165 -16 basechar 0
LayerCount: 2
Fore
SplineSet
1158 185 m 257
 1158 0 l 257
 2020 0 l 257
 2020 185 l 257
 1158 185 l 257
125 0 m 257
 324 0 l 257
 324 1548 l 257
 125 1548 l 257
 125 0 l 257
186 1332 m 257
 1998 1332 l 257
 1998 1548 l 257
 186 1548 l 257
 186 1332 l 257
204 1023 m 257
 204 849 l 257
 1946 849 l 257
 1946 1023 l 257
 204 1023 l 257
1063 0 m 257
 1263 0 l 257
 1263 1548 l 257
 1063 1548 l 257
 1063 0 l 257
EndSplineSet
EndChar

StartChar: uni2C6D
Encoding: 12 11373 12
GlifName: A_lpha_latin
Width: 2048
VWidth: 0
GlyphClass: 2
Flags: W
AnchorPoint: "top" 1021 1534 basechar 0
AnchorPoint: "base" 1025 -90 basechar 0
LayerCount: 2
Fore
SplineSet
116 1452 m 257
 116 0 l 257
 316 0 l 257
 316 1452 l 257
 116 1452 l 257
1732 1545 m 257
 1732 -127 l 257
 1934 -127 l 257
 1934 1545 l 257
 1732 1545 l 257
240 1452 m 257
 240 1251 l 257
 1826 1251 l 257
 1826 1452 l 257
 240 1452 l 257
244 200 m 257
 244 0 l 257
 1816 0 l 257
 1816 200 l 257
 244 200 l 257
EndSplineSet
EndChar

StartChar: B
Encoding: 22 66 22
GlifName: B_
Width: 2048
VWidth: 0
GlyphClass: 2
Flags: W
AnchorPoint: "top" 1037 1623 basechar 0
AnchorPoint: "base" 1021 -59 basechar 0
LayerCount: 2
Fore
SplineSet
90 0 m 257
 298 0 l 257
 298 1537 l 257
 90 1537 l 257
 90 0 l 257
1438 1331 m 257
 1952 989 l 257
 1952 1215 l 257
 1438 1537 l 257
 1438 1331 l 257
1438 820 m 257
 1952 991 l 257
 1952 1215 l 257
 1438 1023 l 257
 1438 820 l 257
1380 201 m 257
 1380 0 l 257
 1934 364 l 257
 1934 588 l 257
 1380 201 l 257
1446 567 m 257
 1934 364 l 257
 1934 586 l 257
 1446 766 l 257
 1446 567 l 257
252 1023 m 257
 252 820 l 257
 1438 820 l 257
 1438 1023 l 257
 252 1023 l 257
250 766 m 257
 250 567 l 257
 1446 567 l 257
 1446 766 l 257
 250 766 l 257
188 200 m 257
 188 0 l 257
 1380 0 l 257
 1380 200 l 257
 188 200 l 257
250 1537 m 257
 250 1331 l 257
 1438 1331 l 257
 1438 1537 l 257
 250 1537 l 257
EndSplineSet
EndChar

StartChar: uni0411
Encoding: 24 1041 24
GlifName: B_e-cy
Width: 2048
VWidth: 0
Flags: W
AnchorPoint: "base" 1014 -78 basechar 0
AnchorPoint: "top" 258 1604 basechar 0
LayerCount: 2
Fore
SplineSet
55 1537 m 257
 55 0 l 257
 254 0 l 257
 254 1537 l 257
 55 1537 l 257
152 808 m 257
 152 609 l 257
 1808 609 l 257
 1808 808 l 257
 152 808 l 257
1748 808 m 257
 1748 0 l 257
 1947 0 l 257
 1947 808 l 257
 1748 808 l 257
180 207 m 257
 180 0 l 257
 1868 0 l 257
 1868 207 l 257
 180 207 l 257
152 1537 m 257
 152 1338 l 257
 1808 1338 l 257
 1808 1537 l 257
 152 1537 l 257
EndSplineSet
EndChar

StartChar: uniA7B4
Encoding: 26 42932 26
GlifName: B_eta_latin
Width: 2048
VWidth: 0
GlyphClass: 2
Flags: W
AnchorPoint: "top" 1037 1623 basechar 0
AnchorPoint: "base" 1021 -59 basechar 0
LayerCount: 2
Fore
SplineSet
90 -412 m 257
 298 -412 l 257
 298 1537 l 257
 90 1537 l 257
 90 -412 l 257
1438 1331 m 257
 1952 989 l 257
 1952 1215 l 257
 1438 1537 l 257
 1438 1331 l 257
1438 820 m 257
 1952 991 l 257
 1952 1215 l 257
 1438 1023 l 257
 1438 820 l 257
1380 201 m 257
 1380 0 l 257
 1934 364 l 257
 1934 588 l 257
 1380 201 l 257
1446 567 m 257
 1934 364 l 257
 1934 586 l 257
 1446 766 l 257
 1446 567 l 257
252 1023 m 257
 252 820 l 257
 1438 820 l 257
 1438 1023 l 257
 252 1023 l 257
250 766 m 257
 250 567 l 257
 1446 567 l 257
 1446 766 l 257
 250 766 l 257
188 200 m 257
 188 0 l 257
 1380 0 l 257
 1380 200 l 257
 188 200 l 257
250 1537 m 257
 250 1331 l 257
 1438 1331 l 257
 1438 1537 l 257
 250 1537 l 257
EndSplineSet
EndChar

StartChar: uni0182
Encoding: 30 386 30
GlifName: B_topbar
Width: 2048
VWidth: 0
GlyphClass: 2
Flags: W
AnchorPoint: "top" 1037 1623 basechar 0
AnchorPoint: "base" 1021 -59 basechar 0
LayerCount: 2
Fore
SplineSet
90 0 m 257
 298 0 l 257
 298 1537 l 257
 90 1537 l 257
 90 0 l 257
1380 201 m 257
 1380 0 l 257
 1934 364 l 257
 1934 588 l 257
 1380 201 l 257
1446 567 m 257
 1934 364 l 257
 1934 586 l 257
 1446 766 l 257
 1446 567 l 257
250 766 m 257
 250 567 l 257
 1446 567 l 257
 1446 766 l 257
 250 766 l 257
188 200 m 257
 188 0 l 257
 1380 0 l 257
 1380 200 l 257
 188 200 l 257
250 1537 m 257
 250 1331 l 257
 1916 1331 l 257
 1916 1537 l 257
 250 1537 l 257
EndSplineSet
EndChar

StartChar: C
Encoding: 31 67 31
GlifName: C_
Width: 2048
VWidth: 0
GlyphClass: 2
Flags: W
AnchorPoint: "top" 1016 1588 basechar 0
AnchorPoint: "base" 1007 -88 basechar 0
LayerCount: 2
Fore
SplineSet
71 1537 m 257
 71 0 l 257
 271 0 l 257
 271 1537 l 257
 71 1537 l 257
170 1537 m 257
 170 1338 l 257
 1977 1338 l 257
 1977 1537 l 257
 170 1537 l 257
156 199 m 257
 156 0 l 257
 1975 0 l 257
 1975 199 l 257
 156 199 l 257
EndSplineSet
EndChar

StartChar: uni0427
Encoding: 37 1063 37
GlifName: C_he-cy
Width: 2048
VWidth: 0
Flags: W
LayerCount: 2
Fore
SplineSet
1749 1554 m 257
 1749 -1 l 257
 1949 -1 l 257
 1949 1554 l 257
 1749 1554 l 257
129 1554 m 257
 129 582 l 257
 329 582 l 257
 329 1554 l 257
 129 1554 l 257
309 782 m 257
 329 581 l 257
 1855 698 l 257
 1835 899 l 257
 309 782 l 257
EndSplineSet
EndChar

StartChar: D
Encoding: 40 68 40
GlifName: D_
Width: 2048
VWidth: 0
GlyphClass: 2
Flags: W
AnchorPoint: "base" 1009 -104 basechar 0
AnchorPoint: "top" 1013 1600 basechar 0
LayerCount: 2
Fore
SplineSet
118 1548 m 257
 118 0 l 257
 320 0 l 257
 320 1548 l 257
 118 1548 l 257
1444 1548 m 257
 1444 1350 l 257
 1928 767 l 257
 1928 1023 l 257
 1444 1548 l 257
1452 201 m 257
 1452 0 l 257
 1924 769 l 257
 1924 1023 l 257
 1452 201 l 257
282 1548 m 257
 282 1349 l 257
 1444 1349 l 257
 1444 1548 l 257
 282 1548 l 257
290 200 m 257
 290 0 l 257
 1452 0 l 257
 1452 200 l 257
 290 200 l 257
EndSplineSet
EndChar

StartChar: Dcroat
Encoding: 44 272 44
GlifName: D_croat
Width: 2048
VWidth: 0
GlyphClass: 2
Flags: W
AnchorPoint: "top" 1026 1631 basechar 0
AnchorPoint: "base" 1039 -155 basechar 0
LayerCount: 2
Fore
SplineSet
0 935 m 257
 0 730 l 257
 600 730 l 257
 600 935 l 257
 0 935 l 257
107 1548 m 257
 107 0 l 257
 309 0 l 257
 309 1548 l 257
 107 1548 l 257
1457 1548 m 257
 1457 1350 l 257
 1940 767 l 257
 1940 1023 l 257
 1457 1548 l 257
1465 201 m 257
 1465 0 l 257
 1937 769 l 257
 1937 1023 l 257
 1465 201 l 257
271 1548 m 257
 271 1349 l 257
 1457 1349 l 257
 1457 1548 l 257
 271 1548 l 257
279 200 m 257
 279 0 l 257
 1465 0 l 257
 1465 200 l 257
 279 200 l 257
EndSplineSet
EndChar

StartChar: uni0414
Encoding: 45 1044 45
GlifName: D_e-cy
Width: 2048
VWidth: 0
Flags: W
LayerCount: 2
Fore
SplineSet
18 203 m 257
 18 3 l 257
 2016 3 l 257
 2016 203 l 257
 18 203 l 257
18 159 m 257
 20 -405 l 257
 220 -405 l 257
 218 159 l 257
 18 159 l 257
1816 159 m 257
 1816 -412 l 257
 2016 -412 l 257
 2016 159 l 257
 1816 159 l 257
1472 1436 m 257
 1472 132 l 257
 1672 132 l 257
 1672 1436 l 257
 1472 1436 l 257
684 1538 m 257
 684 1338 l 257
 1672 1338 l 257
 1672 1538 l 257
 684 1538 l 257
664 1539 m 257
 235 185 l 257
 435 185 l 257
 864 1539 l 257
 664 1539 l 257
EndSplineSet
EndChar

StartChar: uni0402
Encoding: 47 1026 47
GlifName: D_je-cy
Width: 2048
VWidth: 0
Flags: W
LayerCount: 2
Fore
SplineSet
48 1548 m 257
 48 1348 l 257
 1604 1348 l 257
 1604 1548 l 257
 48 1548 l 257
745 1544 m 257
 745 -1 l 257
 945 -1 l 257
 945 1544 l 257
 745 1544 l 257
828 994 m 257
 828 794 l 257
 1953 794 l 257
 1953 994 l 257
 828 994 l 257
1753 989 m 257
 1753 37 l 257
 1953 37 l 257
 1953 989 l 257
 1753 989 l 257
1374 200 m 257
 1374 0 l 257
 1953 0 l 257
 1953 200 l 257
 1374 200 l 257
EndSplineSet
EndChar

StartChar: uni040F
Encoding: 51 1039 51
GlifName: D_zhe-cy
Width: 2048
VWidth: 0
Flags: W
LayerCount: 2
Fore
SplineSet
62 1466 m 257
 62 18 l 257
 262 18 l 257
 262 1466 l 257
 62 1466 l 257
1786 1470 m 257
 1786 3 l 257
 1986 3 l 257
 1986 1470 l 257
 1786 1470 l 257
62 200 m 257
 62 0 l 257
 1986 0 l 257
 1986 200 l 257
 62 200 l 257
924 79 m 257
 924 -405 l 257
 1124 -405 l 257
 1124 79 l 257
 924 79 l 257
EndSplineSet
EndChar

StartChar: E
Encoding: 52 69 52
GlifName: E_
Width: 2048
VWidth: 0
GlyphClass: 2
Flags: W
AnchorPoint: "top" 959 1637 basechar 0
AnchorPoint: "base" 1035 -100 basechar 0
LayerCount: 2
Fore
SplineSet
116 1537 m 257
 116 0 l 257
 316 0 l 257
 316 1537 l 257
 116 1537 l 257
194 1537 m 257
 194 1333 l 257
 1912 1333 l 257
 1912 1537 l 257
 194 1537 l 257
182 203 m 257
 182 0 l 257
 1928 0 l 257
 1928 203 l 257
 182 203 l 257
182 888 m 257
 182 688 l 257
 1682 688 l 257
 1682 888 l 257
 182 888 l 257
EndSplineSet
EndChar

StartChar: uni0404
Encoding: 53 1028 53
GlifName: E_-cy
Width: 2048
VWidth: 0
Flags: W
LayerCount: 2
Fore
SplineSet
959 1542 m 257
 959 1342 l 257
 1962 1342 l 257
 1962 1542 l 257
 959 1542 l 257
207 898 m 257
 207 698 l 257
 1896 698 l 257
 1896 898 l 257
 207 898 l 257
931 201 m 257
 931 1 l 257
 1957 1 l 257
 1957 201 l 257
 931 201 l 257
959 1541 m 257
 40 806 l 257
 283 806 l 257
 1202 1541 l 257
 959 1541 l 257
42 806 m 257
 931 0 l 257
 1176 0 l 257
 287 806 l 257
 42 806 l 257
EndSplineSet
EndChar

StartChar: uni041B
Encoding: 63 1051 63
GlifName: E_l-cy
Width: 2048
VWidth: 0
Flags: W
LayerCount: 2
Fore
SplineSet
1836 1548 m 257
 1836 1 l 257
 2036 1 l 257
 2036 1548 l 257
 1836 1548 l 257
662 1548 m 257
 662 1348 l 257
 2024 1348 l 257
 2024 1548 l 257
 662 1548 l 257
652 1548 m 257
 342 0 l 257
 542 0 l 257
 852 1548 l 257
 652 1548 l 257
33 201 m 257
 33 1 l 257
 542 1 l 257
 542 201 l 257
 33 201 l 257
EndSplineSet
EndChar

StartChar: Eng
Encoding: 65 330 65
GlifName: E_ng
Width: 2048
VWidth: 0
GlyphClass: 2
Flags: W
AnchorPoint: "top" 1010 1623 basechar 0
AnchorPoint: "base" 884 -400 basechar 0
LayerCount: 2
Fore
SplineSet
1548 -211 m 257
 1548 -408 l 257
 1935 -408 l 257
 1935 -211 l 257
 1548 -211 l 257
112 1547 m 257
 112 0 l 257
 313 0 l 257
 313 1547 l 257
 112 1547 l 257
1735 1476 m 257
 1735 -408 l 257
 1936 -408 l 257
 1936 1476 l 257
 1735 1476 l 257
112 1477 m 257
 112 1280 l 257
 1935 1280 l 257
 1935 1477 l 257
 112 1477 l 257
EndSplineSet
EndChar

StartChar: uni0190
Encoding: 67 400 67
GlifName: E_open
Width: 2048
VWidth: 0
GlyphClass: 2
Flags: W
AnchorPoint: "base" 1008 -125 basechar 0
AnchorPoint: "top" 1040 1641 basechar 0
LayerCount: 2
Fore
SplineSet
103 1542 m 257
 301 930 l 257
 501 929 l 257
 303 1541 l 257
 103 1542 l 257
181 1541 m 257
 181 1337 l 257
 1924 1337 l 257
 1924 1541 l 257
 181 1541 l 257
170 203 m 257
 170 0 l 257
 1940 0 l 257
 1940 203 l 257
 170 203 l 257
447 931 m 257
 447 731 l 257
 1181 731 l 257
 1181 931 l 257
 447 931 l 257
308 734 m 257
 96 2 l 257
 296 1 l 257
 508 733 l 257
 308 734 l 257
EndSplineSet
EndChar

StartChar: uni042D
Encoding: 71 1069 71
GlifName: E_reversed-cy
Width: 2048
VWidth: 0
Flags: W
LayerCount: 2
Fore
SplineSet
1043 1542 m 257
 40 1542 l 257
 40 1342 l 257
 1043 1342 l 257
 1043 1542 l 257
1795 898 m 257
 106 898 l 257
 106 698 l 257
 1795 698 l 257
 1795 898 l 257
1071 201 m 257
 45 201 l 257
 45 1 l 257
 1071 1 l 257
 1071 201 l 257
1043 1541 m 257
 800 1541 l 257
 1719 806 l 257
 1962 806 l 257
 1043 1541 l 257
1960 806 m 257
 1715 806 l 257
 826 0 l 257
 1071 0 l 257
 1960 806 l 257
EndSplineSet
EndChar

StartChar: uni01A9
Encoding: 72 425 72
GlifName: E_sh
Width: 2048
VWidth: 0
GlyphClass: 2
Flags: W
LayerCount: 2
Fore
SplineSet
1216 928 m 257
 110 210 l 257
 110 -14 l 257
 1216 725 l 257
 1216 928 l 257
1218 921 m 257
 128 1539 l 257
 129 1338 l 257
 1218 722 l 257
 1218 921 l 257
1874 1337 m 257
 1874 1537 l 257
 128 1537 l 257
 128 1337 l 257
 1874 1337 l 257
1812 0 m 257
 1812 206 l 257
 125 206 l 257
 125 0 l 257
 1812 0 l 257
EndSplineSet
EndChar

StartChar: Eth
Encoding: 76 208 76
GlifName: E_th
Width: 2048
VWidth: 0
GlyphClass: 2
Flags: W
AnchorPoint: "top" 989 1645 basechar 0
AnchorPoint: "base" 1013 -149 basechar 0
LayerCount: 2
Fore
SplineSet
0 935 m 257
 0 730 l 257
 476 730 l 257
 476 935 l 257
 0 935 l 257
107 1548 m 257
 107 0 l 257
 309 0 l 257
 309 1548 l 257
 107 1548 l 257
1457 1548 m 257
 1457 1350 l 257
 1940 767 l 257
 1940 1023 l 257
 1457 1548 l 257
1465 201 m 257
 1465 0 l 257
 1937 769 l 257
 1937 1023 l 257
 1465 201 l 257
271 1548 m 257
 271 1349 l 257
 1457 1349 l 257
 1457 1548 l 257
 271 1548 l 257
279 200 m 257
 279 0 l 257
 1465 0 l 257
 1465 200 l 257
 279 200 l 257
EndSplineSet
EndChar

StartChar: Euro
Encoding: 78 8364 78
GlifName: E_uro
Width: 2048
VWidth: 0
GlyphClass: 2
Flags: W
LayerCount: 2
Fore
SplineSet
626 520 m 257
 626 372 l 257
 1422 372 l 257
 1422 520 l 257
 626 520 l 257
638 935 m 257
 638 788 l 257
 1418 788 l 257
 1418 935 l 257
 638 935 l 257
894 1023 m 257
 894 179 l 257
 1084 179 l 257
 1084 1023 l 257
 894 1023 l 257
1212 1633 m 257
 894 1023 l 257
 1084 1023 l 257
 1332 1601 l 257
 1212 1633 l 257
894 179 m 257
 1238 -406 l 257
 1390 -406 l 257
 1084 179 l 257
 894 179 l 257
EndSplineSet
EndChar

StartChar: uni01B7
Encoding: 79 439 79
GlifName: E_zh
Width: 2048
VWidth: 0
GlyphClass: 2
Flags: W
LayerCount: 2
Fore
SplineSet
1884 0 m 257
 1884 197 l 257
 164 197 l 257
 164 0 l 257
 1884 0 l 257
1882 39 m 257
 1886 889 l 257
 1684 889 l 257
 1680 39 l 257
 1882 39 l 257
1780 688 m 257
 1780 889 l 257
 174 889 l 257
 174 688 l 257
 1780 688 l 257
121 1544 m 257
 121 1347 l 257
 1973 1347 l 257
 1973 1544 l 257
 121 1544 l 257
1590 1347 m 257
 169 889 l 257
 590 889 l 257
 1973 1347 l 257
 1590 1347 l 257
EndSplineSet
EndChar

StartChar: uni01B8
Encoding: 81 440 81
GlifName: E_zhreversed
Width: 2048
VWidth: 0
GlyphClass: 2
Flags: W
LayerCount: 2
Fore
SplineSet
210 0 m 257
 1930 0 l 257
 1930 197 l 257
 210 197 l 257
 210 0 l 257
212 39 m 257
 414 39 l 257
 410 889 l 257
 208 889 l 257
 212 39 l 257
314 688 m 257
 1920 688 l 257
 1920 889 l 257
 314 889 l 257
 314 688 l 257
1973 1544 m 257
 121 1544 l 257
 121 1347 l 257
 1973 1347 l 257
 1973 1544 l 257
504 1347 m 257
 121 1347 l 257
 1504 889 l 257
 1925 889 l 257
 504 1347 l 257
EndSplineSet
EndChar

StartChar: F
Encoding: 82 70 82
GlifName: F_
Width: 2048
VWidth: 0
GlyphClass: 2
Flags: W
AnchorPoint: "top" 1030 1648 basechar 0
AnchorPoint: "base" 266 -71 basechar 0
LayerCount: 2
Fore
SplineSet
153 1548 m 257
 153 0 l 257
 353 0 l 257
 353 1548 l 257
 153 1548 l 257
255 1548 m 257
 255 1347 l 257
 1889 1347 l 257
 1889 1548 l 257
 255 1548 l 257
243 875 m 257
 243 672 l 257
 1792 672 l 257
 1792 875 l 257
 243 875 l 257
EndSplineSet
EndChar

StartChar: G
Encoding: 85 71 85
GlifName: G_
Width: 2048
VWidth: 0
GlyphClass: 2
Flags: W
AnchorPoint: "top" 980 1589 basechar 0
AnchorPoint: "base" 1018 -102 basechar 0
LayerCount: 2
Fore
SplineSet
127 1548 m 257
 127 0 l 257
 329 0 l 257
 329 1548 l 257
 127 1548 l 257
185 1548 m 257
 185 1347 l 257
 1885 1347 l 257
 1885 1548 l 257
 185 1548 l 257
158 202 m 257
 158 0 l 257
 1921 0 l 257
 1921 202 l 257
 158 202 l 257
1722 561 m 257
 1722 18 l 257
 1921 18 l 257
 1921 561 l 257
 1722 561 l 257
EndSplineSet
EndChar

StartChar: Gamma
Encoding: 86 915 86
GlifName: G_amma
Width: 2048
VWidth: 0
GlyphClass: 2
Flags: W
LayerCount: 2
Fore
SplineSet
125 1548 m 257
 125 1348 l 257
 1923 1348 l 257
 1923 1548 l 257
 125 1548 l 257
129 1436 m 257
 129 6 l 257
 329 6 l 257
 329 1436 l 257
 129 1436 l 257
EndSplineSet
EndChar

StartChar: uni0194
Encoding: 87 404 87
GlifName: G_amma_latin
Width: 2048
VWidth: 0
GlyphClass: 2
Flags: W
LayerCount: 2
Fore
SplineSet
81 1543 m 257
 1324 -158 l 257
 1524 -158 l 257
 281 1543 l 257
 81 1543 l 257
1754 1543 m 257
 730 -158 l 257
 929 -158 l 257
 1954 1543 l 257
 1754 1543 l 257
731 -360 m 257
 1525 -361 l 257
 1525 -158 l 257
 731 -158 l 257
 731 -360 l 257
EndSplineSet
EndChar

StartChar: uni0490
Encoding: 92 1168 92
GlifName: G_eupturn-cy
Width: 2048
VWidth: 0
Flags: W
LayerCount: 2
Fore
SplineSet
125 1548 m 257
 125 1348 l 257
 1923 1348 l 257
 1923 1548 l 257
 125 1548 l 257
129 1436 m 257
 129 6 l 257
 329 6 l 257
 329 1436 l 257
 129 1436 l 257
1720 1758.82696863 m 257
 1720 1352.68000156 l 257
 1922 1352.68000156 l 257
 1922 1758.82696863 l 257
 1720 1758.82696863 l 257
EndSplineSet
EndChar

StartChar: H
Encoding: 96 72 96
GlifName: H_
Width: 2048
VWidth: 0
GlyphClass: 2
Flags: W
AnchorPoint: "top" 1026 1627 basechar 0
AnchorPoint: "base" 1026 -45 basechar 0
LayerCount: 2
Fore
SplineSet
126 1537 m 257
 126 0 l 257
 326 0 l 257
 326 1537 l 257
 126 1537 l 257
1712 1537 m 257
 1712 0 l 257
 1922 0 l 257
 1922 1537 l 257
 1712 1537 l 257
246 1023 m 257
 246 818 l 257
 1792 818 l 257
 1792 1023 l 257
 246 1023 l 257
EndSplineSet
EndChar

StartChar: uni042A
Encoding: 97 1066 97
GlifName: H_ardsign-cy
Width: 2048
VWidth: 0
Flags: W
AnchorPoint: "base" 1014 -78 basechar 0
AnchorPoint: "top" 258 1604 basechar 0
LayerCount: 2
Fore
SplineSet
855 1547 m 257
 855 0 l 257
 1054 0 l 257
 1054 1547 l 257
 855 1547 l 257
952 808 m 257
 952 609 l 257
 1808 609 l 257
 1808 808 l 257
 952 808 l 257
1748 808 m 257
 1748 0 l 257
 1947 0 l 257
 1947 808 l 257
 1748 808 l 257
980 207 m 257
 980 0 l 257
 1868 0 l 257
 1868 207 l 257
 980 207 l 257
90 1547 m 257
 90 1348 l 257
 870 1348 l 257
 870 1547 l 257
 90 1547 l 257
EndSplineSet
EndChar

StartChar: Hbar
Encoding: 98 294 98
GlifName: H_bar
Width: 2048
VWidth: 0
GlyphClass: 2
Flags: W
LayerCount: 2
Fore
SplineSet
89 1537 m 257
 89 0 l 257
 289 0 l 257
 289 1537 l 257
 89 1537 l 257
1699 1537 m 257
 1699 0 l 257
 1909 0 l 257
 1909 1537 l 257
 1699 1537 l 257
209 1023 m 257
 209 818 l 257
 1779 818 l 257
 1779 1023 l 257
 209 1023 l 257
28 1434 m 257
 28 1226 l 257
 1977 1226 l 257
 1977 1434 l 257
 28 1434 l 257
EndSplineSet
EndChar

StartChar: uniA78D
Encoding: 103 42893 103
GlifName: H_turned
Width: 2048
VWidth: 0
GlyphClass: 2
Flags: W
AnchorPoint: "top" 248 1646 basechar 0
AnchorPoint: "base" 1326 -57 basechar 0
LayerCount: 2
Fore
SplineSet
1862 0 m 257
 1862 1531 l 257
 1662 1531 l 257
 1662 0 l 257
 1862 0 l 257
1725 514 m 257
 1725 711 l 257
 194 711 l 257
 194 514 l 257
 1725 514 l 257
385 514 m 257
 385 1537 l 257
 186 1537 l 257
 186 514 l 257
 385 514 l 257
EndSplineSet
EndChar

StartChar: I
Encoding: 104 73 104
GlifName: I_
Width: 2048
VWidth: 0
GlyphClass: 2
Flags: W
AnchorPoint: "top" 1027 1618 basechar 0
AnchorPoint: "base" 1029 -86 basechar 0
LayerCount: 2
Fore
SplineSet
144 1537 m 257
 144 1335 l 257
 1889 1335 l 257
 1889 1537 l 257
 144 1537 l 257
975 1468 m 257
 975 84 l 257
 1175 84 l 257
 1175 1468 l 257
 975 1468 l 257
124 204 m 257
 124 6 l 257
 1924 6 l 257
 1924 204 l 257
 124 204 l 257
EndSplineSet
EndChar

StartChar: uniA7AE
Encoding: 108 42926 108
GlifName: I_capitalsmall
Width: 2048
VWidth: 0
GlyphClass: 2
Flags: W
AnchorPoint: "top" 1026 1651 basechar 0
AnchorPoint: "base" 1007 -71 basechar 0
LayerCount: 2
Fore
SplineSet
144 1537 m 257
 144 1335 l 257
 1869 1335 l 257
 1869 1537 l 257
 144 1537 l 257
889 1468 m 257
 889 84 l 257
 1089 84 l 257
 1089 1468 l 257
 889 1468 l 257
124 204 m 257
 121 0 l 257
 1901 0 l 257
 1904 204 l 257
 124 204 l 257
248 0 m 257
 252 373 l 257
 52 373 l 257
 52 0 l 257
 248 0 l 257
1984 0 m 257
 1988 373 l 257
 1788 373 l 257
 1788 0 l 257
 1984 0 l 257
251 1165 m 257
 255 1538 l 257
 55 1538 l 257
 55 1165 l 257
 251 1165 l 257
1987 1164 m 257
 1991 1537 l 257
 1791 1537 l 257
 1791 1164 l 257
 1987 1164 l 257
EndSplineSet
EndChar

StartChar: uni0418
Encoding: 114 1048 114
GlifName: I_i-cy
Width: 2048
VWidth: 0
Flags: W
LayerCount: 2
Fore
SplineSet
34 1552 m 257
 34 0 l 257
 234 0 l 257
 234 1552 l 257
 34 1552 l 257
1813 1552 m 257
 1813 0 l 257
 2013 0 l 257
 2013 1552 l 257
 1813 1552 l 257
1813 1552 m 257
 34 0 l 257
 234 0 l 257
 2014 1552 l 257
 1813 1552 l 257
EndSplineSet
EndChar

StartChar: uni0196
Encoding: 120 406 120
GlifName: I_ota_latin
Width: 2048
VWidth: 0
GlyphClass: 2
Flags: W
AnchorPoint: "top" 907 1642 basechar 0
AnchorPoint: "base" 1029 -86 basechar 0
LayerCount: 2
Fore
SplineSet
808 1543 m 257
 808 239 l 257
 1010 239 l 257
 1010 1543 l 257
 808 1543 l 257
808 304 m 257
 808 106 l 257
 1816 6 l 257
 1816 204 l 257
 808 304 l 257
EndSplineSet
EndChar

StartChar: uni0474
Encoding: 126 1140 126
GlifName: I_zhitsa-cy
Width: 2048
VWidth: 0
Flags: W
AnchorPoint: "top" 1020 1630 basechar 0
AnchorPoint: "base" 1041 -60 basechar 0
LayerCount: 2
Fore
SplineSet
118 1548 m 257
 890 0 l 257
 1112 0 l 257
 320 1548 l 257
 118 1548 l 257
1597 1433 m 257
 1016 0 l 257
 1238 0 l 257
 1799 1433 l 257
 1597 1433 l 257
1587 1410 m 257
 1937 1443 l 257
 2011 1628 l 257
 1662 1596 l 257
 1587 1410 l 257
EndSplineSet
EndChar

StartChar: J
Encoding: 127 74 127
GlifName: J_
Width: 2048
VWidth: 0
GlyphClass: 2
Flags: W
AnchorPoint: "base" 1017 -54 basechar 0
AnchorPoint: "top" 1801 1649 basechar 0
LayerCount: 2
Fore
SplineSet
1712 1527 m 257
 1712 0 l 257
 1912 0 l 257
 1912 1527 l 257
 1712 1527 l 257
138 208 m 257
 138 0 l 257
 1752 0 l 257
 1752 208 l 257
 138 208 l 257
136 503 m 257
 136 52 l 257
 334 52 l 257
 334 503 l 257
 136 503 l 257
EndSplineSet
EndChar

StartChar: K
Encoding: 131 75 131
GlifName: K_
Width: 2048
VWidth: 0
GlyphClass: 2
Flags: W
AnchorPoint: "base" 1030 -39 basechar 0
AnchorPoint: "top" 236 1629 basechar 0
LayerCount: 2
Fore
SplineSet
112 1537 m 257
 112 5 l 257
 313 5 l 257
 313 1537 l 257
 112 1537 l 257
157 999 m 257
 276 835 l 257
 1883 1529 l 257
 1616 1529 l 257
 157 999 l 257
287 798 m 257
 150 643 l 257
 1655 0 l 257
 1936 0 l 257
 287 798 l 257
EndSplineSet
EndChar

StartChar: uni03CF
Encoding: 132 975 132
GlifName: K_aiS_ymbol
Width: 2048
VWidth: 0
GlyphClass: 2
Flags: W
LayerCount: 2
Fore
SplineSet
1383 -275 m 257
 1576 -374 l 257
 1911 5 l 257
 1718 104 l 257
 1383 -275 l 257
EndSplineSet
Refer: 131 75 N 1 0 0 1 0 0 2
EndChar

StartChar: uni0198
Encoding: 134 408 134
GlifName: K_hook
Width: 2048
VWidth: 0
GlyphClass: 2
Flags: W
LayerCount: 2
Fore
SplineSet
112 1537 m 257
 112 5 l 257
 313 5 l 257
 313 1537 l 257
 112 1537 l 257
157 999 m 257
 276 835 l 257
 1883 1529 l 257
 1616 1529 l 257
 157 999 l 257
287 798 m 257
 150 643 l 257
 1655 0 l 257
 1936 0 l 257
 287 798 l 257
2205 1741 m 257
 2080 1956 l 257
 1882 1842 l 257
 2006 1627 l 257
 2205 1741 l 257
2068 1775 m 257
 1882 1841 l 257
 1616 1528 l 257
 1883 1529 l 257
 2068 1775 l 257
EndSplineSet
EndChar

StartChar: L
Encoding: 136 76 136
GlifName: L_
Width: 2048
VWidth: 0
GlyphClass: 2
Flags: W
AnchorPoint: "base" 1012 -84 basechar 0
AnchorPoint: "top" 140 1650 basechar 0
LayerCount: 2
Fore
SplineSet
129 1542 m 257
 129 0 l 257
 327 0 l 257
 327 1542 l 257
 129 1542 l 257
238 202 m 257
 238 0 l 257
 1914 0 l 257
 1914 202 l 257
 238 202 l 257
EndSplineSet
EndChar

StartChar: Lambda
Encoding: 139 923 139
GlifName: L_ambda
Width: 2048
VWidth: 0
GlyphClass: 2
Flags: W
LayerCount: 2
Fore
SplineSet
1941 0 m 257
 1169 1548 l 257
 948 1548 l 257
 1740 0 l 257
 1941 0 l 257
307 0 m 257
 1044 1548 l 257
 821 1548 l 257
 106 0 l 257
 307 0 l 257
EndSplineSet
EndChar

StartChar: Lcaron
Encoding: 140 317 140
GlifName: L_caron
Width: 2048
VWidth: 0
GlyphClass: 2
Flags: W
LayerCount: 2
Fore
SplineSet
53 1542 m 257
 53 0 l 257
 251 0 l 257
 251 1542 l 257
 53 1542 l 257
162 202 m 257
 162 0 l 257
 1912 0 l 257
 1912 202 l 257
 162 202 l 257
447 1496 m 257
 447 1264 l 257
 577 1264 l 257
 577 1496 l 257
 447 1496 l 257
EndSplineSet
EndChar

StartChar: uni0409
Encoding: 143 1033 143
GlifName: L_je-cy
Width: 2048
VWidth: 0
Flags: W
LayerCount: 2
Fore
SplineSet
1361 1548 m 257
 1361 1 l 257
 1561 1 l 257
 1561 1548 l 257
 1361 1548 l 257
547 1548 m 257
 547 1348 l 257
 1549 1348 l 257
 1549 1548 l 257
 547 1548 l 257
537 1548 m 257
 227 0 l 257
 427 0 l 257
 737 1548 l 257
 537 1548 l 257
33 201 m 257
 33 1 l 257
 427 1 l 257
 427 201 l 257
 33 201 l 257
1560 202 m 257
 1560 2 l 257
 1954 2 l 257
 1954 202 l 257
 1560 202 l 257
1560 779 m 257
 1560 579 l 257
 1954 579 l 257
 1954 779 l 257
 1560 779 l 257
1750 198 m 257
 1950 198 l 257
 1950 592 l 257
 1750 592 l 257
 1750 198 l 257
EndSplineSet
EndChar

StartChar: Lslash
Encoding: 145 321 145
GlifName: L_slash
Width: 2048
VWidth: 0
GlyphClass: 2
Flags: W
LayerCount: 2
Fore
SplineSet
171 1542 m 257
 171 0 l 257
 369 0 l 257
 369 1542 l 257
 171 1542 l 257
280 202 m 257
 280 0 l 257
 2030 0 l 257
 2030 202 l 257
 280 202 l 257
16 902 m 257
 96 730 l 257
 530 932 l 257
 450 1104 l 257
 16 902 l 257
EndSplineSet
EndChar

StartChar: M
Encoding: 146 77 146
GlifName: M_
Width: 2048
VWidth: 0
GlyphClass: 2
Flags: W
AnchorPoint: "base" 1022 -20 basechar 0
AnchorPoint: "top" 1040 1661 basechar 0
LayerCount: 2
Fore
SplineSet
138 1548 m 257
 138 0 l 257
 340 0 l 257
 340 1548 l 257
 138 1548 l 257
1708 1548 m 257
 1708 0 l 257
 1910 0 l 257
 1910 1548 l 257
 1708 1548 l 257
174 1429 m 257
 890 1031 l 257
 1078 1031 l 257
 316 1548 l 257
 174 1429 l 257
1736 1548 m 257
 888 1023 l 257
 1076 1023 l 257
 1902 1499 l 257
 1736 1548 l 257
EndSplineSet
EndChar

StartChar: uni019C
Encoding: 147 412 147
GlifName: M_turned
Width: 2048
VWidth: 0
GlyphClass: 2
Flags: W
AnchorPoint: "base" 1021 -112 basechar 0
AnchorPoint: "top" 1031 1110 basechar 0
LayerCount: 2
Fore
SplineSet
1900 30 m 257
 1900 1546 l 257
 1700 1546 l 257
 1700 30 l 257
 1900 30 l 257
1086 51 m 257
 1086 1546 l 257
 886 1546 l 257
 886 51 l 257
 1086 51 l 257
270 47 m 257
 270 1546 l 257
 70 1546 l 257
 70 47 l 257
 270 47 l 257
1978 0 m 257
 1978 197 l 257
 72 197 l 257
 72 0 l 257
 1978 0 l 257
EndSplineSet
EndChar

StartChar: N
Encoding: 149 78 149
GlifName: N_
Width: 2048
VWidth: 0
GlyphClass: 2
Flags: W
AnchorPoint: "top" 1018 1617 basechar 0
AnchorPoint: "base" 1027 -36 basechar 0
LayerCount: 2
Fore
SplineSet
134 1548 m 257
 134 0 l 257
 338 0 l 257
 338 1548 l 257
 134 1548 l 257
1710 1548 m 257
 1710 0 l 257
 1912 0 l 257
 1912 1548 l 257
 1710 1548 l 257
134 1548 m 257
 1710 0 l 257
 1912 0 l 257
 340 1548 l 257
 134 1548 l 257
EndSplineSet
EndChar

StartChar: uni040A
Encoding: 154 1034 154
GlifName: N_je-cy
Width: 2048
VWidth: 0
Flags: W
LayerCount: 2
Fore
SplineSet
34 1545 m 257
 34 0 l 257
 234 0 l 257
 234 1545 l 257
 34 1545 l 257
956 1545 m 257
 956 0 l 257
 1156 0 l 257
 1156 1545 l 257
 956 1545 l 257
55 923 m 257
 55 723 l 257
 1924 723 l 257
 1924 923 l 257
 55 923 l 257
1814 924 m 257
 1814 1 l 257
 2014 0 l 257
 2014 923 l 257
 1814 924 l 257
1007 200 m 257
 1007 0 l 257
 2014 0 l 257
 2014 200 l 257
 1007 200 l 257
EndSplineSet
EndChar

StartChar: O
Encoding: 158 79 158
GlifName: O_
Width: 2048
VWidth: 0
GlyphClass: 2
Flags: W
AnchorPoint: "top" 1029 1661 basechar 0
AnchorPoint: "base" 1029 -88 basechar 0
LayerCount: 2
Fore
SplineSet
149 1537 m 257
 149 0 l 257
 350 0 l 257
 350 1537 l 257
 149 1537 l 257
1696 1537 m 257
 1696 0 l 257
 1899 0 l 257
 1899 1537 l 257
 1696 1537 l 257
213 1537 m 257
 213 1337 l 257
 1806 1337 l 257
 1806 1537 l 257
 213 1537 l 257
189 204 m 257
 189 0 l 257
 1812 0 l 257
 1812 204 l 257
 189 204 l 257
EndSplineSet
EndChar

StartChar: OE
Encoding: 159 338 159
GlifName: O_E_
Width: 2048
VWidth: 0
GlyphClass: 2
Flags: W
AnchorPoint: "top" 1032 1615 basechar 0
AnchorPoint: "base" 1020 -113 basechar 0
LayerCount: 2
Fore
SplineSet
111 1548 m 257
 111 0 l 257
 312 0 l 257
 312 1548 l 257
 111 1548 l 257
1015 1548 m 257
 1015 0 l 257
 1216 0 l 257
 1216 1548 l 257
 1015 1548 l 257
148 1548 m 257
 148 1349 l 257
 1904 1349 l 257
 1904 1548 l 257
 148 1548 l 257
150 200 m 257
 150 0 l 257
 1912 0 l 257
 1912 200 l 257
 150 200 l 257
1118 859 m 257
 1118 659 l 257
 1874 659 l 257
 1874 859 l 257
 1118 859 l 257
EndSplineSet
EndChar

StartChar: uni019F
Encoding: 161 415 161
GlifName: O_barred
Width: 2048
VWidth: 0
GlyphClass: 2
Flags: W
AnchorPoint: "top" 1112 1713 basechar 0
AnchorPoint: "base" 1029 -88 basechar 0
LayerCount: 2
Fore
SplineSet
149 1537 m 257
 149 0 l 257
 350 0 l 257
 350 1537 l 257
 149 1537 l 257
1696 1537 m 257
 1696 0 l 257
 1899 0 l 257
 1899 1537 l 257
 1696 1537 l 257
213 1537 m 257
 213 1337 l 257
 1806 1337 l 257
 1806 1537 l 257
 213 1537 l 257
189 204 m 257
 189 0 l 257
 1812 0 l 257
 1812 204 l 257
 189 204 l 257
326.59971 808 m 257
 326.59971 600 l 257
 1777.55957 600 l 257
 1777.55957 808 l 257
 326.59971 808 l 257
EndSplineSet
EndChar

StartChar: uniA7B6
Encoding: 171 42934 171
GlifName: O_mega_latin
Width: 2048
VWidth: 0
GlyphClass: 2
Flags: W
AnchorPoint: "base" 1021 -92 basechar 0
AnchorPoint: "top" 1003 1618 basechar 0
LayerCount: 2
Fore
SplineSet
64 1548 m 257
 64 0 l 257
 264 0 l 257
 264 1548 l 257
 64 1548 l 257
1783 1548 m 257
 1783 0 l 257
 1983 0 l 257
 1985 1549 l 257
 1783 1548 l 257
923 669 m 257
 923 146 l 257
 1123 146 l 257
 1123 669 l 257
 923 669 l 257
264 200 m 257
 264 0 l 257
 923 146 l 257
 923 346 l 257
 264 200 l 257
1123 346 m 257
 1123 146 l 257
 1783 1 l 257
 1783 201 l 257
 1123 346 l 257
95 1548 m 257
 97 1348 l 257
 653 1348 l 257
 651 1548 l 257
 95 1548 l 257
1387 1548 m 257
 1385 1348 l 257
 1983 1348 l 257
 1985 1548 l 257
 1387 1548 l 257
EndSplineSet
EndChar

StartChar: Oslash
Encoding: 177 216 177
GlifName: O_slash
Width: 2048
VWidth: 0
GlyphClass: 2
Flags: W
AnchorPoint: "top" 1026 1673 basechar 0
AnchorPoint: "base" 1014 -115 basechar 0
LayerCount: 2
Fore
SplineSet
1812 1667 m 257
 35 -45 l 257
 223 -118 l 257
 2000 1594 l 257
 1812 1667 l 257
110 1537 m 257
 110 0 l 257
 311 0 l 257
 311 1537 l 257
 110 1537 l 257
1731 1537 m 257
 1731 0 l 257
 1934 0 l 257
 1934 1537 l 257
 1731 1537 l 257
174 1537 m 257
 174 1337 l 257
 1841 1337 l 257
 1841 1537 l 257
 174 1537 l 257
150 204 m 257
 150 0 l 257
 1847 0 l 257
 1847 204 l 257
 150 204 l 257
EndSplineSet
EndChar

StartChar: P
Encoding: 180 80 180
GlifName: P_
Width: 2048
VWidth: 0
GlyphClass: 2
Flags: W
AnchorPoint: "base" 1025 -82 basechar 0
AnchorPoint: "top" 1021 1648 basechar 0
LayerCount: 2
Fore
SplineSet
172 1548 m 257
 172 9 l 257
 362 9 l 257
 362 1548 l 257
 172 1548 l 257
250 1548 m 257
 250 1346 l 257
 1856 1346 l 257
 1856 1548 l 257
 250 1548 l 257
1676 1548 m 257
 1676 881 l 257
 1876 881 l 257
 1876 1548 l 257
 1676 1548 l 257
234 1068 m 257
 234 868 l 257
 1872 868 l 257
 1872 1068 l 257
 234 1068 l 257
EndSplineSet
EndChar

StartChar: Phi
Encoding: 182 934 182
GlifName: P_hi
Width: 2048
VWidth: 0
GlyphClass: 2
Flags: W
LayerCount: 2
Fore
SplineSet
936 1541 m 257
 936 13 l 257
 1135 13 l 257
 1135 1541 l 257
 936 1541 l 257
110 1420 m 257
 110 118 l 257
 311 118 l 257
 311 1420 l 257
 110 1420 l 257
1731 1420 m 257
 1731 118 l 257
 1934 118 l 257
 1934 1420 l 257
 1731 1420 l 257
174 1420 m 257
 174 1220 l 257
 1841 1220 l 257
 1841 1420 l 257
 174 1420 l 257
150 322 m 257
 150 118 l 257
 1847 118 l 257
 1847 322 l 257
 150 322 l 257
EndSplineSet
EndChar

StartChar: uni01A4
Encoding: 183 420 183
GlifName: P_hook
Width: 2048
VWidth: 0
GlyphClass: 2
Flags: W
AnchorPoint: "base" 1166 -82 basechar 0
AnchorPoint: "top" 1162 1648 basechar 0
LayerCount: 2
Fore
SplineSet
313 1548 m 257
 313 9 l 257
 503 9 l 257
 503 1548 l 257
 313 1548 l 257
391 1548 m 257
 391 1346 l 257
 1997 1346 l 257
 1997 1548 l 257
 391 1548 l 257
1817 1548 m 257
 1817 881 l 257
 2017 881 l 257
 2017 1548 l 257
 1817 1548 l 257
375 1068 m 257
 375 868 l 257
 2013 868 l 257
 2013 1068 l 257
 375 1068 l 257
59.4384 1231.72 m 257
 271.3 1318.64 l 257
 177.166 1548.08 l 257
 -34.6962 1461.16 l 257
 59.4384 1231.72 l 257
163.553 1365.23 m 257
 421.367 1358.59 l 257
 431.397 1547.54 l 257
 177.166 1548.08 l 257
 163.553 1365.23 l 257
EndSplineSet
EndChar

StartChar: Pi
Encoding: 184 928 184
GlifName: P_i
Width: 2048
VWidth: 0
GlyphClass: 2
Flags: W
LayerCount: 2
Fore
SplineSet
110 1537 m 257
 110 0 l 257
 311 0 l 257
 311 1537 l 257
 110 1537 l 257
1731 1537 m 257
 1731 0 l 257
 1934 0 l 257
 1934 1537 l 257
 1731 1537 l 257
174 1537 m 257
 174 1337 l 257
 1841 1337 l 257
 1841 1537 l 257
 174 1537 l 257
EndSplineSet
EndChar

StartChar: Psi
Encoding: 185 936 185
GlifName: P_si
Width: 2048
VWidth: 0
GlyphClass: 2
Flags: W
LayerCount: 2
Fore
SplineSet
923 1266 m 257
 923 0 l 257
 1125 0 l 257
 1125 1266 l 257
 923 1266 l 257
160 1548 m 257
 160 806 l 257
 360 806 l 257
 360 1548 l 257
 160 1548 l 257
1689 1548 m 257
 1689 806 l 257
 1888 806 l 257
 1888 1548 l 257
 1689 1548 l 257
228 970 m 257
 228 806 l 257
 1798 806 l 257
 1798 970 l 257
 228 970 l 257
EndSplineSet
EndChar

StartChar: Q
Encoding: 187 81 187
GlifName: Q_
Width: 2048
VWidth: 0
GlyphClass: 2
Flags: W
AnchorPoint: "base" 1025 -101 basechar 0
AnchorPoint: "top" 1021 1629 basechar 0
LayerCount: 2
Fore
SplineSet
149 1537 m 257
 149 5 l 257
 348 5 l 257
 348 1537 l 257
 149 1537 l 257
1698 1537 m 257
 1698 0 l 257
 1899 0 l 257
 1899 1537 l 257
 1698 1537 l 257
213 1537 m 257
 213 1337 l 257
 1806 1337 l 257
 1806 1537 l 257
 213 1537 l 257
189 205 m 257
 189 0 l 257
 1812 0 l 257
 1812 205 l 257
 189 205 l 257
1247 21 m 257
 1433 -285 l 257
 1624 -169 l 257
 1438 137 l 257
 1247 21 l 257
EndSplineSet
EndChar

StartChar: R
Encoding: 188 82 188
GlifName: R_
Width: 2048
VWidth: 0
GlyphClass: 2
Flags: W
AnchorPoint: "base" 1037 -69 basechar 0
AnchorPoint: "top" 1007 1601 basechar 0
LayerCount: 2
Fore
SplineSet
102 1537 m 257
 102 0 l 257
 303 0 l 257
 303 1537 l 257
 102 1537 l 257
181 1537 m 257
 181 1335 l 257
 1837 1335 l 257
 1837 1537 l 257
 181 1537 l 257
1664 1537 m 257
 1664 872 l 257
 1864 872 l 257
 1864 1537 l 257
 1664 1537 l 257
165 1079 m 257
 165 868 l 257
 1852 868 l 257
 1852 1079 l 257
 165 1079 l 257
305 892 m 257
 1706 0 l 257
 1946 0 l 257
 504 892 l 257
 305 892 l 257
EndSplineSet
EndChar

StartChar: S
Encoding: 196 83 196
GlifName: S_
Width: 2048
VWidth: 0
GlyphClass: 2
Flags: W
AnchorPoint: "top" 1016 1644 basechar 0
AnchorPoint: "base" 1020 -67 basechar 0
LayerCount: 2
Fore
SplineSet
138 1537 m 257
 138 1336 l 257
 1736 1336 l 257
 1736 1537 l 257
 138 1537 l 257
138 1542 m 257
 138 1028 l 257
 340 1028 l 257
 340 1542 l 257
 138 1542 l 257
166 199 m 257
 166 0 l 257
 1874 0 l 257
 1874 199 l 257
 166 199 l 257
1709 0 m 257
 1910 0 l 257
 1910 355 l 257
 1709 355 l 257
 1709 0 l 257
138 1028 m 257
 1709 355 l 257
 1910 355 l 257
 340 1028 l 257
 138 1028 l 257
EndSplineSet
EndChar

StartChar: uniA78B
Encoding: 198 42891 198
GlifName: S_altillo
Width: 2048
VWidth: 0
GlyphClass: 2
Flags: W
LayerCount: 2
Fore
SplineSet
948 1458 m 257
 1032 454 l 257
 1138 449 l 257
 1222 1458 l 257
 948 1458 l 257
EndSplineSet
EndChar

StartChar: uni0428
Encoding: 202 1064 202
GlifName: S_ha-cy
Width: 2048
VWidth: 0
Flags: W
LayerCount: 2
Fore
SplineSet
134 1548 m 257
 134 3 l 257
 334 3 l 257
 334 1548 l 257
 134 1548 l 257
1729 1553 m 257
 1729 0 l 257
 1929 0 l 257
 1929 1553 l 257
 1729 1553 l 257
143 200 m 257
 143 0 l 257
 1929 0 l 257
 1929 200 l 257
 143 200 l 257
931 1557 m 257
 931 4 l 257
 1131 4 l 257
 1131 1557 l 257
 931 1557 l 257
EndSplineSet
EndChar

StartChar: uni0429
Encoding: 203 1065 203
GlifName: S_hcha-cy
Width: 2048
VWidth: 0
Flags: W
LayerCount: 2
Fore
SplineSet
37 1548 m 257
 37 3 l 257
 237 3 l 257
 237 1548 l 257
 37 1548 l 257
1632 1553 m 257
 1632 0 l 257
 1832 0 l 257
 1832 1553 l 257
 1632 1553 l 257
46 200 m 257
 46 0 l 257
 1832 0 l 257
 1832 200 l 257
 46 200 l 257
1828 198 m 257
 1828 -401 l 257
 2027 -401 l 257
 2027 198 l 257
 1828 198 l 257
834 1557 m 257
 834 4 l 257
 1034 4 l 257
 1034 1557 l 257
 834 1557 l 257
EndSplineSet
EndChar

StartChar: Sigma
Encoding: 204 931 204
GlifName: S_igma
Width: 2048
VWidth: 0
GlyphClass: 2
Flags: W
LayerCount: 2
Fore
SplineSet
1216 928 m 257
 110 210 l 257
 110 -14 l 257
 1216 725 l 257
 1216 928 l 257
1218 921 m 257
 128 1539 l 257
 129 1338 l 257
 1218 722 l 257
 1218 921 l 257
1874 1337 m 257
 1874 1537 l 257
 128 1537 l 257
 128 1337 l 257
 1874 1337 l 257
1812 0 m 257
 1812 206 l 257
 125 206 l 257
 125 0 l 257
 1812 0 l 257
EndSplineSet
EndChar

StartChar: uni042C
Encoding: 205 1068 205
GlifName: S_oftsign-cy
Width: 2048
VWidth: 0
Flags: W
AnchorPoint: "base" 1014 -78 basechar 0
AnchorPoint: "top" 258 1604 basechar 0
LayerCount: 2
Fore
SplineSet
55 1537 m 257
 55 0 l 257
 254 0 l 257
 254 1537 l 257
 55 1537 l 257
152 808 m 257
 152 609 l 257
 1808 609 l 257
 1808 808 l 257
 152 808 l 257
1748 808 m 257
 1748 0 l 257
 1947 0 l 257
 1947 808 l 257
 1748 808 l 257
180 207 m 257
 180 0 l 257
 1868 0 l 257
 1868 207 l 257
 180 207 l 257
EndSplineSet
EndChar

StartChar: T
Encoding: 206 84 206
GlifName: T_
Width: 2048
VWidth: 0
GlyphClass: 2
Flags: W
AnchorPoint: "top" 1027 1613 basechar 0
AnchorPoint: "base" 1016 -92 basechar 0
LayerCount: 2
Fore
SplineSet
125 1548 m 257
 125 1348 l 257
 1923 1348 l 257
 1923 1548 l 257
 125 1548 l 257
924 1436 m 257
 924 6 l 257
 1124 6 l 257
 1124 1436 l 257
 924 1436 l 257
EndSplineSet
EndChar

StartChar: Theta
Encoding: 211 920 211
GlifName: T_heta
Width: 2048
VWidth: 0
GlyphClass: 2
Flags: W
LayerCount: 2
Fore
SplineSet
382 953 m 257
 382 753 l 257
 1694 753 l 257
 1694 953 l 257
 382 953 l 257
110 1537 m 257
 110 0 l 257
 311 0 l 257
 311 1537 l 257
 110 1537 l 257
1731 1537 m 257
 1731 0 l 257
 1934 0 l 257
 1934 1537 l 257
 1731 1537 l 257
174 1537 m 257
 174 1337 l 257
 1841 1337 l 257
 1841 1537 l 257
 174 1537 l 257
150 204 m 257
 150 0 l 257
 1847 0 l 257
 1847 204 l 257
 150 204 l 257
EndSplineSet
EndChar

StartChar: uni01AC
Encoding: 212 428 212
GlifName: T_hook
Width: 2048
VWidth: 0
GlyphClass: 2
Flags: W
AnchorPoint: "top" 1135 1613 basechar 0
AnchorPoint: "base" 1124 -92 basechar 0
LayerCount: 2
Fore
SplineSet
233 1548 m 257
 233 1348 l 257
 2031 1348 l 257
 2031 1548 l 257
 233 1548 l 257
1032 1436 m 257
 1032 6 l 257
 1232 6 l 257
 1232 1436 l 257
 1032 1436 l 257
555.277 1550.55 m 257
 -3.70895 1546.56 l 257
 -2.281 1346.57 l 257
 554.705 1350.54 l 257
 555.277 1550.55 l 257
-3.70895 1546.56 m 257
 -1.09581 1180.57 l 257
 198.899 1182 l 257
 196.286 1547.99 l 257
 -3.70895 1546.56 l 257
EndSplineSet
EndChar

StartChar: Thorn
Encoding: 213 222 213
GlifName: T_horn
Width: 2048
VWidth: 0
GlyphClass: 2
Flags: W
AnchorPoint: "base" 442 -42 basechar 0
AnchorPoint: "top" 379 1684 basechar 0
LayerCount: 2
Fore
SplineSet
112 1542 m 257
 112 9 l 257
 302 9 l 257
 302 1542 l 257
 112 1542 l 257
191 1234 m 257
 191 1035 l 257
 1871 1035 l 257
 1871 1234 l 257
 191 1234 l 257
1691 1233 m 257
 1691 569 l 257
 1891 569 l 257
 1891 1233 l 257
 1691 1233 l 257
179 684 m 257
 179 484 l 257
 1890 484 l 257
 1890 684 l 257
 179 684 l 257
EndSplineSet
EndChar

StartChar: uni01AE
Encoding: 215 430 215
GlifName: T_retroflexhook
Width: 2048
VWidth: 0
GlyphClass: 2
Flags: W
AnchorPoint: "top" 1027 1613 basechar 0
AnchorPoint: "base" 1016 -92 basechar 0
LayerCount: 2
Fore
SplineSet
125 1548 m 257
 125 1348 l 257
 1923 1348 l 257
 1923 1548 l 257
 125 1548 l 257
924 1436 m 257
 924 6 l 257
 1124 6 l 257
 1124 1436 l 257
 924 1436 l 257
928 227 m 257
 928 -332 l 257
 1128 -332 l 257
 1128 225 l 257
 928 227 l 257
928 -332 m 257
 1294 -332 l 257
 1294 -132 l 257
 928 -132 l 257
 928 -332 l 257
EndSplineSet
EndChar

StartChar: uni0426
Encoding: 216 1062 216
GlifName: T_se-cy
Width: 2048
VWidth: 0
Flags: W
LayerCount: 2
Fore
SplineSet
37 1548 m 257
 37 3 l 257
 237 3 l 257
 237 1548 l 257
 37 1548 l 257
1632 1553 m 257
 1632 0 l 257
 1832 0 l 257
 1832 1553 l 257
 1632 1553 l 257
46 200 m 257
 46 0 l 257
 1832 0 l 257
 1832 200 l 257
 46 200 l 257
1828 198 m 257
 1828 -401 l 257
 2027 -401 l 257
 2027 198 l 257
 1828 198 l 257
EndSplineSet
EndChar

StartChar: uni040B
Encoding: 217 1035 217
GlifName: T_she-cy
Width: 2048
VWidth: 0
Flags: W
LayerCount: 2
Fore
SplineSet
48 1548 m 257
 48 1348 l 257
 1604 1348 l 257
 1604 1548 l 257
 48 1548 l 257
745 1544 m 257
 745 -1 l 257
 945 -1 l 257
 945 1544 l 257
 745 1544 l 257
828 994 m 257
 828 794 l 257
 1953 794 l 257
 1953 994 l 257
 828 994 l 257
1753 989 m 257
 1753 0 l 257
 1953 0 l 257
 1953 989 l 257
 1753 989 l 257
EndSplineSet
EndChar

StartChar: U
Encoding: 218 85 218
GlifName: U_
Width: 2048
VWidth: 0
GlyphClass: 2
Flags: W
AnchorPoint: "top" 1013 1626 basechar 0
AnchorPoint: "base" 1041 -110 basechar 0
LayerCount: 2
Fore
SplineSet
156 1537 m 257
 156 0 l 257
 356 0 l 257
 356 1537 l 257
 156 1537 l 257
1692 1537 m 257
 1692 0 l 257
 1890 0 l 257
 1890 1537 l 257
 1692 1537 l 257
204 200 m 257
 204 0 l 257
 1848 0 l 257
 1848 200 l 257
 204 200 l 257
EndSplineSet
EndChar

StartChar: uni0423
Encoding: 219 1059 219
GlifName: U_-cy
Width: 2048
VWidth: 0
Flags: W
AnchorPoint: "top" 969 1127 basechar 0
AnchorPoint: "base" 1039 -512 basechar 0
LayerCount: 2
Fore
SplineSet
1690 1427 m 257
 1690 -2 l 257
 1890 -2 l 257
 1890 1427 l 257
 1690 1427 l 257
158 193 m 257
 158 -2 l 257
 1874 -2 l 257
 1874 193 l 257
 158 193 l 257
158 1427 m 257
 158 668 l 257
 358 668 l 257
 358 1427 l 257
 158 1427 l 257
158 868 m 257
 158 668 l 257
 1776 668 l 257
 1776 868 l 257
 158 868 l 257
EndSplineSet
EndChar

StartChar: uni01B1
Encoding: 231 433 231
GlifName: U_psilon_latin
Width: 2048
VWidth: 0
GlyphClass: 2
Flags: W
AnchorPoint: "top" 1085 1626 basechar 0
LayerCount: 2
Fore
SplineSet
812 1455 m 257
 255 0 l 257
 456 0 l 257
 1013 1455 l 257
 812 1455 l 257
1111 1455 m 257
 1601 0 l 257
 1801 0 l 257
 1311 1455 l 257
 1111 1455 l 257
447 196 m 257
 447 0 l 257
 1599 0 l 257
 1599 203 l 257
 447 196 l 257
1220 1455 m 257
 1224 1255 l 257
 2034 1255 l 257
 2030 1455 l 257
 1220 1455 l 257
89 1455 m 257
 88 1255 l 257
 845 1255 l 257
 846 1455 l 257
 89 1455 l 257
EndSplineSet
EndChar

StartChar: V
Encoding: 238 86 238
GlifName: V_
Width: 2048
VWidth: 0
GlyphClass: 2
Flags: W
AnchorPoint: "top" 1020 1630 basechar 0
AnchorPoint: "base" 1041 -60 basechar 0
LayerCount: 2
Fore
SplineSet
118 1548 m 257
 890 0 l 257
 1112 0 l 257
 320 1548 l 257
 118 1548 l 257
1728 1548 m 257
 1016 0 l 257
 1238 0 l 257
 1930 1548 l 257
 1728 1548 l 257
EndSplineSet
EndChar

StartChar: uni01B2
Encoding: 239 434 239
GlifName: V_hook
Width: 2048
VWidth: 0
GlyphClass: 2
Flags: W
AnchorPoint: "top" 1013 1137 basechar 0
AnchorPoint: "base" 1025 -90 basechar 0
LayerCount: 2
Fore
SplineSet
116 1623 m 257
 116 0 l 257
 316 0 l 257
 316 1623 l 257
 116 1623 l 257
1732 1623 m 257
 1732 0 l 257
 1934 0 l 257
 1934 1623 l 257
 1732 1623 l 257
1499 1623 m 257
 1499 1422 l 257
 1826 1422 l 257
 1826 1623 l 257
 1499 1623 l 257
244 200 m 257
 244 0 l 257
 1816 0 l 257
 1816 200 l 257
 244 200 l 257
EndSplineSet
EndChar

StartChar: W
Encoding: 241 87 241
GlifName: W_
Width: 2048
VWidth: 0
GlyphClass: 2
Flags: W
AnchorPoint: "base" 1021 -92 basechar 0
AnchorPoint: "top" 1003 1618 basechar 0
LayerCount: 2
Fore
SplineSet
104 1548 m 257
 104 0 l 257
 304 0 l 257
 304 1548 l 257
 104 1548 l 257
1744 1548 m 257
 1744 12 l 257
 1946 12 l 257
 1946 1548 l 257
 1744 1548 l 257
926 1028 m 257
 926 0 l 257
 1128 0 l 257
 1128 1028 l 257
 926 1028 l 257
102 201 m 257
 102 0 l 257
 1946 0 l 257
 1946 201 l 257
 102 201 l 257
EndSplineSet
EndChar

StartChar: X
Encoding: 247 88 247
GlifName: X_
Width: 2048
VWidth: 0
GlyphClass: 2
Flags: W
AnchorPoint: "top" 1031 1630 basechar 0
AnchorPoint: "base" 1019 -38 basechar 0
LayerCount: 2
Fore
SplineSet
82 1548 m 257
 1766 0 l 257
 1966 0 l 257
 281 1548 l 257
 82 1548 l 257
85 6 m 257
 286 6 l 257
 1958 1548 l 257
 1759 1548 l 257
 85 6 l 257
EndSplineSet
EndChar

StartChar: Xi
Encoding: 248 926 248
GlifName: X_i
Width: 2048
VWidth: 0
GlyphClass: 2
Flags: W
LayerCount: 2
Fore
SplineSet
151 948 m 257
 151 736 l 257
 1895 736 l 257
 1895 948 l 257
 151 948 l 257
97 1548 m 257
 97 1336 l 257
 1955 1336 l 257
 1955 1548 l 257
 97 1548 l 257
98 212 m 257
 98 0 l 257
 1950 0 l 257
 1950 212 l 257
 98 212 l 257
EndSplineSet
EndChar

StartChar: Y
Encoding: 249 89 249
GlifName: Y_
Width: 2048
VWidth: 0
GlyphClass: 2
Flags: W
AnchorPoint: "top" 988 1642 basechar 0
AnchorPoint: "base" 1004 -82 basechar 0
LayerCount: 2
Fore
SplineSet
914 897 m 257
 914 0 l 257
 1116 0 l 257
 1116 897 l 257
 914 897 l 257
110 1548 m 257
 110 859 l 257
 310 859 l 257
 310 1548 l 257
 110 1548 l 257
1738 1548 m 257
 1738 859 l 257
 1938 859 l 257
 1938 1548 l 257
 1738 1548 l 257
178 1023 m 257
 178 859 l 257
 1848 859 l 257
 1848 1023 l 257
 178 1023 l 257
EndSplineSet
EndChar

StartChar: uni042F
Encoding: 250 1071 250
GlifName: Y_a-cy
Width: 2048
VWidth: 0
Flags: W
AnchorPoint: "base" 1037 -69 basechar 0
AnchorPoint: "top" 1007 1601 basechar 0
LayerCount: 2
Fore
SplineSet
1946 1537 m 257
 1946 0 l 257
 1745 0 l 257
 1745 1537 l 257
 1946 1537 l 257
1867 1537 m 257
 1867 1335 l 257
 211 1335 l 257
 211 1537 l 257
 1867 1537 l 257
384 1537 m 257
 384 872 l 257
 184 872 l 257
 184 1537 l 257
 384 1537 l 257
1883 1079 m 257
 1883 868 l 257
 196 868 l 257
 196 1079 l 257
 1883 1079 l 257
1743 892 m 257
 342 0 l 257
 102 0 l 257
 1544 892 l 257
 1743 892 l 257
EndSplineSet
EndChar

StartChar: uni0462
Encoding: 252 1122 252
GlifName: Y_at-cy
Width: 2048
VWidth: 0
Flags: W
AnchorPoint: "base" 1014 -78 basechar 0
AnchorPoint: "top" 258 1604 basechar 0
LayerCount: 2
Fore
SplineSet
855 1547 m 257
 855 0 l 257
 1054 0 l 257
 1054 1547 l 257
 855 1547 l 257
952 808 m 257
 952 609 l 257
 1808 609 l 257
 1808 808 l 257
 952 808 l 257
1748 808 m 257
 1748 0 l 257
 1947 0 l 257
 1947 808 l 257
 1748 808 l 257
980 207 m 257
 980 0 l 257
 1868 0 l 257
 1868 207 l 257
 980 207 l 257
60 1283 m 257
 60 1084 l 257
 1415 1084 l 257
 1415 1283 l 257
 60 1283 l 257
EndSplineSet
EndChar

StartChar: uni042B
Encoding: 255 1067 255
GlifName: Y_eru-cy
Width: 2048
VWidth: 0
Flags: W
AnchorPoint: "base" 1014 -78 basechar 0
AnchorPoint: "top" 258 1604 basechar 0
LayerCount: 2
Fore
SplineSet
55 1537 m 257
 55 0 l 257
 254 0 l 257
 254 1537 l 257
 55 1537 l 257
152 808 m 257
 152 609 l 257
 1384 609 l 257
 1384 808 l 257
 152 808 l 257
1324 808 m 257
 1324 0 l 257
 1523 0 l 257
 1523 808 l 257
 1324 808 l 257
180 207 m 257
 180 0 l 257
 1444 0 l 257
 1444 207 l 257
 180 207 l 257
1733 1542 m 257
 1733 5 l 257
 1932 5 l 257
 1932 1542 l 257
 1733 1542 l 257
EndSplineSet
EndChar

StartChar: uni042E
Encoding: 258 1070 258
GlifName: Y_u-cy
Width: 2048
VWidth: 0
Flags: W
AnchorPoint: "top" 1029 1661 basechar 0
AnchorPoint: "base" 1029 -88 basechar 0
LayerCount: 2
Fore
SplineSet
999 1537 m 257
 999 0 l 257
 1200 0 l 257
 1200 1537 l 257
 999 1537 l 257
1696 1537 m 257
 1696 0 l 257
 1899 0 l 257
 1899 1537 l 257
 1696 1537 l 257
1063 1537 m 257
 1063 1337 l 257
 1806 1337 l 257
 1806 1537 l 257
 1063 1537 l 257
1039 204 m 257
 1039 0 l 257
 1812 0 l 257
 1812 204 l 257
 1039 204 l 257
164 1516 m 257
 164 -21 l 257
 365 -21 l 257
 365 1516 l 257
 164 1516 l 257
228 924 m 257
 228 724 l 257
 1171 724 l 257
 1171 924 l 257
 228 924 l 257
EndSplineSet
EndChar

StartChar: Z
Encoding: 259 90 259
GlifName: Z_
Width: 2048
VWidth: 0
GlyphClass: 2
Flags: W
AnchorPoint: "top" 1016 1646 basechar 0
AnchorPoint: "base" 1021 -55 basechar 0
LayerCount: 2
Fore
SplineSet
107 1548 m 257
 107 1336 l 257
 1941 1336 l 257
 1941 1548 l 257
 107 1548 l 257
108 212 m 257
 108 0 l 257
 1936 0 l 257
 1936 212 l 257
 108 212 l 257
1680 1335 m 257
 108 211 l 257
 315 211 l 257
 1925 1335 l 257
 1680 1335 l 257
EndSplineSet
EndChar

StartChar: uni0417
Encoding: 263 1047 263
GlifName: Z_e-cy
Width: 2048
VWidth: 0
Flags: W
LayerCount: 2
Fore
SplineSet
124 1547 m 257
 124 1347 l 257
 1974 1347 l 257
 1974 1547 l 257
 124 1547 l 257
124 1547 m 257
 124 1211 l 257
 324 1211 l 257
 324 1547 l 257
 124 1547 l 257
1775 1535 m 257
 1775 868 l 257
 1975 868 l 257
 1975 1535 l 257
 1775 1535 l 257
1775 710 m 257
 1775 7 l 257
 1975 7 l 257
 1975 710 l 257
 1775 710 l 257
128 200 m 257
 128 0 l 257
 1971 0 l 257
 1971 200 l 257
 128 200 l 257
124 395 m 257
 124 0 l 257
 324 0 l 257
 324 395 l 257
 124 395 l 257
525 892 m 257
 525 692 l 257
 1822 692 l 257
 1822 892 l 257
 525 892 l 257
EndSplineSet
EndChar

StartChar: uni0416
Encoding: 265 1046 265
GlifName: Z_he-cy
Width: 2048
VWidth: 0
Flags: W
AnchorPoint: "base" 1030 -39 basechar 0
AnchorPoint: "top" 236 1629 basechar 0
LayerCount: 2
Fore
SplineSet
920 1537 m 257
 920 5 l 257
 1121 5 l 257
 1121 1537 l 257
 920 1537 l 257
965 999 m 257
 1084 835 l 257
 1932 1529 l 257
 1665 1529 l 257
 965 999 l 257
1095 798 m 257
 958 643 l 257
 1704 0 l 257
 1985 0 l 257
 1095 798 l 257
1037 999 m 257
 364 1529 l 257
 97 1529 l 257
 918 835 l 257
 1037 999 l 257
941 798 m 257
 44 0 l 257
 325 0 l 257
 1078 643 l 257
 941 798 l 257
EndSplineSet
EndChar

StartChar: a
Encoding: 266 97 266
GlifName: a
Width: 2048
VWidth: 0
GlyphClass: 2
Flags: W
AnchorPoint: "top" 1028 1103 basechar 0
AnchorPoint: "base" 1027 -82 basechar 0
LayerCount: 2
Fore
SplineSet
178 1023 m 257
 178 824 l 257
 1784 824 l 257
 1784 1023 l 257
 178 1023 l 257
1671 1023 m 257
 1671 0 l 257
 1865 0 l 257
 1865 1023 l 257
 1671 1023 l 257
182 599 m 257
 182 400 l 257
 1806 400 l 257
 1806 599 l 257
 182 599 l 257
182 575 m 257
 182 0 l 257
 383 0 l 257
 383 575 l 257
 182 575 l 257
180 201 m 257
 180 0 l 257
 1870 0 l 257
 1870 201 l 257
 180 201 l 257
EndSplineSet
EndChar

StartChar: acute
Encoding: 271 180 271
GlifName: acute
Width: 2048
VWidth: 0
GlyphClass: 2
Flags: W
LayerCount: 2
Fore
SplineSet
1044 1158 m 257
 914 904 l 257
 1002 858 l 257
 1134 1113 l 257
 1044 1158 l 257
EndSplineSet
EndChar

StartChar: acutecomb
Encoding: 272 769 272
GlifName: acutecomb
Width: 0
VWidth: 0
GlyphClass: 4
Flags: W
AnchorPoint: "top" -3 794 mark 0
LayerCount: 2
Fore
SplineSet
33 1160 m 257
 -97 906 l 257
 70 837 l 257
 202 1092 l 257
 33 1160 l 257
EndSplineSet
EndChar

StartChar: ae
Encoding: 276 230 276
GlifName: ae
Width: 2048
VWidth: 0
GlyphClass: 2
Flags: W
AnchorPoint: "base" 1069 -103 basechar 0
AnchorPoint: "top" 1044 1151 basechar 0
LayerCount: 2
Fore
SplineSet
48 1023 m 257
 48 824 l 257
 1891 824 l 257
 1891 1023 l 257
 48 1023 l 257
961 1023 m 257
 961 0 l 257
 1155 0 l 257
 1155 1023 l 257
 961 1023 l 257
71 599 m 257
 71 400 l 257
 1892 400 l 257
 1892 599 l 257
 71 599 l 257
71 575 m 257
 71 0 l 257
 272 0 l 257
 272 575 l 257
 71 575 l 257
69 201 m 257
 69 0 l 257
 2013 0 l 257
 2013 201 l 257
 69 201 l 257
1797 1023 m 257
 1797 400 l 257
 1992 400 l 257
 1992 1023 l 257
 1797 1023 l 257
EndSplineSet
EndChar

StartChar: alpha
Encoding: 279 945 279
GlifName: alpha
Width: 2048
VWidth: 0
GlyphClass: 2
Flags: W
LayerCount: 2
Fore
SplineSet
166 1023 m 257
 166 826 l 257
 1101 826 l 257
 1101 1023 l 257
 166 1023 l 257
166 984 m 257
 166 0 l 257
 368 0 l 257
 368 984 l 257
 166 984 l 257
272 201 m 257
 272 0 l 257
 1122 5 l 257
 1122 206 l 257
 272 201 l 257
1842 -20 m 257
 2022 65 l 257
 1102 1024 l 257
 922 939 l 257
 1842 -20 l 257
1125 3 m 257
 2022 939 l 257
 1842 1024 l 257
 945 88 l 257
 1125 3 l 257
EndSplineSet
EndChar

StartChar: uni0251
Encoding: 280 593 280
GlifName: alpha_latin
Width: 2048
VWidth: 0
GlyphClass: 2
Flags: W
AnchorPoint: "top" 1013 1137 basechar 0
AnchorPoint: "base" 1025 -90 basechar 0
LayerCount: 2
Fore
SplineSet
116 1023 m 257
 116 0 l 257
 316 0 l 257
 316 1023 l 257
 116 1023 l 257
1732 1116 m 257
 1732 -127 l 257
 1934 -127 l 257
 1934 1116 l 257
 1732 1116 l 257
240 1023 m 257
 240 822 l 257
 1826 822 l 257
 1826 1023 l 257
 240 1023 l 257
244 200 m 257
 244 0 l 257
 1816 0 l 257
 1816 200 l 257
 244 200 l 257
EndSplineSet
EndChar

StartChar: ampersand
Encoding: 287 38 287
GlifName: ampersand
Width: 2048
VWidth: 0
GlyphClass: 2
Flags: W
LayerCount: 2
Fore
SplineSet
772 1537 m 257
 1631 12 l 257
 1777 56 l 257
 934 1537 l 257
 772 1537 l 257
1727 1401 m 257
 1727 1537 l 257
 850 1537 l 257
 850 1401 l 257
 1727 1401 l 257
1567 1446 m 257
 1567 917 l 257
 1727 917 l 257
 1727 1446 l 257
 1567 1446 l 257
357 1045 m 257
 357 843 l 257
 1727 843 l 257
 1727 1045 l 257
 357 1045 l 257
357 1045 m 257
 357 24 l 257
 567 24 l 257
 567 1045 l 257
 357 1045 l 257
357 190 m 257
 357 6 l 257
 1839 6 l 257
 1839 190 l 257
 357 190 l 257
EndSplineSet
EndChar

StartChar: approxequal
Encoding: 290 8776 290
GlifName: approxequal
Width: 2048
VWidth: 0
GlyphClass: 2
Flags: W
LayerCount: 2
Fore
SplineSet
731 559 m 257
 731 345 l 257
 1431 284 l 257
 1431 498 l 257
 731 559 l 257
255 501 m 257
 285 288 l 257
 731 345 l 257
 731 559 l 257
 255 501 l 257
1431 498 m 257
 1431 284 l 257
 1793 425 l 257
 1745 636 l 257
 1431 498 l 257
731 952 m 257
 731 716 l 257
 1431 655 l 257
 1431 891 l 257
 731 952 l 257
255 894 m 257
 285 659 l 257
 731 716 l 257
 731 952 l 257
 255 894 l 257
1431 891 m 257
 1431 655 l 257
 1793 796 l 257
 1745 1029 l 257
 1431 891 l 257
EndSplineSet
EndChar

StartChar: asciicircum
Encoding: 294 94 294
GlifName: asciicircum
Width: 2048
VWidth: 0
GlyphClass: 2
Flags: W
LayerCount: 2
Fore
SplineSet
1100 1023 m 257
 950 1023 l 257
 686 407 l 257
 836 345 l 257
 1100 1023 l 257
956 904 m 257
 1212 343 l 257
 1362 400 l 257
 1100 1023 l 257
 956 904 l 257
EndSplineSet
EndChar

StartChar: asciitilde
Encoding: 295 126 295
GlifName: asciitilde
Width: 2048
VWidth: 0
GlyphClass: 2
Flags: W
LayerCount: 2
Fore
SplineSet
878 815 m 257
 878 670 l 257
 1228 609 l 257
 1228 754 l 257
 878 815 l 257
640 757 m 257
 654 613 l 257
 878 670 l 257
 878 815 l 257
 640 757 l 257
1228 754 m 257
 1228 609 l 257
 1408 750 l 257
 1384 892 l 257
 1228 754 l 257
EndSplineSet
EndChar

StartChar: asterisk
Encoding: 296 42 296
GlifName: asterisk
Width: 2048
VWidth: 0
GlyphClass: 2
Flags: W
LayerCount: 2
Fore
SplineSet
934 1297 m 257
 934 300 l 257
 1164 300 l 257
 1164 1297 l 257
 934 1297 l 257
577 1099 m 257
 1305 360 l 257
 1464 504 l 257
 732 1241 l 257
 577 1099 l 257
1329 1232 m 257
 606 525 l 257
 748 372 l 257
 1471 1079 l 257
 1329 1232 l 257
EndSplineSet
EndChar

StartChar: at
Encoding: 297 64 297
GlifName: at
Width: 2048
VWidth: 0
GlyphClass: 2
Flags: W
LayerCount: 2
Fore
SplineSet
613 1023 m 257
 613 879 l 257
 1432 879 l 257
 1432 1023 l 257
 613 1023 l 257
1149 592 m 257
 1149 0 l 257
 1302 0 l 257
 1302 592 l 257
 1149 592 l 257
816 600 m 257
 816 444 l 257
 1241 444 l 257
 1241 600 l 257
 816 600 l 257
813 589 m 257
 813 12 l 257
 987 12 l 257
 987 589 l 257
 813 589 l 257
811 188 m 257
 811 0 l 257
 1305 0 l 257
 1305 188 l 257
 811 188 l 257
525 1023 m 257
 525 -223 l 257
 701 -223 l 257
 701 1023 l 257
 525 1023 l 257
523 -86 m 257
 523 -258 l 257
 1471 -258 l 257
 1471 -86 l 257
 523 -86 l 257
1374 1011 m 257
 1374 0 l 257
 1525 0 l 257
 1525 1011 l 257
 1374 1011 l 257
1246 175 m 257
 1246 0 l 257
 1455 0 l 257
 1455 175 l 257
 1246 175 l 257
EndSplineSet
EndChar

StartChar: uni0250
Encoding: 299 592 299
GlifName: aturned
Width: 2048
VWidth: 0
GlyphClass: 2
Flags: W
AnchorPoint: "top" 1041 -73 basechar 0
AnchorPoint: "base" 1042 1112 basechar 0
LayerCount: 2
Fore
SplineSet
1891 7 m 257
 1891 206 l 257
 285 206 l 257
 285 7 l 257
 1891 7 l 257
398 7 m 257
 398 1123 l 257
 204 1123 l 257
 204 7 l 257
 398 7 l 257
1887 431 m 257
 1887 630 l 257
 263 630 l 257
 263 431 l 257
 1887 431 l 257
1887 455 m 257
 1887 1030 l 257
 1686 1030 l 257
 1686 455 l 257
 1887 455 l 257
1889 829 m 257
 1889 1030 l 257
 216 1030 l 257
 216 829 l 257
 1889 829 l 257
EndSplineSet
EndChar

StartChar: b
Encoding: 300 98 300
GlifName: b
Width: 2048
VWidth: 0
GlyphClass: 2
Flags: W
AnchorPoint: "base" 1014 -78 basechar 0
AnchorPoint: "top" 258 1604 basechar 0
LayerCount: 2
Fore
SplineSet
143 1537 m 257
 143 0 l 257
 342 0 l 257
 342 1537 l 257
 143 1537 l 257
240 1033 m 257
 240 834 l 257
 1766 834 l 257
 1766 1033 l 257
 240 1033 l 257
1706 1033 m 257
 1706 0 l 257
 1905 0 l 257
 1905 1033 l 257
 1706 1033 l 257
268 207 m 257
 268 0 l 257
 1826 0 l 257
 1826 207 l 257
 268 207 l 257
EndSplineSet
EndChar

StartChar: backslash
Encoding: 301 92 301
GlifName: backslash
Width: 2048
VWidth: 0
GlyphClass: 2
Flags: W
LayerCount: 2
Fore
SplineSet
615 1441 m 257
 1242 -13 l 257
 1433 65 l 257
 807 1519 l 257
 615 1441 l 257
EndSplineSet
EndChar

StartChar: bar
Encoding: 303 124 303
GlifName: bar
Width: 2048
VWidth: 0
GlyphClass: 2
Flags: W
LayerCount: 2
Fore
SplineSet
922 1435 m 257
 922 -90 l 257
 1126 -90 l 257
 1126 1435 l 257
 922 1435 l 257
EndSplineSet
EndChar

StartChar: uni0431
Encoding: 305 1073 305
GlifName: be-cy
Width: 2048
VWidth: 0
Flags: W
AnchorPoint: "base" 1014 -78 basechar 0
AnchorPoint: "top" 258 1604 basechar 0
LayerCount: 2
Fore
SplineSet
143 1261 m 257
 143 0 l 257
 342 0 l 257
 342 1261 l 257
 143 1261 l 257
240 1033 m 257
 240 834 l 257
 1766 834 l 257
 1766 1033 l 257
 240 1033 l 257
1706 1033 m 257
 1706 0 l 257
 1905 0 l 257
 1905 1033 l 257
 1706 1033 l 257
268 207 m 257
 268 0 l 257
 1826 0 l 257
 1826 207 l 257
 268 207 l 257
142 1325 m 257
 142 1126 l 257
 1941 1362 l 257
 1941 1561 l 257
 142 1325 l 257
EndSplineSet
EndChar

StartChar: beta
Encoding: 306 946 306
GlifName: beta
Width: 2048
VWidth: 0
GlyphClass: 2
Flags: W
LayerCount: 2
Fore
SplineSet
107 1505 m 257
 107 -457 l 257
 307 -457 l 257
 307 1505 l 257
 107 1505 l 257
107 1547 m 257
 107 1347 l 257
 1954 1252 l 257
 1954 1452 l 257
 107 1547 l 257
1754 1453 m 257
 1754 2 l 257
 1954 2 l 257
 1954 1453 l 257
 1754 1453 l 257
107 916 m 257
 107 716 l 257
 1954 716 l 257
 1954 916 l 257
 107 916 l 257
911 202 m 257
 911 2 l 257
 1954 2 l 257
 1954 202 l 257
 911 202 l 257
EndSplineSet
EndChar

StartChar: uniA7B5
Encoding: 307 42933 307
GlifName: beta_latin
Width: 2048
VWidth: 0
GlyphClass: 2
Flags: W
LayerCount: 2
Fore
SplineSet
107 1505 m 257
 107 -457 l 257
 307 -457 l 257
 307 1505 l 257
 107 1505 l 257
107 1547 m 257
 107 1347 l 257
 1954 1252 l 257
 1954 1452 l 257
 107 1547 l 257
1754 1453 m 257
 1754 2 l 257
 1954 2 l 257
 1954 1453 l 257
 1754 1453 l 257
107 916 m 257
 107 716 l 257
 1954 716 l 257
 1954 916 l 257
 107 916 l 257
911 202 m 257
 911 2 l 257
 1954 2 l 257
 1954 202 l 257
 911 202 l 257
EndSplineSet
EndChar

StartChar: H18533
Encoding: 310 9679 310
GlifName: blackC_ircle
Width: 2048
VWidth: 0
GlyphClass: 2
Flags: W
LayerCount: 2
Fore
SplineSet
1103 1186 m 257
 920 1174 l 257
 767 1089 l 257
 673 923 l 257
 687 730 l 257
 754 515 l 257
 978 421 l 257
 1140 443 l 257
 1319 493 l 257
 1386 645 l 257
 1418 780 l 257
 1413 946 l 257
 1323 1089 l 257
 1103 1186 l 257
EndSplineSet
EndChar

StartChar: uni25C6
Encoding: 311 9670 311
GlifName: blackD_iamond
Width: 2048
VWidth: 0
GlyphClass: 2
Flags: W
LayerCount: 2
Fore
SplineSet
603 788 m 257
 1029 361 l 257
 1456 788 l 257
 1030 1214 l 257
 603 788 l 257
EndSplineSet
EndChar

StartChar: H18543
Encoding: 312 9642 312
GlifName: blackS_mallS_quare
Width: 2048
VWidth: 0
GlyphClass: 2
Flags: W
LayerCount: 2
Fore
SplineSet
772 1077 m 257
 772 580 l 257
 1269 580 l 257
 1269 1077 l 257
 772 1077 l 257
EndSplineSet
EndChar

StartChar: filledbox
Encoding: 313 9632 313
GlifName: blackS_quare
Width: 2048
VWidth: 0
GlyphClass: 2
Flags: W
LayerCount: 2
Fore
SplineSet
607 1242 m 257
 607 415 l 257
 1434 415 l 257
 1434 1242 l 257
 607 1242 l 257
EndSplineSet
EndChar

StartChar: braceleft
Encoding: 315 123 315
GlifName: braceleft
Width: 2048
VWidth: 0
GlyphClass: 2
Flags: W
LayerCount: 2
Fore
SplineSet
1024 1548 m 257
 1024 838 l 257
 1170 838 l 257
 1170 1548 l 257
 1024 1548 l 257
1036 424 m 257
 1036 -286 l 257
 1182 -286 l 257
 1182 424 l 257
 1036 424 l 257
735 690 m 257
 735 630 l 257
 1170 838 l 257
 1024 838 l 257
 735 690 l 257
735 690 m 257
 735 630 l 257
 1034 425 l 257
 1183 425 l 257
 735 690 l 257
1025 1603 m 257
 1025 1452 l 257
 1293 1574 l 257
 1297 1603 l 257
 1025 1603 l 257
1037 -140 m 257
 1037 -287 l 257
 1313 -287 l 257
 1313 -274 l 257
 1037 -140 l 257
EndSplineSet
EndChar

StartChar: braceright
Encoding: 316 125 316
GlifName: braceright
Width: 2048
VWidth: 0
GlyphClass: 2
Flags: W
LayerCount: 2
Fore
SplineSet
1040 1548 m 257
 878 1548 l 257
 878 838 l 257
 1036 838 l 257
 1040 1548 l 257
1026 424 m 257
 866 424 l 257
 866 -286 l 257
 1026 -286 l 257
 1026 424 l 257
1313 690 m 257
 1035 838 l 257
 874 838 l 257
 1313 630 l 257
 1313 690 l 257
1313 690 m 257
 866 424 l 257
 1026 424 l 257
 1313 630 l 257
 1313 690 l 257
1041 1603 m 257
 766 1603 l 257
 770 1574 l 257
 1038 1452 l 257
 1041 1603 l 257
1011 -140 m 257
 735 -274 l 257
 735 -284 l 257
 1011 -284 l 257
 1011 -140 l 257
EndSplineSet
EndChar

StartChar: bracketleft
Encoding: 317 91 317
GlifName: bracketleft
Width: 2048
VWidth: 0
GlyphClass: 2
Flags: W
LayerCount: 2
Fore
SplineSet
890 1542 m 257
 890 -242 l 257
 1012 -242 l 257
 1012 1542 l 257
 890 1542 l 257
944 1543 m 257
 944 1416 l 257
 1153 1416 l 257
 1153 1543 l 257
 944 1543 l 257
944 -91 m 257
 944 -242 l 257
 1158 -242 l 257
 1158 -91 l 257
 944 -91 l 257
EndSplineSet
EndChar

StartChar: bracketright
Encoding: 318 93 318
GlifName: bracketright
Width: 2048
VWidth: 0
GlyphClass: 2
Flags: W
LayerCount: 2
Fore
SplineSet
1036 1542 m 257
 1036 -242 l 257
 1158 -242 l 257
 1158 1542 l 257
 1036 1542 l 257
886 1543 m 257
 886 1416 l 257
 1094 1416 l 257
 1094 1543 l 257
 886 1543 l 257
886 -91 m 257
 886 -242 l 257
 1100 -242 l 257
 1100 -91 l 257
 886 -91 l 257
EndSplineSet
EndChar

StartChar: breve
Encoding: 319 728 319
GlifName: breve
Width: 2048
VWidth: 0
GlyphClass: 2
Flags: W
VStem: 694 660<1213 1295 1213 1310>
LayerCount: 2
Fore
SplineSet
1189 1213 m 257
 1189 1145 l 257
 1354 1213 l 257
 1354 1310 l 257
 1189 1213 l 257
865 1213 m 257
 865 1145 l 257
 1189 1145 l 257
 1189 1213 l 257
 865 1213 l 257
694 1295 m 257
 694 1213 l 257
 865 1145 l 257
 865 1213 l 257
 694 1295 l 257
EndSplineSet
PickledDataWithLists: "(dp0
Vcom.fontlab.hintData
p1
(dp2
Vvhints
p3
(lp4
(dp5
Vposition
p6
I694
sVwidth
p7
I660
sass."
EndChar

StartChar: brokenbar
Encoding: 325 166 325
GlifName: brokenbar
Width: 2048
VWidth: 0
GlyphClass: 2
Flags: W
LayerCount: 2
Fore
SplineSet
967 -332 m 257
 1077 -332 l 257
 1077 682 l 257
 967 682 l 257
 967 -332 l 257
970 790 m 257
 1081 790 l 257
 1081 1636 l 257
 970 1636 l 257
 970 790 l 257
EndSplineSet
EndChar

StartChar: bullet
Encoding: 328 8226 328
GlifName: bullet
Width: 2048
VWidth: 0
GlyphClass: 2
Flags: W
LayerCount: 2
Fore
SplineSet
882 1023 m 257
 882 765 l 257
 1166 765 l 257
 1166 1023 l 257
 882 1023 l 257
EndSplineSet
EndChar

StartChar: uni2219
Encoding: 329 8729 329
GlifName: bulletoperator
Width: 2048
VWidth: 0
GlyphClass: 2
Flags: W
LayerCount: 2
Fore
SplineSet
882 1023 m 257
 882 765 l 257
 1166 765 l 257
 1166 1023 l 257
 882 1023 l 257
EndSplineSet
EndChar

StartChar: c
Encoding: 330 99 330
GlifName: c
Width: 2048
VWidth: 0
GlyphClass: 2
Flags: W
AnchorPoint: "base" 1028 -71 basechar 0
AnchorPoint: "top" 1010 1123 basechar 0
LayerCount: 2
Fore
SplineSet
171 1023 m 257
 171 826 l 257
 1877 826 l 257
 1877 1023 l 257
 171 1023 l 257
173 984 m 257
 173 0 l 257
 375 0 l 257
 375 984 l 257
 173 984 l 257
279 201 m 257
 279 0 l 257
 1871 0 l 257
 1871 201 l 257
 279 201 l 257
EndSplineSet
EndChar

StartChar: caron
Encoding: 333 711 333
GlifName: caron
Width: 2048
VWidth: 0
GlyphClass: 2
Flags: W
LayerCount: 2
Fore
SplineSet
979 1158 m 257
 873 1430 l 257
 813 1405 l 257
 919 1158 l 257
 979 1158 l 257
921 1206 m 257
 979 1158 l 257
 1084 1408 l 257
 1024 1430 l 257
 921 1206 l 257
EndSplineSet
EndChar

StartChar: cedilla
Encoding: 338 184 338
GlifName: cedilla
Width: 2048
VWidth: 0
GlyphClass: 2
Flags: W
LayerCount: 2
Fore
SplineSet
800 20 m 257
 800 -304 l 257
 956 -304 l 257
 956 20 l 257
 800 20 l 257
802 -448 m 257
 802 -566 l 257
 1248 -566 l 257
 1248 -448 l 257
 802 -448 l 257
1096 -160 m 257
 1096 -532 l 257
 1248 -532 l 257
 1248 -160 l 257
 1096 -160 l 257
802 -160 m 257
 802 -316 l 257
 1248 -316 l 257
 1248 -160 l 257
 802 -160 l 257
EndSplineSet
EndChar

StartChar: cent
Encoding: 339 162 339
GlifName: cent
Width: 2048
VWidth: 0
GlyphClass: 2
Flags: W
LayerCount: 2
Fore
SplineSet
1203 1183 m 257
 1056 1183 l 257
 1056 -86 l 257
 1203 -86 l 257
 1203 1183 l 257
676 1023 m 257
 676 826 l 257
 1372 826 l 257
 1372 1023 l 257
 676 1023 l 257
678 984 m 257
 678 0 l 257
 880 0 l 257
 880 984 l 257
 678 984 l 257
784 201 m 257
 784 0 l 257
 1366 0 l 257
 1366 201 l 257
 784 201 l 257
EndSplineSet
EndChar

StartChar: uni0447
Encoding: 340 1095 340
GlifName: che-cy
Width: 2048
VWidth: 0
Flags: W
LayerCount: 2
Fore
SplineSet
1749 1024 m 257
 1749 -1 l 257
 1949 -1 l 257
 1949 1024 l 257
 1749 1024 l 257
129 1024 m 257
 129 286 l 257
 329 286 l 257
 329 1024 l 257
 129 1024 l 257
309 486 m 257
 329 285 l 257
 1855 402 l 257
 1835 603 l 257
 309 486 l 257
EndSplineSet
EndChar

StartChar: chi
Encoding: 341 967 341
GlifName: chi
Width: 2048
VWidth: 0
GlyphClass: 2
Flags: W
LayerCount: 2
Fore
SplineSet
343 -245 m 257
 539 -245 l 257
 1698 1023 l 257
 1505 1023 l 257
 343 -245 l 257
346 1023 m 257
 1512 -245 l 257
 1706 -245 l 257
 542 1023 l 257
 346 1023 l 257
11 1023 m 257
 11 821 l 257
 541 821 l 257
 541 1023 l 257
 11 1023 l 257
1513 -43 m 257
 1513 -245 l 257
 2039 -245 l 257
 2039 -43 l 257
 1513 -43 l 257
EndSplineSet
EndChar

StartChar: circumflex
Encoding: 343 710 343
GlifName: circumflex
Width: 2048
VWidth: 0
GlyphClass: 2
Flags: W
LayerCount: 2
Fore
SplineSet
1085 1298 m 257
 1025 1298 l 257
 919 1051 l 257
 979 1026 l 257
 1085 1298 l 257
1027 1250 m 257
 1131 1026 l 257
 1191 1048 l 257
 1085 1298 l 257
 1027 1250 l 257
EndSplineSet
EndChar

StartChar: colon
Encoding: 353 58 353
GlifName: colon
Width: 2048
VWidth: 0
GlyphClass: 2
Flags: W
LayerCount: 2
Fore
SplineSet
912 430 m 257
 912 201 l 257
 1160 201 l 257
 1160 430 l 257
 912 430 l 257
888 1294 m 257
 888 1047 l 257
 1154 1047 l 257
 1154 1294 l 257
 888 1294 l 257
EndSplineSet
EndChar

StartChar: colonmonetary
Encoding: 355 8353 355
GlifName: colonmonetary
Width: 2048
VWidth: 0
GlyphClass: 2
Flags: W
LayerCount: 2
Fore
SplineSet
1329 1483 m 257
 759 6 l 257
 853 -67 l 257
 1423 1410 l 257
 1329 1483 l 257
1113 1606 m 257
 543 129 l 257
 649 56 l 257
 1219 1533 l 257
 1113 1606 l 257
623 1537 m 257
 623 0 l 257
 823 0 l 257
 823 1537 l 257
 623 1537 l 257
722 1537 m 257
 722 1338 l 257
 1505 1338 l 257
 1505 1537 l 257
 722 1537 l 257
708 199 m 257
 708 0 l 257
 1503 0 l 257
 1503 199 l 257
 708 199 l 257
EndSplineSet
EndChar

StartChar: comma
Encoding: 356 44 356
GlifName: comma
Width: 2048
VWidth: 0
GlyphClass: 2
Flags: W
LayerCount: 2
Fore
SplineSet
910 237 m 257
 910 8 l 257
 1158 8 l 257
 1158 237 l 257
 910 237 l 257
1008 135 m 257
 890 -146 l 257
 1034 -206 l 257
 1156 0 l 257
 1008 135 l 257
EndSplineSet
EndChar

StartChar: uni0315
Encoding: 358 789 358
GlifName: commaaboverightcomb
Width: 0
VWidth: 0
GlyphClass: 4
Flags: W
AnchorPoint: "top" -283 1018 mark 0
LayerCount: 2
Fore
SplineSet
-90 1233 m 257
 -90 1004 l 257
 158 1004 l 257
 158 1233 l 257
 -90 1233 l 257
-6 1086 m 257
 -110 850 l 257
 61 769 l 257
 158 1004 l 257
 -6 1086 l 257
EndSplineSet
EndChar

StartChar: uni0314
Encoding: 359 788 359
GlifName: commareversedabovecomb
Width: 0
VWidth: 0
GlyphClass: 4
Flags: W
AnchorPoint: "top" 85 949 mark 0
LayerCount: 2
Fore
SplineSet
165 1476 m 257
 -83 1476 l 257
 -83 1247 l 257
 165 1247 l 257
 165 1476 l 257
81 1329 m 257
 -83 1247 l 257
 14 1012 l 257
 185 1093 l 257
 81 1329 l 257
EndSplineSet
EndChar

StartChar: copyright
Encoding: 361 169 361
GlifName: copyright
Width: 2048
VWidth: 0
GlyphClass: 2
Flags: W
LayerCount: 2
Fore
SplineSet
24 1537 m 257
 24 0 l 257
 224 0 l 257
 224 1537 l 257
 24 1537 l 257
1822 1537 m 257
 1822 0 l 257
 2024 0 l 257
 2024 1537 l 257
 1822 1537 l 257
134 1537 m 257
 134 1337 l 257
 1824 1337 l 257
 1824 1537 l 257
 134 1537 l 257
158 204 m 257
 158 0 l 257
 1830 0 l 257
 1830 204 l 257
 158 204 l 257
270 1197 m 257
 270 996 l 257
 1704 996 l 257
 1704 1197 l 257
 270 1197 l 257
270 1154 m 257
 270 340 l 257
 440 340 l 257
 440 1154 l 257
 270 1154 l 257
270 495 m 257
 270 294 l 257
 1710 294 l 257
 1710 495 l 257
 270 495 l 257
EndSplineSet
EndChar

StartChar: currency
Encoding: 362 164 362
GlifName: currency
Width: 2048
VWidth: 0
GlyphClass: 2
Flags: W
LayerCount: 2
Fore
SplineSet
116 1202 m 257
 116 180 l 257
 316 180 l 257
 316 1202 l 257
 116 1202 l 257
1731 1204 m 257
 1731 180 l 257
 1933 180 l 257
 1933 1204 l 257
 1731 1204 l 257
239 1204 m 257
 239 1002 l 257
 1825 1002 l 257
 1825 1204 l 257
 239 1204 l 257
243 380 m 257
 243 181 l 257
 1815 181 l 257
 1815 380 l 257
 243 380 l 257
52 1372 m 257
 52 1125 l 257
 318 1125 l 257
 318 1372 l 257
 52 1372 l 257
1730 1371 m 257
 1730 1124 l 257
 1996 1124 l 257
 1996 1371 l 257
 1730 1371 l 257
50 270 m 257
 50 23 l 257
 316 23 l 257
 316 270 l 257
 50 270 l 257
1732 279 m 257
 1732 32 l 257
 1998 32 l 257
 1998 279 l 257
 1732 279 l 257
EndSplineSet
EndChar

StartChar: d
Encoding: 363 100 363
GlifName: d
Width: 2048
VWidth: 0
GlyphClass: 2
Flags: W
AnchorPoint: "base" 1025 -70 basechar 0
AnchorPoint: "top" 1035 1597 basechar 0
LayerCount: 2
Fore
SplineSet
1704 1527 m 257
 1704 0 l 257
 1904 0 l 257
 1904 1527 l 257
 1704 1527 l 257
240 1023 m 257
 240 822 l 257
 1792 822 l 257
 1792 1023 l 257
 240 1023 l 257
144 1023 m 257
 144 0 l 257
 344 0 l 257
 344 1023 l 257
 144 1023 l 257
240 195 m 257
 240 0 l 257
 1856 0 l 257
 1856 195 l 257
 240 195 l 257
EndSplineSet
EndChar

StartChar: dagger
Encoding: 364 8224 364
GlifName: dagger
Width: 2048
VWidth: 0
GlyphClass: 2
Flags: W
LayerCount: 2
Fore
SplineSet
721 1251 m 257
 721 1086 l 257
 1327 1086 l 257
 1327 1251 l 257
 721 1251 l 257
945 1548 m 257
 945 0 l 257
 1090 0 l 257
 1090 1548 l 257
 945 1548 l 257
EndSplineSet
EndChar

StartChar: daggerdbl
Encoding: 365 8225 365
GlifName: daggerdbl
Width: 2048
VWidth: 0
GlyphClass: 2
Flags: W
LayerCount: 2
Fore
SplineSet
721 937 m 257
 721 772 l 257
 1327 772 l 257
 1327 937 l 257
 721 937 l 257
721 1251 m 257
 721 1086 l 257
 1327 1086 l 257
 1327 1251 l 257
 721 1251 l 257
945 1548 m 257
 945 0 l 257
 1090 0 l 257
 1090 1548 l 257
 945 1548 l 257
EndSplineSet
EndChar

StartChar: dcaron
Encoding: 368 271 368
GlifName: dcaron
Width: 2048
VWidth: 0
GlyphClass: 2
Flags: W
AnchorPoint: "base" 1016 -97 basechar 0
LayerCount: 2
Fore
SplineSet
1637 1527 m 257
 1637 0 l 257
 1838 0 l 257
 1838 1527 l 257
 1637 1527 l 257
149 1023 m 257
 149 822 l 257
 1726 822 l 257
 1726 1023 l 257
 149 1023 l 257
53 1023 m 257
 53 0 l 257
 254 0 l 257
 254 1023 l 257
 53 1023 l 257
149 195 m 257
 149 0 l 257
 1790 0 l 257
 1790 195 l 257
 149 195 l 257
1884 1496 m 257
 1884 1264 l 257
 2014 1264 l 257
 2014 1496 l 257
 1884 1496 l 257
EndSplineSet
EndChar

StartChar: dcroat
Encoding: 370 273 370
GlifName: dcroat
Width: 2048
VWidth: 0
GlyphClass: 2
Flags: W
AnchorPoint: "top" 1827 1627 basechar 0
AnchorPoint: "base" 1026 -86 basechar 0
LayerCount: 2
Fore
SplineSet
1716 1527 m 257
 1716 0 l 257
 1917 0 l 257
 1917 1527 l 257
 1716 1527 l 257
228 1023 m 257
 228 822 l 257
 1805 822 l 257
 1805 1023 l 257
 228 1023 l 257
132 1023 m 257
 132 0 l 257
 333 0 l 257
 333 1023 l 257
 132 1023 l 257
228 195 m 257
 228 0 l 257
 1869 0 l 257
 1869 195 l 257
 228 195 l 257
1579 1403 m 257
 1579 1202 l 257
 2023 1202 l 257
 2023 1403 l 257
 1579 1403 l 257
EndSplineSet
EndChar

StartChar: uni0221
Encoding: 371 545 371
GlifName: dcurl
Width: 2048
VWidth: 0
GlyphClass: 2
Flags: W
AnchorPoint: "base" 1025 -70 basechar 0
AnchorPoint: "top" 1035 1597 basechar 0
LayerCount: 2
Fore
SplineSet
938 1554 m 257
 938 27 l 257
 1138 27 l 257
 1138 1554 l 257
 938 1554 l 257
114 1023 m 257
 114 822 l 257
 1136 822 l 257
 1136 1023 l 257
 114 1023 l 257
18 1023 m 257
 18 0 l 257
 218 0 l 257
 218 1023 l 257
 18 1023 l 257
114 195 m 257
 114 0 l 257
 1972 0 l 257
 1972 195 l 257
 114 195 l 257
1219 -146 m 257
 1434 -135 l 257
 1820 535 l 257
 1817 843 l 257
 1219 -146 l 257
1821 846 m 257
 1821 20 l 257
 2022 27 l 257
 2022 853 l 257
 1821 846 l 257
EndSplineSet
EndChar

StartChar: uni0434
Encoding: 372 1076 372
GlifName: de-cy
Width: 2048
VWidth: 0
Flags: W
LayerCount: 2
Fore
SplineSet
18 203 m 257
 18 3 l 257
 2016 3 l 257
 2016 203 l 257
 18 203 l 257
18 159 m 257
 20 -405 l 257
 220 -405 l 257
 218 159 l 257
 18 159 l 257
1816 159 m 257
 1816 -412 l 257
 2016 -412 l 257
 2016 159 l 257
 1816 159 l 257
1472 916 m 257
 1472 132 l 257
 1672 132 l 257
 1672 916 l 257
 1472 916 l 257
684 1018 m 257
 684 818 l 257
 1672 818 l 257
 1672 1018 l 257
 684 1018 l 257
664 1019 m 257
 235 185 l 257
 435 185 l 257
 864 1019 l 257
 664 1019 l 257
EndSplineSet
EndChar

StartChar: degree
Encoding: 373 176 373
GlifName: degree
Width: 2048
VWidth: 0
GlyphClass: 2
Flags: W
LayerCount: 2
Fore
SplineSet
949 1456 m 257
 1097 1456 l 257
 1097 1326 l 257
 949 1326 l 257
 949 1456 l 257
844 1548 m 257
 844 1238 l 257
 1204 1238 l 257
 1204 1548 l 257
 844 1548 l 257
EndSplineSet
EndChar

StartChar: delta
Encoding: 374 948 374
GlifName: delta
Width: 2048
VWidth: 0
GlyphClass: 2
Flags: W
LayerCount: 2
Fore
SplineSet
1265 1548 m 257
 1716 0 l 257
 1917 0 l 257
 1466 1548 l 257
 1265 1548 l 257
228 1023 m 257
 228 822 l 257
 1593 822 l 257
 1593 1023 l 257
 228 1023 l 257
132 1023 m 257
 132 0 l 257
 333 0 l 257
 333 1023 l 257
 132 1023 l 257
228 195 m 257
 228 0 l 257
 1869 0 l 257
 1869 195 l 257
 228 195 l 257
1336 1549 m 257
 1336 1362 l 257
 1868 1362 l 257
 1868 1549 l 257
 1336 1549 l 257
EndSplineSet
EndChar

StartChar: divide
Encoding: 379 247 379
GlifName: divide
Width: 2048
VWidth: 0
GlyphClass: 2
Flags: W
LayerCount: 2
Fore
SplineSet
912 430 m 257
 912 201 l 257
 1160 201 l 257
 1160 430 l 257
 912 430 l 257
888 1294 m 257
 888 1047 l 257
 1154 1047 l 257
 1154 1294 l 257
 888 1294 l 257
611 808 m 257
 611 600 l 257
 1437 600 l 257
 1437 808 l 257
 611 808 l 257
EndSplineSet
EndChar

StartChar: uni2215
Encoding: 380 8725 380
GlifName: divisionslash
Width: 2048
VWidth: 0
GlyphClass: 2
Flags: W
LayerCount: 2
Fore
SplineSet
1215 1483 m 257
 645 6 l 257
 833 -67 l 257
 1403 1410 l 257
 1215 1483 l 257
EndSplineSet
EndChar

StartChar: uni0452
Encoding: 381 1106 381
GlifName: dje-cy
Width: 2048
VWidth: 0
Flags: W
LayerCount: 2
Fore
SplineSet
48 1369 m 257
 48 1169 l 257
 1604 1169 l 257
 1604 1369 l 257
 48 1369 l 257
745 1544 m 257
 745 -1 l 257
 945 -1 l 257
 945 1544 l 257
 745 1544 l 257
828 994 m 257
 828 794 l 257
 1953 794 l 257
 1953 994 l 257
 828 994 l 257
1753 989 m 257
 1753 -406 l 257
 1953 -406 l 257
 1953 989 l 257
 1753 989 l 257
1374 -243 m 257
 1374 -443 l 257
 1953 -443 l 257
 1953 -243 l 257
 1374 -243 l 257
EndSplineSet
EndChar

StartChar: dollar
Encoding: 383 36 383
GlifName: dollar
Width: 2048
VWidth: 0
GlyphClass: 2
Flags: W
LayerCount: 2
Fore
SplineSet
638 1537 m 257
 638 1358 l 257
 1236 1358 l 257
 1236 1537 l 257
 638 1537 l 257
638 1542 m 257
 638 1028 l 257
 843 1028 l 257
 843 1542 l 257
 638 1542 l 257
666 163 m 257
 666 0 l 257
 1374 0 l 257
 1374 163 l 257
 666 163 l 257
1204 0 m 257
 1410 0 l 257
 1410 355 l 257
 1204 355 l 257
 1204 0 l 257
638 1028 m 257
 1204 355 l 257
 1410 355 l 257
 843 1028 l 257
 638 1028 l 257
897 1636 m 257
 897 -215 l 257
 1111 -215 l 257
 1111 1636 l 257
 897 1636 l 257
EndSplineSet
EndChar

StartChar: dong
Encoding: 384 8363 384
GlifName: dong
Width: 2048
VWidth: 0
GlyphClass: 2
Flags: W
LayerCount: 2
Fore
SplineSet
686 18 m 257
 686 -177 l 257
 1304 -177 l 257
 1304 18 l 257
 686 18 l 257
1150 1527 m 257
 1150 98 l 257
 1352 98 l 257
 1352 1527 l 257
 1150 1527 l 257
686 1023 m 257
 686 822 l 257
 1240 822 l 257
 1240 1023 l 257
 686 1023 l 257
590 1023 m 257
 590 98 l 257
 792 98 l 257
 792 1023 l 257
 590 1023 l 257
686 293 m 257
 686 98 l 257
 1304 98 l 257
 1304 293 l 257
 686 293 l 257
1014 1403 m 257
 1014 1202 l 257
 1458 1202 l 257
 1458 1403 l 257
 1014 1403 l 257
EndSplineSet
EndChar

StartChar: dotaccent
Encoding: 385 729 385
GlifName: dotaccent
Width: 2048
VWidth: 0
GlyphClass: 2
Flags: W
HStem: 1145 202<912 1136>
VStem: 912 224<1145 1347 1145 1347>
LayerCount: 2
Fore
SplineSet
912 1347 m 257
 912 1145 l 257
 1136 1145 l 257
 1136 1347 l 257
 912 1347 l 257
EndSplineSet
PickledDataWithLists: "(dp0
Vcom.fontlab.hintData
p1
(dp2
Vhhints
p3
(lp4
(dp5
Vposition
p6
I1145
sVwidth
p7
I202
sasVvhints
p8
(lp9
(dp10
g6
I912
sg7
I224
sass."
EndChar

StartChar: dotbelowcomb
Encoding: 386 803 386
GlifName: dotbelowcomb
Width: 0
VWidth: 0
GlyphClass: 4
Flags: W
HStem: -451 247<-132 132>
VStem: -132 264<-451 -204 -451 -204>
AnchorPoint: "base" 4 -195 mark 0
LayerCount: 2
Fore
SplineSet
-132 -204 m 257
 -132 -451 l 257
 132 -451 l 257
 132 -204 l 257
 -132 -204 l 257
EndSplineSet
PickledDataWithLists: "(dp0
Vcom.fontlab.hintData
p1
(dp2
Vhhints
p3
(lp4
(dp5
Vposition
p6
I-451
sVwidth
p7
I247
sasVvhints
p8
(lp9
(dp10
g6
I-132
sg7
I264
sass."
EndChar

StartChar: dotlessi
Encoding: 387 305 387
GlifName: dotlessi
Width: 2048
VWidth: 0
GlyphClass: 2
Flags: W
AnchorPoint: "top" 1021 1160 basechar 0
AnchorPoint: "base" 1182 -9 basechar 0
LayerCount: 2
Fore
SplineSet
923 1018 m 257
 923 139 l 257
 1125 139 l 257
 1125 1018 l 257
 923 1018 l 257
153 204 m 257
 153 6 l 257
 1895 6 l 257
 1895 204 l 257
 153 204 l 257
203 1018 m 257
 203 818 l 257
 1079 818 l 257
 1079 1018 l 257
 203 1018 l 257
EndSplineSet
EndChar

StartChar: uni035F
Encoding: 389 863 389
GlifName: doublemacronbelowcomb
Width: 0
VWidth: 0
GlyphClass: 4
Flags: W
AnchorPoint: "base" 4 -163 mark 0
LayerCount: 2
Fore
SplineSet
56 -170 m 257
 56 -248 l 257
 948 -248 l 257
 948 -170 l 257
 56 -170 l 257
EndSplineSet
EndChar

StartChar: arrowdown
Encoding: 390 8595 390
GlifName: downA_rrow
Width: 2048
VWidth: 0
GlyphClass: 2
Flags: W
LayerCount: 2
Fore
SplineSet
906 63 m 257
 1117 63 l 257
 1117 1688 l 257
 906 1688 l 257
 906 63 l 257
685 312 m 257
 1017 -168 l 257
 1017 74 l 257
 685 554 l 257
 685 312 l 257
1017 -168 m 257
 1350 331 l 257
 1350 573 l 257
 1017 75 l 257
 1017 -168 l 257
EndSplineSet
EndChar

StartChar: uni25BE
Encoding: 391 9662 391
GlifName: downB_lackS_mallT_riangle
Width: 2048
VWidth: 0
GlyphClass: 2
Flags: W
LayerCount: 2
Fore
SplineSet
1030 475 m 257
 1279 889 l 257
 785 891 l 257
 1030 475 l 257
EndSplineSet
EndChar

StartChar: triagdn
Encoding: 392 9660 392
GlifName: downB_lackT_riangle
Width: 2048
VWidth: 0
GlyphClass: 2
Flags: W
LayerCount: 2
Fore
SplineSet
1028 332 m 257
 1444 1021 l 257
 620 1024 l 257
 1028 332 l 257
EndSplineSet
EndChar

StartChar: uni25BF
Encoding: 393 9663 393
GlifName: downW_hiteS_mallT_riangle
Width: 2048
VWidth: 0
GlyphClass: 2
Flags: W
LayerCount: 2
Fore
SplineSet
1015 414 m 257
 1264 828 l 257
 770 830 l 257
 1015 414 l 257
1021 469 m 257
 824 801 l 257
 1220 800 l 257
 1021 469 l 257
EndSplineSet
EndChar

StartChar: uni25BD
Encoding: 394 9661 394
GlifName: downW_hiteT_riangle
Width: 2048
VWidth: 0
GlyphClass: 2
Flags: W
LayerCount: 2
Fore
SplineSet
1024 379 m 257
 1411 1027 l 257
 640 1029 l 257
 1024 379 l 257
1024 445 m 257
 714 989 l 257
 1330 990 l 257
 1024 445 l 257
EndSplineSet
EndChar

StartChar: uni045F
Encoding: 397 1119 397
GlifName: dzhe-cy
Width: 2048
VWidth: 0
Flags: W
LayerCount: 2
Fore
SplineSet
62 942 m 257
 62 18 l 257
 262 18 l 257
 262 942 l 257
 62 942 l 257
1786 946 m 257
 1786 3 l 257
 1986 3 l 257
 1986 946 l 257
 1786 946 l 257
62 200 m 257
 62 0 l 257
 1986 0 l 257
 1986 200 l 257
 62 200 l 257
924 79 m 257
 924 -405 l 257
 1124 -405 l 257
 1124 79 l 257
 924 79 l 257
EndSplineSet
EndChar

StartChar: e
Encoding: 398 101 398
GlifName: e
Width: 2048
VWidth: 0
GlyphClass: 2
Flags: W
AnchorPoint: "top" 983 1092 basechar 0
AnchorPoint: "base" 1019 -82 basechar 0
LayerCount: 2
Fore
SplineSet
230 1023 m 257
 230 812 l 257
 1864 812 l 257
 1864 1023 l 257
 230 1023 l 257
180 1023 m 257
 180 0 l 257
 382 0 l 257
 382 1023 l 257
 180 1023 l 257
282 201 m 257
 282 0 l 257
 1864 0 l 257
 1864 201 l 257
 282 201 l 257
250 625 m 257
 250 446 l 257
 1840 446 l 257
 1840 625 l 257
 250 625 l 257
1668 993 m 257
 1668 445 l 257
 1862 445 l 257
 1862 993 l 257
 1668 993 l 257
EndSplineSet
EndChar

StartChar: uni0454
Encoding: 399 1108 399
GlifName: e-cy
Width: 2048
VWidth: 0
Flags: W
LayerCount: 2
Fore
SplineSet
959 1018 m 257
 959 818 l 257
 1962 818 l 257
 1962 1018 l 257
 959 1018 l 257
207 598 m 257
 207 398 l 257
 1896 398 l 257
 1896 598 l 257
 207 598 l 257
931 201 m 257
 931 1 l 257
 1957 1 l 257
 1957 201 l 257
 931 201 l 257
959 1017 m 257
 40 506 l 257
 283 506 l 257
 1202 1017 l 257
 959 1017 l 257
42 506 m 257
 931 0 l 257
 1176 0 l 257
 287 506 l 257
 42 506 l 257
EndSplineSet
EndChar

StartChar: uni0444
Encoding: 409 1092 409
GlifName: ef-cy
Width: 2048
VWidth: 0
Flags: W
LayerCount: 2
Fore
SplineSet
936 1541 m 257
 936 -430 l 257
 1135 -430 l 257
 1135 1541 l 257
 936 1541 l 257
110 1015 m 257
 110 0 l 257
 311 0 l 257
 311 1015 l 257
 110 1015 l 257
1731 1015 m 257
 1731 0 l 257
 1934 0 l 257
 1934 1015 l 257
 1731 1015 l 257
174 1015 m 257
 174 815 l 257
 1841 815 l 257
 1841 1015 l 257
 174 1015 l 257
150 204 m 257
 150 0 l 257
 1847 0 l 257
 1847 204 l 257
 150 204 l 257
EndSplineSet
EndChar

StartChar: eight
Encoding: 411 56 411
GlifName: eight
Width: 2048
VWidth: 0
GlyphClass: 2
Flags: W
LayerCount: 2
Fore
SplineSet
56 1548 m 257
 56 0 l 257
 1993 0 l 257
 1993 1548 l 257
 56 1548 l 257
1791 759 m 257
 1791 197 l 257
 260 197 l 257
 260 759 l 257
 1791 759 l 257
1792 959 m 257
 260 959 l 257
 260 1350 l 257
 1792 1350 l 257
 1792 959 l 257
EndSplineSet
Substitution2: "supsSuperscriptinLatinlookup16 subtable" uni2078
EndChar

StartChar: uni043B
Encoding: 412 1083 412
GlifName: el-cy
Width: 2048
VWidth: 0
Flags: W
LayerCount: 2
Fore
SplineSet
1836 1021 m 257
 1836 1 l 257
 2036 1 l 257
 2036 1021 l 257
 1836 1021 l 257
662 1021 m 257
 662 821 l 257
 2024 821 l 257
 2024 1021 l 257
 662 1021 l 257
652 1021 m 257
 342 0 l 257
 542 0 l 257
 852 1021 l 257
 652 1021 l 257
33 201 m 257
 33 1 l 257
 542 1 l 257
 542 201 l 257
 33 201 l 257
EndSplineSet
EndChar

StartChar: ellipsis
Encoding: 413 8230 413
GlifName: ellipsis
Width: 2048
VWidth: 0
GlyphClass: 2
Flags: W
LayerCount: 2
Fore
SplineSet
405 114 m 257
 405 0 l 257
 547 0 l 257
 547 114 l 257
 405 114 l 257
952 114 m 257
 952 0 l 257
 1096 0 l 257
 1096 114 l 257
 952 114 l 257
1501 114 m 257
 1501 0 l 257
 1643 0 l 257
 1643 114 l 257
 1501 114 l 257
EndSplineSet
EndChar

StartChar: uni043C
Encoding: 414 1084 414
GlifName: em-cy
Width: 2048
VWidth: 0
Flags: W
AnchorPoint: "base" 1022 -20 basechar 0
AnchorPoint: "top" 1040 1661 basechar 0
LayerCount: 2
Fore
SplineSet
138 1009 m 257
 138 0 l 257
 340 0 l 257
 340 1009 l 257
 138 1009 l 257
1708 1009 m 257
 1708 0 l 257
 1910 0 l 257
 1910 1009 l 257
 1708 1009 l 257
174 890 m 257
 890 296 l 257
 1078 296 l 257
 316 1009 l 257
 174 890 l 257
1736 1009 m 257
 888 288 l 257
 1076 288 l 257
 1902 949 l 257
 1736 1009 l 257
EndSplineSet
EndChar

StartChar: emdash
Encoding: 416 8212 416
GlifName: emdash
Width: 2048
VWidth: 0
GlyphClass: 2
Flags: W
LayerCount: 2
Fore
SplineSet
87 600 m 257
 1950 600 l 257
 1950 808 l 257
 87 808 l 257
 87 600 l 257
EndSplineSet
EndChar

StartChar: uni043D
Encoding: 419 1085 419
GlifName: en-cy
Width: 2048
VWidth: 0
Flags: W
AnchorPoint: "top" 1026 1627 basechar 0
AnchorPoint: "base" 1026 -45 basechar 0
LayerCount: 2
Fore
SplineSet
126 1019 m 257
 126 0 l 257
 326 0 l 257
 326 1019 l 257
 126 1019 l 257
1712 1019 m 257
 1712 0 l 257
 1922 0 l 257
 1922 1019 l 257
 1712 1019 l 257
246 646 m 257
 246 441 l 257
 1792 441 l 257
 1792 646 l 257
 246 646 l 257
EndSplineSet
EndChar

StartChar: endash
Encoding: 420 8211 420
GlifName: endash
Width: 2048
VWidth: 0
GlyphClass: 2
Flags: W
LayerCount: 2
Fore
SplineSet
611 600 m 257
 1437 600 l 257
 1437 808 l 257
 611 808 l 257
 611 600 l 257
EndSplineSet
EndChar

StartChar: eng
Encoding: 421 331 421
GlifName: eng
Width: 2048
VWidth: 0
GlyphClass: 2
Flags: W
AnchorPoint: "top" 1035 1181 basechar 0
AnchorPoint: "base" 1077 -469 basechar 0
LayerCount: 2
Fore
SplineSet
1480 -211 m 257
 1480 -408 l 257
 1867 -408 l 257
 1867 -211 l 257
 1480 -211 l 257
244 990 m 257
 244 0 l 257
 445 0 l 257
 445 990 l 257
 244 990 l 257
1667 976 m 257
 1667 -408 l 257
 1868 -408 l 257
 1868 976 l 257
 1667 976 l 257
65 1023 m 257
 65 826 l 257
 1867 826 l 257
 1867 1023 l 257
 65 1023 l 257
EndSplineSet
EndChar

StartChar: uni025B
Encoding: 423 603 423
GlifName: eopen
Width: 2048
VWidth: 0
GlyphClass: 2
Flags: W
AnchorPoint: "top" 989 1225 basechar 0
AnchorPoint: "base" 1019 -82 basechar 0
LayerCount: 2
Fore
SplineSet
103 1140 m 257
 197 669 l 257
 397 668 l 257
 303 1139 l 257
 103 1140 l 257
181 1139 m 257
 181 935 l 257
 1924 935 l 257
 1924 1139 l 257
 181 1139 l 257
170 203 m 257
 170 0 l 257
 1940 0 l 257
 1940 203 l 257
 170 203 l 257
343 670 m 257
 343 470 l 257
 1181 470 l 257
 1181 670 l 257
 343 670 l 257
204 473 m 257
 96 2 l 257
 296 1 l 257
 404 472 l 257
 204 473 l 257
EndSplineSet
EndChar

StartChar: epsilon
Encoding: 424 949 424
GlifName: epsilon
Width: 2048
VWidth: 0
GlyphClass: 2
Flags: W
LayerCount: 2
Fore
SplineSet
103 1140 m 257
 96 669 l 257
 296 668 l 257
 303 1139 l 257
 103 1140 l 257
181 1139 m 257
 181 935 l 257
 1924 935 l 257
 1924 1139 l 257
 181 1139 l 257
170 203 m 257
 170 0 l 257
 1940 0 l 257
 1940 203 l 257
 170 203 l 257
242 670 m 257
 242 470 l 257
 1181 470 l 257
 1181 670 l 257
 242 670 l 257
103 473 m 257
 96 2 l 257
 296 1 l 257
 303 472 l 257
 103 473 l 257
EndSplineSet
EndChar

StartChar: equal
Encoding: 426 61 426
GlifName: equal
Width: 2048
VWidth: 0
GlyphClass: 2
Flags: W
LayerCount: 2
Fore
SplineSet
616 914 m 257
 616 724 l 257
 1432 724 l 257
 1432 914 l 257
 616 914 l 257
616 540 m 257
 616 350 l 257
 1432 350 l 257
 1432 540 l 257
 616 540 l 257
EndSplineSet
EndChar

StartChar: uni044D
Encoding: 427 1101 427
GlifName: ereversed-cy
Width: 2048
VWidth: 0
Flags: W
LayerCount: 2
Fore
SplineSet
1043 1024 m 257
 40 1024 l 257
 40 824 l 257
 1043 824 l 257
 1043 1024 l 257
1795 632 m 257
 106 632 l 257
 106 432 l 257
 1795 432 l 257
 1795 632 l 257
1071 201 m 257
 45 201 l 257
 45 1 l 257
 1071 1 l 257
 1071 201 l 257
1043 1023 m 257
 800 1023 l 257
 1719 540 l 257
 1962 540 l 257
 1043 1023 l 257
1960 540 m 257
 1715 540 l 257
 826 0 l 257
 1071 0 l 257
 1960 540 l 257
EndSplineSet
EndChar

StartChar: uni0283
Encoding: 428 643 428
GlifName: esh
Width: 2048
VWidth: 0
GlyphClass: 2
Flags: W
LayerCount: 2
Fore
SplineSet
1046 1641 m 257
 823 -390 l 257
 1016 -390 l 257
 1239 1641 l 257
 1046 1641 l 257
351 -240 m 257
 351 -390 l 257
 982 -390 l 257
 982 -240 l 257
 351 -240 l 257
1101 1641 m 257
 1101 1507 l 257
 1778 1504 l 257
 1778 1638 l 257
 1101 1641 l 257
EndSplineSet
EndChar

StartChar: uni0285
Encoding: 429 645 429
GlifName: eshsquatreversed
Width: 2048
VWidth: 0
GlyphClass: 2
Flags: W
LayerCount: 2
Fore
SplineSet
837 1001 m 257
 1005 -399 l 257
 1198 -399 l 257
 1030 1001 l 257
 837 1001 l 257
762 -250 m 257
 762 -400 l 257
 1575 -400 l 257
 1575 -250 l 257
 762 -250 l 257
580 1001 m 257
 580 867 l 257
 1240 864 l 257
 1240 998 l 257
 580 1001 l 257
EndSplineSet
EndChar

StartChar: estimated
Encoding: 430 8494 430
GlifName: estimated
Width: 2048
VWidth: 0
GlyphClass: 2
Flags: W
LayerCount: 2
Fore
SplineSet
683 798 m 257
 683 718 l 257
 1429 719 l 257
 1429 799 l 257
 683 798 l 257
1238 1098 m 257
 1244 727 l 257
 1428 727 l 257
 1422 1098 l 257
 1238 1098 l 257
679 1103 m 257
 680 731 l 257
 859 731 l 257
 858 1103 l 257
 679 1103 l 257
680 1175 m 257
 680 1081 l 257
 1025 1125 l 257
 1025 1219 l 257
 680 1175 l 257
1025 1221 m 257
 1024 1123 l 257
 1422 1081 l 257
 1423 1179 l 257
 1025 1221 l 257
683 731 m 257
 683 287 l 257
 764 287 l 257
 764 731 l 257
 683 731 l 257
683 342 m 257
 683 248 l 257
 1025 183 l 257
 1025 277 l 257
 683 342 l 257
1024 277 m 257
 1024 183 l 257
 1423 247 l 257
 1423 341 l 257
 1024 277 l 257
EndSplineSet
EndChar

StartChar: eta
Encoding: 431 951 431
GlifName: eta
Width: 2048
VWidth: 0
GlyphClass: 2
Flags: W
LayerCount: 2
Fore
SplineSet
500 990 m 257
 500 0 l 257
 701 0 l 257
 701 990 l 257
 500 990 l 257
1667 976 m 257
 1667 -409 l 257
 1868 -409 l 257
 1868 976 l 257
 1667 976 l 257
65 1023 m 257
 65 826 l 257
 1867 826 l 257
 1867 1023 l 257
 65 1023 l 257
EndSplineSet
EndChar

StartChar: eth
Encoding: 433 240 433
GlifName: eth
Width: 2048
VWidth: 0
GlyphClass: 2
Flags: W
AnchorPoint: "top" 1348 1664 basechar 0
AnchorPoint: "base" 1084 -112 basechar 0
LayerCount: 2
Fore
SplineSet
1265 1548 m 257
 1716 0 l 257
 1917 0 l 257
 1466 1548 l 257
 1265 1548 l 257
228 1023 m 257
 228 822 l 257
 1593 822 l 257
 1593 1023 l 257
 228 1023 l 257
132 1023 m 257
 132 0 l 257
 333 0 l 257
 333 1023 l 257
 132 1023 l 257
228 195 m 257
 228 0 l 257
 1869 0 l 257
 1869 195 l 257
 228 195 l 257
1185 1416 m 257
 1185 1229 l 257
 1717 1229 l 257
 1717 1416 l 257
 1185 1416 l 257
EndSplineSet
EndChar

StartChar: exclam
Encoding: 436 33 436
GlifName: exclam
Width: 2048
VWidth: 0
GlyphClass: 2
Flags: W
LayerCount: 2
Fore
SplineSet
952 126 m 257
 1096 126 l 257
 1096 374 l 257
 952 374 l 257
 952 126 l 257
962 611 m 257
 1090 611 l 257
 1090 1629 l 257
 962 1629 l 257
 962 611 l 257
EndSplineSet
EndChar

StartChar: exclamdown
Encoding: 437 161 437
GlifName: exclamdown
Width: 2048
VWidth: 0
GlyphClass: 2
Flags: W
LayerCount: 2
Fore
SplineSet
1096 1520 m 257
 952 1520 l 257
 952 1272 l 257
 1096 1272 l 257
 1096 1520 l 257
1086 1035 m 257
 958 1035 l 257
 958 17 l 257
 1086 17 l 257
 1086 1035 l 257
EndSplineSet
EndChar

StartChar: uni0292
Encoding: 438 658 438
GlifName: ezh
Width: 2048
VWidth: 0
GlyphClass: 2
Flags: W
LayerCount: 2
Fore
SplineSet
1884 0 m 257
 1884 197 l 257
 164 197 l 257
 164 0 l 257
 1884 0 l 257
1882 39 m 257
 1886 619 l 257
 1684 619 l 257
 1680 39 l 257
 1882 39 l 257
1780 418 m 257
 1780 619 l 257
 174 619 l 257
 174 418 l 257
 1780 418 l 257
121 1274 m 257
 121 1077 l 257
 1973 1077 l 257
 1973 1274 l 257
 121 1274 l 257
1590 1077 m 257
 169 619 l 257
 590 619 l 257
 1973 1077 l 257
 1590 1077 l 257
EndSplineSet
EndChar

StartChar: uni01B9
Encoding: 440 441 440
GlifName: ezhreversed
Width: 2048
VWidth: 0
GlyphClass: 2
Flags: W
LayerCount: 2
Fore
SplineSet
210 0 m 257
 1930 0 l 257
 1930 197 l 257
 210 197 l 257
 210 0 l 257
212 39 m 257
 414 39 l 257
 410 619 l 257
 208 619 l 257
 212 39 l 257
314 418 m 257
 1920 418 l 257
 1920 619 l 257
 314 619 l 257
 314 418 l 257
1973 1274 m 257
 121 1274 l 257
 121 1077 l 257
 1973 1077 l 257
 1973 1274 l 257
504 1077 m 257
 121 1077 l 257
 1504 619 l 257
 1925 619 l 257
 504 1077 l 257
EndSplineSet
EndChar

StartChar: f
Encoding: 441 102 441
GlifName: f
Width: 2048
VWidth: 0
GlyphClass: 2
Flags: W
AnchorPoint: "top" 1556 1637 basechar 0
AnchorPoint: "base" 971 -130 basechar 0
LayerCount: 2
Fore
SplineSet
847 1551 m 257
 840 -6 l 257
 1022 -6 l 257
 1029 1551 l 257
 847 1551 l 257
905 1551 m 257
 905 1359 l 257
 1983 1359 l 257
 1983 1551 l 257
 905 1551 l 257
72 959 m 257
 72 756 l 257
 1880 756 l 257
 1880 959 l 257
 72 959 l 257
EndSplineSet
EndChar

StartChar: five
Encoding: 445 53 445
GlifName: five
Width: 2048
VWidth: 0
GlyphClass: 2
Flags: W
LayerCount: 2
Fore
SplineSet
1796 759 m 257
 1796 198 l 257
 59 198 l 257
 59 0 l 257
 2001 0 l 257
 2001 959 l 257
 260 959 l 257
 260 1352 l 257
 2011 1352 l 257
 2011 1548 l 257
 60 1548 l 257
 60 759 l 257
 1796 759 l 257
EndSplineSet
Substitution2: "supsSuperscriptinLatinlookup16 subtable" uni2075
EndChar

StartChar: four
Encoding: 447 52 447
GlifName: four
Width: 2048
VWidth: 0
GlyphClass: 2
Flags: W
LayerCount: 2
Fore
SplineSet
91 761 m 257
 1757 761 l 257
 1757 7 l 257
 1953 7 l 257
 1953 1548 l 257
 1754 1548 l 257
 1754 961 l 257
 291 961 l 257
 291 1548 l 257
 91 1548 l 257
 91 761 l 257
EndSplineSet
Substitution2: "supsSuperscriptinLatinlookup16 subtable" uni2074
EndChar

StartChar: franc
Encoding: 448 8355 448
GlifName: franc
Width: 2048
VWidth: 0
GlyphClass: 2
Flags: W
LayerCount: 2
Fore
SplineSet
586 565 m 257
 586 362 l 257
 1134 362 l 257
 1134 565 l 257
 586 565 l 257
726 1548 m 257
 726 0 l 257
 926 0 l 257
 926 1548 l 257
 726 1548 l 257
828 1548 m 257
 828 1347 l 257
 1462 1347 l 257
 1462 1548 l 257
 828 1548 l 257
816 875 m 257
 816 672 l 257
 1366 672 l 257
 1366 875 l 257
 816 875 l 257
EndSplineSet
EndChar

StartChar: g
Encoding: 449 103 449
GlifName: g
Width: 2048
VWidth: 0
GlyphClass: 2
Flags: W
AnchorPoint: "top" 1022 1186 basechar 0
AnchorPoint: "base" 1014 -450 basechar 0
LayerCount: 2
Fore
SplineSet
238 1023 m 257
 238 0 l 257
 430 0 l 257
 430 1023 l 257
 238 1023 l 257
278 1023 m 257
 278 823 l 257
 1794 823 l 257
 1794 1023 l 257
 278 1023 l 257
1622 1023 m 257
 1622 -411 l 257
 1816 -411 l 257
 1816 1023 l 257
 1622 1023 l 257
301 198 m 257
 301 0 l 257
 1758 0 l 257
 1758 198 l 257
 301 198 l 257
232 -214 m 257
 232 -413 l 257
 1767 -413 l 257
 1767 -214 l 257
 232 -214 l 257
EndSplineSet
EndChar

StartChar: gamma
Encoding: 450 947 450
GlifName: gamma
Width: 2048
VWidth: 0
GlyphClass: 2
Flags: W
LayerCount: 2
Fore
SplineSet
923 235 m 257
 923 -398 l 257
 1125 -398 l 257
 1125 235 l 257
 923 235 l 257
160 1026 m 257
 923 197 l 257
 1119 197 l 257
 360 1026 l 257
 160 1026 l 257
1689 1026 m 257
 924 197 l 257
 1123 197 l 257
 1888 1026 l 257
 1689 1026 l 257
EndSplineSet
EndChar

StartChar: uni0263
Encoding: 451 611 451
GlifName: gamma_latin
Width: 2048
VWidth: 0
GlyphClass: 2
Flags: W
LayerCount: 2
Fore
SplineSet
81 935 m 257
 1324 -158 l 257
 1524 -158 l 257
 281 935 l 257
 81 935 l 257
1754 965 m 257
 730 -158 l 257
 929 -158 l 257
 1954 965 l 257
 1754 965 l 257
731 -360 m 257
 1525 -361 l 257
 1525 -158 l 257
 731 -158 l 257
 731 -360 l 257
EndSplineSet
EndChar

StartChar: uni0433
Encoding: 456 1075 456
GlifName: ge-cy
Width: 2048
VWidth: 0
Flags: W
LayerCount: 2
Fore
SplineSet
125 1021 m 257
 125 821 l 257
 1923 821 l 257
 1923 1021 l 257
 125 1021 l 257
129 909 m 257
 129 6 l 257
 329 6 l 257
 329 909 l 257
 129 909 l 257
EndSplineSet
EndChar

StartChar: germandbls
Encoding: 457 223 457
GlifName: germandbls
Width: 2048
VWidth: 0
GlyphClass: 2
Flags: W
LayerCount: 2
Fore
SplineSet
18 1221 m 257
 18 1023 l 257
 525 1023 l 257
 525 1221 l 257
 18 1221 l 257
460 1548 m 257
 460 0 l 257
 666 0 l 257
 666 1548 l 257
 460 1548 l 257
666 1548 m 257
 666 1328 l 257
 1829 1328 l 257
 1829 1548 l 257
 666 1548 l 257
1714 1548 m 257
 1714 1023 l 257
 1913 1023 l 257
 1913 1548 l 257
 1714 1548 l 257
1714 848 m 257
 1714 175 l 257
 1914 175 l 257
 1914 848 l 257
 1714 848 l 257
1315 251 m 257
 1315 40 l 257
 1914 40 l 257
 1914 251 l 257
 1315 251 l 257
1378 1224 m 257
 1378 1027 l 257
 1913 1020 l 257
 1913 1223 l 257
 1378 1224 l 257
1378 897 m 257
 1378 694 l 257
 1914 694 l 257
 1914 897 l 257
 1378 897 l 257
1029 1222 m 257
 1029 697 l 257
 1378 698 l 257
 1378 1223 l 257
 1029 1222 l 257
EndSplineSet
EndChar

StartChar: uni0491
Encoding: 458 1169 458
GlifName: geupturn-cy
Width: 2048
VWidth: 0
Flags: W
LayerCount: 2
Fore
SplineSet
125 1023 m 257
 125 823 l 257
 1923 823 l 257
 1923 1023 l 257
 125 1023 l 257
129 911 m 257
 129 6 l 257
 329 6 l 257
 329 911 l 257
 129 911 l 257
1720 1234 m 257
 1720 828 l 257
 1922 828 l 257
 1922 1234 l 257
 1720 1234 l 257
EndSplineSet
EndChar

StartChar: uni0294
Encoding: 461 660 461
GlifName: glottalstop
Width: 2048
VWidth: 0
GlyphClass: 2
Flags: W
LayerCount: 2
Fore
SplineSet
804 1543 m 257
 804 1343 l 257
 1332 1343 l 257
 1332 1543 l 257
 804 1543 l 257
1132 1543 m 257
 1132 1028 l 257
 1332 1028 l 257
 1332 1543 l 257
 1132 1543 l 257
872 1073 m 257
 872 873 l 257
 1332 873 l 257
 1332 1073 l 257
 872 1073 l 257
859 1073 m 257
 859 167 l 257
 1059 167 l 257
 1059 1073 l 257
 859 1073 l 257
EndSplineSet
EndChar

StartChar: uni02C0
Encoding: 462 704 462
GlifName: glottalstopmod
Width: 2048
VWidth: 0
GlyphClass: 2
Flags: W
LayerCount: 2
Fore
SplineSet
804 1543 m 257
 804 1343 l 257
 1332 1343 l 257
 1332 1543 l 257
 804 1543 l 257
1132 1543 m 257
 1132 1028 l 257
 1332 1028 l 257
 1332 1543 l 257
 1132 1543 l 257
872 1073 m 257
 872 873 l 257
 1332 873 l 257
 1332 1073 l 257
 872 1073 l 257
859 1073 m 257
 859 572 l 257
 1059 572 l 257
 1059 1073 l 257
 859 1073 l 257
EndSplineSet
EndChar

StartChar: uni0295
Encoding: 463 661 463
GlifName: glottalstopreversed
Width: 2048
VWidth: 0
GlyphClass: 2
Flags: W
LayerCount: 2
Fore
SplineSet
1332 1543 m 257
 804 1543 l 257
 804 1343 l 257
 1332 1343 l 257
 1332 1543 l 257
1004 1543 m 257
 804 1543 l 257
 804 1028 l 257
 1004 1028 l 257
 1004 1543 l 257
1264 1073 m 257
 804 1073 l 257
 804 873 l 257
 1264 873 l 257
 1264 1073 l 257
1277 1073 m 257
 1077 1073 l 257
 1077 167 l 257
 1277 167 l 257
 1277 1073 l 257
EndSplineSet
EndChar

StartChar: grave
Encoding: 465 96 465
GlifName: grave
Width: 2048
VWidth: 0
GlyphClass: 2
Flags: W
LayerCount: 2
Fore
SplineSet
877 1358 m 257
 1022 1057 l 257
 1171 1129 l 257
 1025 1430 l 257
 877 1358 l 257
EndSplineSet
EndChar

StartChar: gravecomb
Encoding: 466 768 466
GlifName: gravecomb
Width: 0
VWidth: 0
GlyphClass: 4
Flags: W
AnchorPoint: "top" 7 1152 mark 0
LayerCount: 2
Fore
SplineSet
-236 1515 m 257
 -70 1199 l 257
 123 1287 l 257
 -43 1604 l 257
 -236 1515 l 257
EndSplineSet
EndChar

StartChar: greater
Encoding: 468 62 468
GlifName: greater
Width: 2048
VWidth: 0
GlyphClass: 2
Flags: W
LayerCount: 2
Fore
SplineSet
1436 777 m 257
 614 1013 l 257
 614 807 l 257
 1437 568 l 257
 1436 777 l 257
1436 777 m 257
 616 319 l 257
 616 122 l 257
 1437 568 l 257
 1436 777 l 257
EndSplineSet
EndChar

StartChar: greaterequal
Encoding: 469 8805 469
GlifName: greaterequal
Width: 2048
VWidth: 0
GlyphClass: 2
Flags: W
HStem: 807 206<210 210>
LayerCount: 2
Fore
SplineSet
0 -5 m 257
 0 -157 l 257
 2048 -157 l 257
 2048 -5 l 257
 0 -5 l 257
1854 777 m 257
 210 1013 l 257
 210 807 l 257
 1858 568 l 257
 1854 777 l 257
1854 777 m 257
 214 319 l 257
 214 122 l 257
 1858 568 l 257
 1854 777 l 257
EndSplineSet
PickledDataWithLists: "(dp0
Vcom.fontlab.hintData
p1
(dp2
Vhhints
p3
(lp4
(dp5
Vposition
p6
I807
sVwidth
p7
I206
sass."
EndChar

StartChar: guillemotleft
Encoding: 472 171 472
GlifName: guillemotleft
Width: 2048
VWidth: 0
GlyphClass: 2
Flags: W
LayerCount: 2
Fore
SplineSet
632 609 m 257
 632 454 l 257
 1001 631 l 257
 1001 784 l 257
 632 609 l 257
632 609 m 257
 632 454 l 257
 1000 122 l 257
 1000 268 l 257
 632 609 l 257
1047 609 m 257
 1047 454 l 257
 1416 631 l 257
 1416 784 l 257
 1047 609 l 257
1047 609 m 257
 1047 454 l 257
 1415 122 l 257
 1415 268 l 257
 1047 609 l 257
EndSplineSet
EndChar

StartChar: guillemotright
Encoding: 473 187 473
GlifName: guillemotright
Width: 2048
VWidth: 0
GlyphClass: 2
Flags: W
LayerCount: 2
Fore
SplineSet
1416 609 m 257
 1047 784 l 257
 1047 631 l 257
 1416 454 l 257
 1416 609 l 257
1416 609 m 257
 1048 268 l 257
 1048 122 l 257
 1416 454 l 257
 1416 609 l 257
1001 609 m 257
 632 784 l 257
 632 631 l 257
 1001 454 l 257
 1001 609 l 257
1001 609 m 257
 633 268 l 257
 633 122 l 257
 1001 454 l 257
 1001 609 l 257
EndSplineSet
EndChar

StartChar: guilsinglleft
Encoding: 474 8249 474
GlifName: guilsinglleft
Width: 2048
VWidth: 0
GlyphClass: 2
Flags: W
LayerCount: 2
Fore
SplineSet
614 777 m 257
 614 569 l 257
 1432 807 l 257
 1432 1013 l 257
 614 777 l 257
614 777 m 257
 614 569 l 257
 1430 122 l 257
 1430 319 l 257
 614 777 l 257
EndSplineSet
EndChar

StartChar: guilsinglright
Encoding: 475 8250 475
GlifName: guilsinglright
Width: 2048
VWidth: 0
GlyphClass: 2
Flags: W
LayerCount: 2
Fore
SplineSet
1436 777 m 257
 614 1013 l 257
 614 807 l 257
 1437 568 l 257
 1436 777 l 257
1436 777 m 257
 616 319 l 257
 616 122 l 257
 1437 568 l 257
 1436 777 l 257
EndSplineSet
EndChar

StartChar: h
Encoding: 476 104 476
GlifName: h
Width: 2048
VWidth: 0
GlyphClass: 2
Flags: W
AnchorPoint: "top" 248 1646 basechar 0
AnchorPoint: "base" 1014 -49 basechar 0
LayerCount: 2
Fore
SplineSet
186 1537 m 257
 186 6 l 257
 386 6 l 257
 386 1537 l 257
 186 1537 l 257
323 1023 m 257
 323 826 l 257
 1854 826 l 257
 1854 1023 l 257
 323 1023 l 257
1663 1023 m 257
 1663 0 l 257
 1862 0 l 257
 1862 1023 l 257
 1663 1023 l 257
EndSplineSet
EndChar

StartChar: uni044A
Encoding: 477 1098 477
GlifName: hardsign-cy
Width: 2048
VWidth: 0
Flags: W
AnchorPoint: "base" 1014 -78 basechar 0
AnchorPoint: "top" 258 1604 basechar 0
LayerCount: 2
Fore
SplineSet
887 1023 m 257
 887 0 l 257
 1086 0 l 257
 1086 1023 l 257
 887 1023 l 257
1048 584 m 257
 1048 385 l 257
 1840 385 l 257
 1840 584 l 257
 1048 584 l 257
1780 584 m 257
 1780 0 l 257
 1979 0 l 257
 1979 584 l 257
 1780 584 l 257
1012 207 m 257
 1012 0 l 257
 1900 0 l 257
 1900 207 l 257
 1012 207 l 257
122 1023 m 257
 122 824 l 257
 902 824 l 257
 902 1023 l 257
 122 1023 l 257
EndSplineSet
EndChar

StartChar: hbar
Encoding: 478 295 478
GlifName: hbar
Width: 2048
VWidth: 0
GlyphClass: 2
Flags: W
LayerCount: 2
Fore
SplineSet
302 1537 m 257
 302 6 l 257
 502 6 l 257
 502 1537 l 257
 302 1537 l 257
439 1023 m 257
 439 826 l 257
 1866 826 l 257
 1866 1023 l 257
 439 1023 l 257
1675 1023 m 257
 1675 0 l 257
 1874 0 l 257
 1874 1023 l 257
 1675 1023 l 257
38 1429 m 257
 38 1221 l 257
 750 1221 l 257
 750 1429 l 257
 38 1429 l 257
EndSplineSet
EndChar

StartChar: hookabovecomb
Encoding: 483 777 483
GlifName: hookabovecomb
Width: 0
VWidth: 0
GlyphClass: 4
Flags: W
HStem: 1190 584
VStem: -230 460
AnchorPoint: "top" -4 781 mark 0
LayerCount: 2
Fore
SplineSet
-95 1157 m 257
 -95 1052 l 257
 115 1052 l 257
 115 1157 l 257
 -95 1157 l 257
21 1157 m 257
 21 953 l 257
 117 953 l 257
 117 1157 l 257
 21 1157 l 257
-55 965 m 257
 -55 867 l 257
 117 867 l 257
 117 965 l 257
 -55 965 l 257
-55 965 m 257
 -55 808 l 257
 29 808 l 257
 29 965 l 257
 -55 965 l 257
EndSplineSet
PickledDataWithLists: "(dp0
Vcom.fontlab.hintData
p1
(dp2
Vhhints
p3
(lp4
(dp5
Vposition
p6
I1190
sVwidth
p7
I584
sasVvhints
p8
(lp9
(dp10
g6
I-230
sg7
I460
sass."
EndChar

StartChar: uni20B4
Encoding: 485 8372 485
GlifName: hryvnia
Width: 2048
VWidth: 0
GlyphClass: 2
Flags: W
LayerCount: 2
Fore
SplineSet
1430 1537 m 257
 832 1537 l 257
 832 1336 l 257
 1430 1336 l 257
 1430 1537 l 257
1430 1542 m 257
 1228 1542 l 257
 1228 1028 l 257
 1430 1028 l 257
 1430 1542 l 257
1402 199 m 257
 694 199 l 257
 694 0 l 257
 1402 0 l 257
 1402 199 l 257
859 0 m 257
 859 355 l 257
 658 355 l 257
 658 0 l 257
 859 0 l 257
1430 1028 m 257
 1228 1028 l 257
 658 355 l 257
 859 355 l 257
 1430 1028 l 257
611 921 m 257
 611 695 l 257
 1437 695 l 257
 1437 921 l 257
 611 921 l 257
611 632 m 257
 611 424 l 257
 1437 424 l 257
 1437 632 l 257
 611 632 l 257
EndSplineSet
EndChar

StartChar: hungarumlaut
Encoding: 489 733 489
GlifName: hungarumlaut
Width: 2048
VWidth: 0
GlyphClass: 2
Flags: W
HStem: 1145 248<752 896 752 896 1152 1296>
LayerCount: 2
Fore
SplineSet
752 1145 m 257
 896 1145 l 257
 896 1393 l 257
 752 1393 l 257
 752 1145 l 257
1152 1145 m 257
 1296 1145 l 257
 1296 1393 l 257
 1152 1393 l 257
 1152 1145 l 257
EndSplineSet
PickledDataWithLists: "(dp0
Vcom.fontlab.hintData
p1
(dp2
Vhhints
p3
(lp4
(dp5
Vposition
p6
I1145
sVwidth
p7
I248
sass."
EndChar

StartChar: hyphen
Encoding: 490 45 490
GlifName: hyphen
Width: 2048
VWidth: 0
GlyphClass: 2
Flags: W
LayerCount: 2
Fore
SplineSet
611 808 m 257
 611 600 l 257
 1437 600 l 257
 1437 808 l 257
 611 808 l 257
EndSplineSet
EndChar

StartChar: i
Encoding: 492 105 492
GlifName: i
Width: 2048
VWidth: 0
GlyphClass: 2
Flags: W
AnchorPoint: "top" 930 1454 basechar 0
AnchorPoint: "base" 953 -64 basechar 0
LayerCount: 2
Fore
SplineSet
923 1018 m 257
 923 139 l 257
 1125 139 l 257
 1125 1018 l 257
 923 1018 l 257
153 204 m 257
 153 6 l 257
 1895 6 l 257
 1895 204 l 257
 153 204 l 257
906 1333 m 257
 906 1133 l 257
 1113 1133 l 257
 1113 1333 l 257
 906 1333 l 257
497 1018 m 257
 497 816 l 257
 1117 816 l 257
 1117 1018 l 257
 497 1018 l 257
EndSplineSet
Substitution2: "Single Substitution lookup 5 subtable" dotlessi
EndChar

StartChar: uni026A
Encoding: 495 618 495
GlifName: icapitalsmall
Width: 2048
VWidth: 0
GlyphClass: 2
Flags: W
AnchorPoint: "top" 1027 1618 basechar 0
AnchorPoint: "base" 1029 -86 basechar 0
LayerCount: 2
Fore
SplineSet
144 1019 m 257
 144 817 l 257
 1889 817 l 257
 1889 1019 l 257
 144 1019 l 257
975 950 m 257
 975 84 l 257
 1175 84 l 257
 1175 950 l 257
 975 950 l 257
124 204 m 257
 124 6 l 257
 1924 6 l 257
 1924 204 l 257
 124 204 l 257
EndSplineSet
EndChar

StartChar: uni0438
Encoding: 500 1080 500
GlifName: ii-cy
Width: 2048
VWidth: 0
Flags: W
LayerCount: 2
Fore
SplineSet
34 1019 m 257
 34 0 l 257
 234 0 l 257
 234 1019 l 257
 34 1019 l 257
1813 1019 m 257
 1813 0 l 257
 2013 0 l 257
 2013 1019 l 257
 1813 1019 l 257
1813 1019 m 257
 34 0 l 257
 234 0 l 257
 2014 1019 l 257
 1813 1019 l 257
EndSplineSet
EndChar

StartChar: Delta
Encoding: 505 8710 505
GlifName: increment
Width: 2048
VWidth: 0
GlyphClass: 2
Flags: W
LayerCount: 2
Fore
SplineSet
228 197 m 257
 125 -3 l 257
 1923 -3 l 257
 1818 197 l 257
 228 197 l 257
1941 0 m 257
 1169 1548 l 257
 948 1548 l 257
 1740 0 l 257
 1941 0 l 257
307 0 m 257
 1044 1548 l 257
 821 1548 l 257
 106 0 l 257
 307 0 l 257
EndSplineSet
EndChar

StartChar: infinity
Encoding: 506 8734 506
GlifName: infinity
Width: 2048
VWidth: 0
GlyphClass: 2
Flags: W
LayerCount: 2
Fore
SplineSet
29 1023 m 257
 29 826 l 257
 834 826 l 257
 834 1023 l 257
 29 1023 l 257
29 984 m 257
 29 0 l 257
 231 0 l 257
 231 984 l 257
 29 984 l 257
135 201 m 257
 135 0 l 257
 855 1 l 257
 855 206 l 257
 135 201 l 257
1165 1 m 257
 1351 54 l 257
 834 1023 l 257
 652 939 l 257
 1165 1 l 257
855 1 m 257
 1440 961 l 257
 1253 1044 l 257
 675 88 l 257
 855 1 l 257
1252 1044 m 257
 1252 847 l 257
 1970 853 l 257
 1970 1050 l 257
 1252 1044 l 257
1766 1048 m 257
 1772 0 l 257
 1974 0 l 257
 1968 1048 l 257
 1766 1048 l 257
1163 200 m 257
 1163 -1 l 257
 1950 0 l 257
 1950 201 l 257
 1163 200 l 257
EndSplineSet
EndChar

StartChar: integral
Encoding: 507 8747 507
GlifName: integral
Width: 2048
VWidth: 0
GlyphClass: 2
Flags: W
LayerCount: 2
Fore
SplineSet
1046 1641 m 257
 823 -390 l 257
 1016 -390 l 257
 1239 1641 l 257
 1046 1641 l 257
351 -240 m 257
 351 -390 l 257
 982 -390 l 257
 982 -240 l 257
 351 -240 l 257
1118 1641 m 257
 1118 1507 l 257
 1778 1504 l 257
 1778 1638 l 257
 1118 1641 l 257
EndSplineSet
EndChar

StartChar: iota
Encoding: 510 953 510
GlifName: iota
Width: 2048
VWidth: 0
GlyphClass: 2
Flags: W
LayerCount: 2
Fore
SplineSet
808 1018 m 257
 808 239 l 257
 1010 239 l 257
 1010 1018 l 257
 808 1018 l 257
808 304 m 257
 808 106 l 257
 1816 6 l 257
 1816 204 l 257
 808 304 l 257
EndSplineSet
EndChar

StartChar: uni0269
Encoding: 511 617 511
GlifName: iota_latin
Width: 2048
VWidth: 0
GlyphClass: 2
Flags: W
AnchorPoint: "top" 1021 1160 basechar 0
LayerCount: 2
Fore
SplineSet
808 1018 m 257
 808 239 l 257
 1010 239 l 257
 1010 1018 l 257
 808 1018 l 257
808 304 m 257
 808 106 l 257
 1816 6 l 257
 1816 204 l 257
 808 304 l 257
EndSplineSet
EndChar

StartChar: uni0475
Encoding: 522 1141 522
GlifName: izhitsa-cy
Width: 2048
VWidth: 0
Flags: W
AnchorPoint: "top" 1020 1630 basechar 0
AnchorPoint: "base" 1041 -60 basechar 0
LayerCount: 2
Fore
SplineSet
118 1024 m 257
 890 0 l 257
 1112 0 l 257
 320 1024 l 257
 118 1024 l 257
1597 909 m 257
 1016 0 l 257
 1238 0 l 257
 1799 909 l 257
 1597 909 l 257
1587 886 m 257
 1937 919 l 257
 2011 1104 l 257
 1662 1072 l 257
 1587 886 l 257
EndSplineSet
EndChar

StartChar: j
Encoding: 523 106 523
GlifName: j
Width: 2048
VWidth: 0
GlyphClass: 2
Flags: W
AnchorPoint: "top" 1749 1556 basechar 0
AnchorPoint: "base" 1004 -497 basechar 0
LayerCount: 2
Fore
SplineSet
1640 1023 m 257
 1640 -411 l 257
 1838 -411 l 257
 1838 1023 l 257
 1640 1023 l 257
210 -209 m 257
 210 -406 l 257
 1740 -406 l 257
 1740 -209 l 257
 210 -209 l 257
210 -6 m 257
 210 -351 l 257
 410 -351 l 257
 410 -6 l 257
 210 -6 l 257
1636 1483 m 257
 1636 1281 l 257
 1860 1281 l 257
 1860 1483 l 257
 1636 1483 l 257
EndSplineSet
Substitution2: "Single Substitution lookup 5 subtable" uni0237
EndChar

StartChar: uni029D
Encoding: 526 669 526
GlifName: jcrossedtail
Width: 2048
VWidth: 0
GlyphClass: 2
Flags: W
AnchorPoint: "top" 1749 1556 basechar 0
AnchorPoint: "base" 1004 -497 basechar 0
LayerCount: 2
Fore
SplineSet
1640 1023 m 257
 1640 -411 l 257
 1838 -411 l 257
 1838 1023 l 257
 1640 1023 l 257
210 -209 m 257
 210 -406 l 257
 1740 -406 l 257
 1740 -209 l 257
 210 -209 l 257
210 -6 m 257
 210 -351 l 257
 410 -351 l 257
 410 -6 l 257
 210 -6 l 257
1636 1483 m 257
 1636 1281 l 257
 1860 1281 l 257
 1860 1483 l 257
 1636 1483 l 257
209.501 -33 m 257
 2015.16 -33 l 257
 2015.16 175 l 257
 209.501 175 l 257
 209.501 -33 l 257
EndSplineSet
EndChar

StartChar: k
Encoding: 530 107 530
GlifName: k
Width: 2048
VWidth: 0
GlyphClass: 2
Flags: W
AnchorPoint: "base" 1017 -83 basechar 0
AnchorPoint: "top" 220 1638 basechar 0
LayerCount: 2
Fore
SplineSet
103 1537 m 257
 103 5 l 257
 303 5 l 257
 303 1537 l 257
 103 1537 l 257
152 516 m 257
 201 298 l 257
 1888 1023 l 257
 1671 1023 l 257
 152 516 l 257
467 596 m 257
 257 483 l 257
 1707 0 l 257
 1945 0 l 257
 467 596 l 257
EndSplineSet
EndChar

StartChar: uni03D7
Encoding: 531 983 531
GlifName: kaiS_ymbol
Width: 2048
VWidth: 0
GlyphClass: 2
Flags: W
LayerCount: 2
Fore
SplineSet
53 1017 m 257
 56 819 l 257
 873 709 l 257
 995 909 l 257
 53 1017 l 257
810 908 m 257
 258 22 l 257
 442 22 l 257
 994 908 l 257
 810 908 l 257
1465 1014 m 257
 267 18 l 257
 451 18 l 257
 1649 1014 l 257
 1465 1014 l 257
1464 1013 m 257
 1160 -5 l 257
 1344 -5 l 257
 1648 1013 l 257
 1464 1013 l 257
1269 193 m 257
 1272 -5 l 257
 1869 -2 l 257
 1915 193 l 257
 1269 193 l 257
1210 -183 m 257
 1253 -346 l 257
 1800 -270 l 257
 1843 -104 l 257
 1210 -183 l 257
1907 139 m 257
 1728 185 l 257
 1639 -163 l 257
 1809 -239 l 257
 1907 139 l 257
EndSplineSet
EndChar

StartChar: kgreenlandic
Encoding: 533 312 533
GlifName: kgreenlandic
Width: 2048
VWidth: 0
GlyphClass: 2
Flags: W
AnchorPoint: "base" 1037 -145 basechar 0
AnchorPoint: "top" 140 1110 basechar 0
LayerCount: 2
Fore
SplineSet
42 1022 m 257
 42 5 l 257
 242 5 l 257
 242 1022 l 257
 42 1022 l 257
91 516 m 257
 140 298 l 257
 2036 1023 l 257
 1819 1023 l 257
 91 516 l 257
424 631 m 257
 196 483 l 257
 1789 0 l 257
 2027 0 l 257
 424 631 l 257
EndSplineSet
EndChar

StartChar: l
Encoding: 538 108 538
GlifName: l
Width: 2048
VWidth: 0
GlyphClass: 2
Flags: W
AnchorPoint: "base" 1027 -85 basechar 0
AnchorPoint: "top" 1009 1637 basechar 0
LayerCount: 2
Fore
SplineSet
207 209 m 257
 207 9 l 257
 1841 9 l 257
 1841 209 l 257
 207 209 l 257
924 1548 m 257
 924 86 l 257
 1124 86 l 257
 1124 1548 l 257
 924 1548 l 257
268 1548 m 257
 268 1349 l 257
 1003 1349 l 257
 1003 1548 l 257
 268 1548 l 257
EndSplineSet
EndChar

StartChar: lambda
Encoding: 541 955 541
GlifName: lambda
Width: 2048
VWidth: 0
GlyphClass: 2
Flags: W
LayerCount: 2
Fore
SplineSet
181 0 m 257
 380 0 l 257
 1312 777 l 257
 1105 777 l 257
 181 0 l 257
1667 0 m 257
 1867 0 l 257
 1127 1047 l 257
 920 1047 l 257
 1667 0 l 257
EndSplineSet
EndChar

StartChar: uni20BE
Encoding: 542 8382 542
GlifName: lari
Width: 2048
VWidth: 0
GlyphClass: 2
Flags: W
LayerCount: 2
Fore
SplineSet
623 204 m 257
 623 2 l 257
 1458 2 l 257
 1458 204 l 257
 623 204 l 257
775 1033 m 257
 779 831 l 257
 1407 831 l 257
 1403 1033 l 257
 775 1033 l 257
897 1159 m 257
 897 711 l 257
 1027 711 l 257
 1027 1159 l 257
 897 1159 l 257
1404 1033 m 257
 1207 984 l 257
 1373 579 l 257
 1542 605 l 257
 1404 1033 l 257
574 599 m 257
 700 469 l 257
 902 902 l 257
 776 1032 l 257
 574 599 l 257
752 200 m 257
 935 199 l 257
 757 606 l 257
 576 602 l 257
 752 200 l 257
1085 1153 m 257
 1085 705 l 257
 1215 705 l 257
 1215 1153 l 257
 1085 1153 l 257
EndSplineSet
EndChar

StartChar: lcaron
Encoding: 543 318 543
GlifName: lcaron
Width: 2048
VWidth: 0
GlyphClass: 2
Flags: W
LayerCount: 2
Fore
SplineSet
133 209 m 257
 133 9 l 257
 1791 9 l 257
 1791 209 l 257
 133 209 l 257
862 1548 m 257
 862 86 l 257
 1062 86 l 257
 1062 1548 l 257
 862 1548 l 257
194 1548 m 257
 194 1349 l 257
 941 1349 l 257
 941 1548 l 257
 194 1548 l 257
1309 1496 m 257
 1309 1264 l 257
 1439 1264 l 257
 1439 1496 l 257
 1309 1496 l 257
EndSplineSet
EndChar

StartChar: uni0234
Encoding: 545 564 545
GlifName: lcurl
Width: 2048
VWidth: 0
GlyphClass: 2
Flags: W
AnchorPoint: "base" 1027 -85 basechar 0
AnchorPoint: "top" 1009 1637 basechar 0
LayerCount: 2
Fore
SplineSet
1120 286 m 257
 1120 86 l 257
 1854 349 l 257
 1854 549 l 257
 1120 286 l 257
924 1548 m 257
 924 86 l 257
 1121 86 l 257
 1121 1548 l 257
 924 1548 l 257
268 1548 m 257
 268 1349 l 257
 1003 1349 l 257
 1003 1548 l 257
 268 1548 l 257
189 499 m 257
 189 299 l 257
 1858 361 l 257
 1858 561 l 257
 189 499 l 257
EndSplineSet
EndChar

StartChar: arrowleft
Encoding: 547 8592 547
GlifName: leftA_rrow
Width: 2048
VWidth: 0
GlyphClass: 2
Flags: W
LayerCount: 2
Fore
SplineSet
319 870 m 257
 319 659 l 257
 1944 659 l 257
 1944 870 l 257
 319 870 l 257
568 1091 m 257
 88 759 l 257
 330 759 l 257
 810 1091 l 257
 568 1091 l 257
88 759 m 257
 587 426 l 257
 829 426 l 257
 331 759 l 257
 88 759 l 257
EndSplineSet
EndChar

StartChar: uni25C2
Encoding: 548 9666 548
GlifName: leftB_lackS_mallT_riangle
Width: 2048
VWidth: 0
GlyphClass: 2
Flags: W
LayerCount: 2
Fore
SplineSet
737 666 m 257
 1150 426 l 257
 1153 910 l 257
 737 666 l 257
EndSplineSet
EndChar

StartChar: uni25C0
Encoding: 549 9664 549
GlifName: leftB_lackT_riangle
Width: 2048
VWidth: 0
GlyphClass: 2
Flags: W
LayerCount: 2
Fore
SplineSet
569 654 m 257
 1257 254 l 257
 1261 1062 l 257
 569 654 l 257
EndSplineSet
EndChar

StartChar: arrowboth
Encoding: 550 8596 550
GlifName: leftR_ightA_rrow
Width: 2048
VWidth: 0
GlyphClass: 2
Flags: W
LayerCount: 2
Fore
SplineSet
645 855 m 257
 645 644 l 257
 1358 644 l 257
 1358 855 l 257
 645 855 l 257
748 1076 m 257
 578 744 l 257
 763 744 l 257
 934 1076 l 257
 748 1076 l 257
578 744 m 257
 764 411 l 257
 948 411 l 257
 764 744 l 257
 578 744 l 257
1341 414 m 257
 1512 746 l 257
 1327 746 l 257
 1156 414 l 257
 1341 414 l 257
1525 746 m 257
 1339 1079 l 257
 1154 1079 l 257
 1339 746 l 257
 1525 746 l 257
EndSplineSet
EndChar

StartChar: uni25C3
Encoding: 551 9667 551
GlifName: leftW_hiteS_mallT_riangle
Width: 2048
VWidth: 0
GlyphClass: 2
Flags: W
LayerCount: 2
Fore
SplineSet
743 661 m 257
 1156 421 l 257
 1159 905 l 257
 743 661 l 257
801 661 m 257
 1133 857 l 257
 1132 469 l 257
 801 661 l 257
EndSplineSet
EndChar

StartChar: uni25C1
Encoding: 552 9665 552
GlifName: leftW_hiteT_riangle
Width: 2048
VWidth: 0
GlyphClass: 2
Flags: W
LayerCount: 2
Fore
SplineSet
645 674 m 257
 1333 274 l 257
 1337 1082 l 257
 645 674 l 257
741 675 m 257
 1295 1001 l 257
 1292 355 l 257
 741 675 l 257
EndSplineSet
EndChar

StartChar: less
Encoding: 553 60 553
GlifName: less
Width: 2048
VWidth: 0
GlyphClass: 2
Flags: W
LayerCount: 2
Fore
SplineSet
614 777 m 257
 614 569 l 257
 1432 807 l 257
 1432 1013 l 257
 614 777 l 257
614 777 m 257
 614 569 l 257
 1430 122 l 257
 1430 319 l 257
 614 777 l 257
EndSplineSet
EndChar

StartChar: lessequal
Encoding: 554 8804 554
GlifName: lessequal
Width: 2048
VWidth: 0
GlyphClass: 2
Flags: W
HStem: 807 206<1852 1852>
LayerCount: 2
Fore
SplineSet
0 -5 m 257
 0 -157 l 257
 2048 -157 l 257
 2048 -5 l 257
 0 -5 l 257
216 777 m 257
 216 569 l 257
 1852 807 l 257
 1852 1013 l 257
 216 777 l 257
216 777 m 257
 216 569 l 257
 1848 122 l 257
 1848 319 l 257
 216 777 l 257
EndSplineSet
PickledDataWithLists: "(dp0
Vcom.fontlab.hintData
p1
(dp2
Vhhints
p3
(lp4
(dp5
Vposition
p6
I807
sVwidth
p7
I206
sass."
EndChar

StartChar: lira
Encoding: 555 8356 555
GlifName: lira
Width: 2048
VWidth: 0
GlyphClass: 2
Flags: W
LayerCount: 2
Fore
SplineSet
607 770 m 257
 607 571 l 257
 1333 571 l 257
 1333 770 l 257
 607 770 l 257
934 1543 m 257
 934 1344 l 257
 1225 1344 l 257
 1225 1543 l 257
 934 1543 l 257
607 1064 m 257
 607 865 l 257
 1333 865 l 257
 1333 1064 l 257
 607 1064 l 257
890 1542 m 257
 890 0 l 257
 1088 0 l 257
 1088 1542 l 257
 890 1542 l 257
715 202 m 257
 715 0 l 257
 1441 0 l 257
 1441 202 l 257
 715 202 l 257
EndSplineSet
EndChar

StartChar: uni2113
Encoding: 556 8467 556
GlifName: literS_ign
Width: 2048
VWidth: 0
GlyphClass: 2
Flags: W
LayerCount: 2
Fore
SplineSet
927 290 m 257
 927 90 l 257
 1341 9 l 257
 1341 209 l 257
 927 290 l 257
924 1548 m 257
 924 86 l 257
 1124 86 l 257
 1124 1548 l 257
 924 1548 l 257
1067 1549 m 257
 1064 1340 l 257
 1315 1335 l 257
 1318 1544 l 257
 1067 1549 l 257
1318 1545 m 257
 930 123 l 257
 1122 70 l 257
 1511 1492 l 257
 1318 1545 l 257
EndSplineSet
EndChar

StartChar: uni0459
Encoding: 557 1113 557
GlifName: lje-cy
Width: 2048
VWidth: 0
Flags: W
LayerCount: 2
Fore
SplineSet
1233 1024 m 257
 1233 1 l 257
 1433 1 l 257
 1433 1024 l 257
 1233 1024 l 257
547 1024 m 257
 547 824 l 257
 1421 824 l 257
 1421 1024 l 257
 547 1024 l 257
537 1024 m 257
 227 0 l 257
 427 0 l 257
 737 1024 l 257
 537 1024 l 257
33 201 m 257
 33 1 l 257
 427 1 l 257
 427 201 l 257
 33 201 l 257
1432 202 m 257
 1432 2 l 257
 1954 2 l 257
 1954 202 l 257
 1432 202 l 257
1432 635 m 257
 1432 435 l 257
 1954 435 l 257
 1954 635 l 257
 1432 635 l 257
1750 198 m 257
 1950 198 l 257
 1950 448 l 257
 1750 448 l 257
 1750 198 l 257
EndSplineSet
EndChar

StartChar: logicalnot
Encoding: 559 172 559
GlifName: logicalnot
Width: 2048
VWidth: 0
GlyphClass: 2
Flags: W
LayerCount: 2
Fore
SplineSet
1179 935 m 257
 1179 640 l 257
 1289 640 l 257
 1289 935 l 257
 1179 935 l 257
749 935 m 257
 749 835 l 257
 1299 835 l 257
 1299 935 l 257
 749 935 l 257
EndSplineSet
EndChar

StartChar: longs
Encoding: 560 383 560
GlifName: longs
Width: 2048
VWidth: 0
GlyphClass: 2
Flags: W
LayerCount: 2
Fore
SplineSet
18 1221 m 257
 18 1023 l 257
 525 1023 l 257
 525 1221 l 257
 18 1221 l 257
460 1548 m 257
 460 0 l 257
 666 0 l 257
 666 1548 l 257
 460 1548 l 257
666 1548 m 257
 666 1328 l 257
 1829 1328 l 257
 1829 1548 l 257
 666 1548 l 257
EndSplineSet
EndChar

StartChar: lozenge
Encoding: 562 9674 562
GlifName: lozenge
Width: 2048
VWidth: 0
GlyphClass: 2
Flags: W
LayerCount: 2
Fore
SplineSet
836 809 m 257
 1024 382 l 257
 1231 800 l 257
 1025 1235 l 257
 836 809 l 257
EndSplineSet
EndChar

StartChar: lslash
Encoding: 563 322 563
GlifName: lslash
Width: 2048
VWidth: 0
GlyphClass: 2
Flags: W
LayerCount: 2
Fore
SplineSet
195 209 m 257
 195 9 l 257
 1853 9 l 257
 1853 209 l 257
 195 209 l 257
924 1548 m 257
 924 86 l 257
 1124 86 l 257
 1124 1548 l 257
 924 1548 l 257
256 1548 m 257
 256 1349 l 257
 1003 1349 l 257
 1003 1548 l 257
 256 1548 l 257
1839 1213 m 257
 112 830 l 257
 214 656 l 257
 1941 1039 l 257
 1839 1213 l 257
EndSplineSet
EndChar

StartChar: m
Encoding: 564 109 564
GlifName: m
Width: 2048
VWidth: 0
GlyphClass: 2
Flags: W
AnchorPoint: "base" 1021 -112 basechar 0
AnchorPoint: "top" 1031 1110 basechar 0
LayerCount: 2
Fore
SplineSet
148 993 m 257
 148 0 l 257
 348 0 l 257
 348 993 l 257
 148 993 l 257
962 972 m 257
 962 0 l 257
 1162 0 l 257
 1162 972 l 257
 962 972 l 257
1778 976 m 257
 1778 0 l 257
 1978 0 l 257
 1978 976 l 257
 1778 976 l 257
70 1023 m 257
 70 826 l 257
 1976 826 l 257
 1976 1023 l 257
 70 1023 l 257
EndSplineSet
EndChar

StartChar: macron
Encoding: 565 175 565
GlifName: macron
Width: 2048
VWidth: 0
GlyphClass: 2
Flags: W
HStem: 980 82
VStem: 744 560<980 980>
LayerCount: 2
Fore
SplineSet
743 1116 m 257
 744 980 l 257
 1304 980 l 257
 1303 1116 l 257
 743 1116 l 257
EndSplineSet
PickledDataWithLists: "(dp0
Vcom.fontlab.hintData
p1
(dp2
Vhhints
p3
(lp4
(dp5
Vposition
p6
I980
sVwidth
p7
I82
sasVvhints
p8
(lp9
(dp10
g6
I744
sg7
I560
sass."
EndChar

StartChar: mu
Encoding: 573 181 573
GlifName: mu
Width: 2048
VWidth: 0
GlyphClass: 2
Flags: W
LayerCount: 2
Fore
SplineSet
1646 935 m 257
 1646 0 l 257
 1846 0 l 257
 1846 935 l 257
 1646 935 l 257
274 200 m 257
 274 0 l 257
 1788 0 l 257
 1788 200 l 257
 274 200 l 257
202 935 m 257
 202 -430 l 257
 402 -430 l 257
 402 935 l 257
 202 935 l 257
EndSplineSet
EndChar

StartChar: multiply
Encoding: 574 215 574
GlifName: multiply
Width: 2048
VWidth: 0
GlyphClass: 2
Flags: W
LayerCount: 2
Fore
SplineSet
91 302 m 257
 414 302 l 257
 1951 1323 l 257
 1640 1323 l 257
 91 302 l 257
93 1325 m 257
 1647 298 l 257
 1958 298 l 257
 417 1325 l 257
 93 1325 l 257
EndSplineSet
EndChar

StartChar: n
Encoding: 575 110 575
GlifName: n
Width: 2048
VWidth: 0
GlyphClass: 2
Flags: W
AnchorPoint: "base" 1046 -74 basechar 0
AnchorPoint: "top" 1008 1148 basechar 0
LayerCount: 2
Fore
SplineSet
314 990 m 257
 314 0 l 257
 514 0 l 257
 514 990 l 257
 314 990 l 257
1712 976 m 257
 1712 0 l 257
 1914 0 l 257
 1914 976 l 257
 1712 976 l 257
134 1023 m 257
 134 826 l 257
 1912 826 l 257
 1912 1023 l 257
 134 1023 l 257
EndSplineSet
EndChar

StartChar: uni0235
Encoding: 580 565 580
GlifName: ncurl
Width: 2048
VWidth: 0
GlyphClass: 2
Flags: W
AnchorPoint: "base" 1046 -74 basechar 0
AnchorPoint: "top" 1008 1148 basechar 0
LayerCount: 2
Fore
SplineSet
173 990 m 257
 173 0 l 257
 373 0 l 257
 373 990 l 257
 173 990 l 257
1418 976 m 257
 1418 0 l 257
 1620 0 l 257
 1620 976 l 257
 1418 976 l 257
-7 1023 m 257
 -7 826 l 257
 1618 826 l 257
 1618 1023 l 257
 -7 1023 l 257
1023 227 m 257
 1023 30 l 257
 1771 321 l 257
 1771 518 l 257
 1023 227 l 257
1616 188 m 257
 1616 0 l 257
 1800 0 l 257
 1800 188 l 257
 1616 188 l 257
1771 519 m 257
 1771 0 l 257
 1973 0 l 257
 1973 519 l 257
 1771 519 l 257
EndSplineSet
EndChar

StartChar: nine
Encoding: 582 57 582
GlifName: nine
Width: 2048
VWidth: 0
GlyphClass: 2
Flags: W
LayerCount: 2
Fore
SplineSet
1805 759 m 257
 1805 200 l 257
 79 200 l 257
 79 0 l 257
 2001 0 l 257
 2001 1554 l 257
 57 1554 l 257
 57 1537 l 257
 57 759 l 257
 1805 759 l 257
1802 959 m 257
 257 959 l 257
 257 1354 l 257
 1802 1354 l 257
 1802 959 l 257
EndSplineSet
Substitution2: "supsSuperscriptinLatinlookup16 subtable" uni2079
EndChar

StartChar: uni045A
Encoding: 583 1114 583
GlifName: nje-cy
Width: 2048
VWidth: 0
Flags: W
LayerCount: 2
Fore
SplineSet
34 1021 m 257
 34 0 l 257
 234 0 l 257
 234 1021 l 257
 34 1021 l 257
956 1021 m 257
 956 0 l 257
 1156 0 l 257
 1156 1021 l 257
 956 1021 l 257
55 661 m 257
 55 461 l 257
 1924 461 l 257
 1924 661 l 257
 55 661 l 257
1814 662 m 257
 1814 1 l 257
 2014 0 l 257
 2014 661 l 257
 1814 662 l 257
1007 200 m 257
 1007 0 l 257
 2014 0 l 257
 2014 200 l 257
 1007 200 l 257
EndSplineSet
EndChar

StartChar: uni2197
Encoding: 586 8599 586
GlifName: northE_astA_rrow
Width: 2048
VWidth: 0
GlyphClass: 2
Flags: W
LayerCount: 2
Fore
SplineSet
1589 1174 m 257
 1440 1323 l 257
 291 174 l 257
 440 25 l 257
 1589 1174 l 257
1569 842 m 257
 1674 1416 l 257
 1503 1245 l 257
 1398 671 l 257
 1569 842 l 257
1674 1416 m 257
 1086 1298 l 257
 915 1127 l 257
 1502 1244 l 257
 1674 1416 l 257
EndSplineSet
EndChar

StartChar: uni2196
Encoding: 587 8598 587
GlifName: northW_estA_rrow
Width: 2048
VWidth: 0
GlyphClass: 2
Flags: W
LayerCount: 2
Fore
SplineSet
603 1332 m 257
 454 1182 l 257
 1603 33 l 257
 1753 183 l 257
 603 1332 l 257
936 1312 m 257
 362 1417 l 257
 533 1245 l 257
 1107 1141 l 257
 936 1312 l 257
362 1417 m 257
 479 828 l 257
 650 657 l 257
 533 1245 l 257
 362 1417 l 257
EndSplineSet
EndChar

StartChar: notequal
Encoding: 588 8800 588
GlifName: notequal
Width: 2048
VWidth: 0
GlyphClass: 2
Flags: W
LayerCount: 2
Fore
SplineSet
1406 1101 m 257
 266 182 l 257
 528 109 l 257
 1668 1028 l 257
 1406 1101 l 257
208 914 m 257
 208 724 l 257
 1840 724 l 257
 1840 914 l 257
 208 914 l 257
208 540 m 257
 208 350 l 257
 1840 350 l 257
 1840 540 l 257
 208 540 l 257
EndSplineSet
EndChar

StartChar: numbersign
Encoding: 591 35 591
GlifName: numbersign
Width: 2048
VWidth: 0
GlyphClass: 2
Flags: W
LayerCount: 2
Fore
SplineSet
740 1347 m 257
 740 313 l 257
 880 313 l 257
 880 1347 l 257
 740 1347 l 257
1152 1350 m 257
 1152 279 l 257
 1318 279 l 257
 1318 1350 l 257
 1152 1350 l 257
612 1157 m 257
 612 1010 l 257
 1430 1010 l 257
 1430 1157 l 257
 612 1157 l 257
612 767 m 257
 612 592 l 257
 1438 592 l 257
 1438 767 l 257
 612 767 l 257
EndSplineSet
EndChar

StartChar: o
Encoding: 593 111 593
GlifName: o
Width: 2048
VWidth: 0
GlyphClass: 2
Flags: W
AnchorPoint: "top" 959 1089 basechar 0
AnchorPoint: "base" 971 -138 basechar 0
LayerCount: 2
Fore
SplineSet
116 1023 m 257
 116 0 l 257
 316 0 l 257
 316 1023 l 257
 116 1023 l 257
1732 1023 m 257
 1732 0 l 257
 1934 0 l 257
 1934 1023 l 257
 1732 1023 l 257
240 1023 m 257
 240 822 l 257
 1826 822 l 257
 1826 1023 l 257
 240 1023 l 257
244 200 m 257
 244 0 l 257
 1816 0 l 257
 1816 200 l 257
 244 200 l 257
EndSplineSet
EndChar

StartChar: uni0275
Encoding: 596 629 596
GlifName: obarred
Width: 2048
VWidth: 0
GlyphClass: 2
Flags: W
AnchorPoint: "top" 1055 1137 basechar 0
AnchorPoint: "base" 1025 -90 basechar 0
LayerCount: 2
Fore
SplineSet
116 1023 m 257
 116 0 l 257
 316 0 l 257
 316 1023 l 257
 116 1023 l 257
1732 1023 m 257
 1732 0 l 257
 1934 0 l 257
 1934 1023 l 257
 1732 1023 l 257
240 1023 m 257
 240 822 l 257
 1826 822 l 257
 1826 1023 l 257
 240 1023 l 257
244 200 m 257
 244 0 l 257
 1816 0 l 257
 1816 200 l 257
 244 200 l 257
265.911 631 m 257
 265.911 423 l 257
 1788.65 423 l 257
 1788.65 631 l 257
 265.911 631 l 257
EndSplineSet
EndChar

StartChar: uni04E9
Encoding: 597 1257 597
GlifName: obarred-cy
Width: 2048
VWidth: 0
Flags: W
AnchorPoint: "top" 1055 1137 basechar 0
AnchorPoint: "base" 1025 -90 basechar 0
LayerCount: 2
Fore
SplineSet
116 1023 m 257
 116 0 l 257
 316 0 l 257
 316 1023 l 257
 116 1023 l 257
1732 1023 m 257
 1732 0 l 257
 1934 0 l 257
 1934 1023 l 257
 1732 1023 l 257
240 1023 m 257
 240 822 l 257
 1826 822 l 257
 1826 1023 l 257
 240 1023 l 257
244 200 m 257
 244 0 l 257
 1816 0 l 257
 1816 200 l 257
 244 200 l 257
265.911 631 m 257
 265.911 423 l 257
 1788.65 423 l 257
 1788.65 631 l 257
 265.911 631 l 257
EndSplineSet
EndChar

StartChar: oe
Encoding: 601 339 601
GlifName: oe
Width: 2048
VWidth: 0
GlyphClass: 2
Flags: W
AnchorPoint: "top" 1008 1107 basechar 0
AnchorPoint: "base" 1032 -105 basechar 0
LayerCount: 2
Fore
SplineSet
1109 645 m 257
 1109 446 l 257
 1848 446 l 257
 1848 645 l 257
 1109 645 l 257
1823 1023 m 257
 1823 445 l 257
 2023 445 l 257
 2023 1023 l 257
 1823 1023 l 257
103 1023 m 257
 103 0 l 257
 303 0 l 257
 303 1023 l 257
 103 1023 l 257
963 1023 m 257
 963 0 l 257
 1163 0 l 257
 1163 1023 l 257
 963 1023 l 257
158 1023 m 257
 158 823 l 257
 1883 823 l 257
 1883 1023 l 257
 158 1023 l 257
149 200 m 257
 149 0 l 257
 2023 0 l 257
 2023 200 l 257
 149 200 l 257
EndSplineSet
EndChar

StartChar: ogonek
Encoding: 602 731 602
GlifName: ogonek
Width: 2048
VWidth: 0
GlyphClass: 2
Flags: W
HStem: -392 406<753 1295 753 871 871 871>
VStem: 753 542<-392 -274 -392 -274 -392 -274 -107 14 -392 14 -392 -274 -392 -107 -107 14>
LayerCount: 2
Fore
SplineSet
753 -274 m 257
 753 -392 l 257
 1295 -392 l 257
 1295 -274 l 257
 753 -274 l 257
753 14 m 257
 753 -392 l 257
 871 -392 l 257
 871 14 l 257
 753 14 l 257
753 14 m 257
 753 -107 l 257
 1295 -107 l 257
 1295 14 l 257
 753 14 l 257
EndSplineSet
PickledDataWithLists: "(dp0
Vcom.fontlab.hintData
p1
(dp2
Vhhints
p3
(lp4
(dp5
Vposition
p6
I-392
sVwidth
p7
I406
sasVvhints
p8
(lp9
(dp10
g6
I753
sg7
I542
sass."
EndChar

StartChar: omega
Encoding: 607 969 607
GlifName: omega
Width: 2048
VWidth: 0
GlyphClass: 2
Flags: W
LayerCount: 2
Fore
SplineSet
150 1023 m 257
 106 129 l 257
 305 129 l 257
 349 1023 l 257
 150 1023 l 257
1686 1024 m 257
 1746 127 l 257
 1945 127 l 257
 1885 1024 l 257
 1686 1024 l 257
920 612 m 257
 920 119 l 257
 1121 119 l 257
 1121 612 l 257
 920 612 l 257
107 197 m 257
 102 2 l 257
 996 119 l 257
 996 319 l 257
 107 197 l 257
1051 319 m 257
 1051 119 l 257
 1945 2 l 257
 1945 197 l 257
 1051 319 l 257
EndSplineSet
EndChar

StartChar: uniA7B7
Encoding: 608 42935 608
GlifName: omega_latin
Width: 2048
VWidth: 0
GlyphClass: 2
Flags: W
AnchorPoint: "base" 1036 -83 basechar 0
AnchorPoint: "top" 1018 1151 basechar 0
LayerCount: 2
Fore
SplineSet
64 1025 m 257
 64 0 l 257
 264 0 l 257
 264 1025 l 257
 64 1025 l 257
1783 1025 m 257
 1783 0 l 257
 1983 0 l 257
 1985 1026 l 257
 1783 1025 l 257
923 669 m 257
 923 146 l 257
 1123 146 l 257
 1123 669 l 257
 923 669 l 257
264 200 m 257
 264 0 l 257
 923 146 l 257
 923 346 l 257
 264 200 l 257
1123 346 m 257
 1123 146 l 257
 1783 1 l 257
 1783 201 l 257
 1123 346 l 257
95 1025 m 257
 97 825 l 257
 653 825 l 257
 651 1025 l 257
 95 1025 l 257
1387 1025 m 257
 1385 825 l 257
 1983 825 l 257
 1985 1025 l 257
 1387 1025 l 257
EndSplineSet
EndChar

StartChar: one
Encoding: 613 49 613
GlifName: one
Width: 2048
VWidth: 0
GlyphClass: 2
Flags: W
LayerCount: 2
Fore
SplineSet
1022 0 m 257
 1220 0 l 257
 1220 1548 l 257
 1022 1548 l 257
 1022 0 l 257
1026 1548 m 257
 828 1252 l 257
 978 1152 l 257
 1176 1449 l 257
 1026 1548 l 257
EndSplineSet
Substitution2: "supsSuperscriptinLatinlookup16 subtable" uni00B9
EndChar

StartChar: onequarter
Encoding: 616 188 616
GlifName: onequarter
Width: 2048
VWidth: 0
GlyphClass: 2
Flags: W
LayerCount: 2
Fore
SplineSet
79 10 m 257
 182 10 l 257
 79 10 l 257
873 7 m 257
 932 7 l 257
 873 7 l 257
EndSplineSet
Refer: 752 185 N 1 0 0 1 -749 254 2
Refer: 701 47 N 1 0 0 1 -377 71 2
Refer: 1750 8324 N 1 0 0 1 470 13 2
EndChar

StartChar: uni0254
Encoding: 618 596 618
GlifName: oopen
Width: 2048
VWidth: 0
GlyphClass: 2
Flags: W
AnchorPoint: "base" 1028 -71 basechar 0
AnchorPoint: "top" 1010 1123 basechar 0
LayerCount: 2
Fore
SplineSet
1877 0 m 257
 1877 197 l 257
 171 197 l 257
 171 0 l 257
 1877 0 l 257
1875 39 m 257
 1875 1023 l 257
 1673 1023 l 257
 1673 39 l 257
 1875 39 l 257
1769 822 m 257
 1769 1023 l 257
 177 1023 l 257
 177 822 l 257
 1769 822 l 257
EndSplineSet
EndChar

StartChar: ordfeminine
Encoding: 619 170 619
GlifName: ordfeminine
Width: 2048
VWidth: 0
GlyphClass: 2
Flags: W
LayerCount: 2
Fore
SplineSet
217 1319 m 257
 217 1119 l 257
 1823 1119 l 257
 1823 1319 l 257
 217 1319 l 257
1710 1320 m 257
 1710 296 l 257
 1904 296 l 257
 1904 1320 l 257
 1710 1320 l 257
221 894 m 257
 221 695 l 257
 1845 695 l 257
 1845 894 l 257
 221 894 l 257
221 870 m 257
 221 293 l 257
 422 293 l 257
 422 870 l 257
 221 870 l 257
219 496 m 257
 219 296 l 257
 1909 296 l 257
 1909 496 l 257
 219 496 l 257
126 162 m 257
 126 0 l 257
 1922 0 l 257
 1922 162 l 257
 126 162 l 257
EndSplineSet
EndChar

StartChar: ordmasculine
Encoding: 620 186 620
GlifName: ordmasculine
Width: 2048
VWidth: 0
GlyphClass: 2
Flags: W
LayerCount: 2
Fore
SplineSet
172 1023 m 257
 172 0 l 257
 372 0 l 257
 372 1023 l 257
 172 1023 l 257
1787 1023 m 257
 1787 0 l 257
 1989 0 l 257
 1989 1023 l 257
 1787 1023 l 257
295 1023 m 257
 295 822 l 257
 1881 822 l 257
 1881 1023 l 257
 295 1023 l 257
299 200 m 257
 299 0 l 257
 1871 0 l 257
 1871 200 l 257
 299 200 l 257
0 -84 m 257
 0 -216 l 257
 2048 -216 l 257
 2048 -84 l 257
 0 -84 l 257
EndSplineSet
EndChar

StartChar: oslash
Encoding: 621 248 621
GlifName: oslash
Width: 2048
VWidth: 0
GlyphClass: 2
Flags: W
AnchorPoint: "top" 959 1089 basechar 0
AnchorPoint: "base" 971 -138 basechar 0
LayerCount: 2
Fore
SplineSet
1861 1164 m 257
 9 -5 l 257
 171 -103 l 257
 2024 1066 l 257
 1861 1164 l 257
104 1023 m 257
 104 0 l 257
 304 0 l 257
 304 1023 l 257
 104 1023 l 257
1743 1023 m 257
 1743 0 l 257
 1945 0 l 257
 1945 1023 l 257
 1743 1023 l 257
227 1023 m 257
 227 822 l 257
 1837 822 l 257
 1837 1023 l 257
 227 1023 l 257
231 200 m 257
 231 0 l 257
 1827 0 l 257
 1827 200 l 257
 231 200 l 257
EndSplineSet
EndChar

StartChar: p
Encoding: 625 112 625
GlifName: p
Width: 2048
VWidth: 0
GlyphClass: 2
Flags: W
AnchorPoint: "base" 288 -492 basechar 0
AnchorPoint: "top" 268 1322 basechar 0
LayerCount: 2
Fore
SplineSet
202 1203 m 257
 202 -406 l 257
 402 -406 l 257
 402 1203 l 257
 202 1203 l 257
300 1023 m 257
 300 821 l 257
 1838 821 l 257
 1838 1023 l 257
 300 1023 l 257
304 202 m 257
 304 0 l 257
 1844 0 l 257
 1844 202 l 257
 304 202 l 257
1642 876 m 257
 1642 175 l 257
 1840 175 l 257
 1840 876 l 257
 1642 876 l 257
EndSplineSet
EndChar

StartChar: paragraph
Encoding: 626 182 626
GlifName: paragraph
Width: 2048
VWidth: 0
GlyphClass: 2
Flags: W
LayerCount: 2
Fore
SplineSet
602 1130 m 257
 602 985 l 257
 1166 985 l 257
 1166 1130 l 257
 602 1130 l 257
602 1548 m 257
 602 1000 l 257
 762 1000 l 257
 762 1548 l 257
 602 1548 l 257
602 1548 m 257
 602 1435 l 257
 1422 1435 l 257
 1422 1548 l 257
 602 1548 l 257
1072 1548 m 257
 1072 0 l 257
 1216 0 l 257
 1216 1548 l 257
 1072 1548 l 257
1342 1548 m 257
 1342 0 l 257
 1446 0 l 257
 1446 1548 l 257
 1342 1548 l 257
EndSplineSet
EndChar

StartChar: parenleft
Encoding: 627 40 627
GlifName: parenleft
Width: 2048
VWidth: 0
GlyphClass: 2
Flags: W
LayerCount: 2
Fore
SplineSet
836 1023 m 257
 836 179 l 257
 1026 179 l 257
 1026 1023 l 257
 836 1023 l 257
1154 1633 m 257
 836 1028 l 257
 1024 1028 l 257
 1184 1640 l 257
 1154 1633 l 257
836 179 m 257
 1180 -406 l 257
 1212 -406 l 257
 1026 179 l 257
 836 179 l 257
EndSplineSet
EndChar

StartChar: parenright
Encoding: 628 41 628
GlifName: parenright
Width: 2048
VWidth: 0
GlyphClass: 2
Flags: W
LayerCount: 2
Fore
SplineSet
1000 1023 m 257
 1000 179 l 257
 1190 179 l 257
 1190 1023 l 257
 1000 1023 l 257
858 1629 m 257
 1000 1023 l 257
 1190 1023 l 257
 896 1629 l 257
 858 1629 l 257
1000 179 m 257
 858 -406 l 257
 886 -406 l 257
 1190 179 l 257
 1000 179 l 257
EndSplineSet
EndChar

StartChar: partialdiff
Encoding: 629 8706 629
GlifName: partialdiff
Width: 2048
VWidth: 0
GlyphClass: 2
Flags: W
LayerCount: 2
Fore
SplineSet
1265 1548 m 257
 1716 0 l 257
 1917 0 l 257
 1466 1548 l 257
 1265 1548 l 257
228 1023 m 257
 228 822 l 257
 1593 822 l 257
 1593 1023 l 257
 228 1023 l 257
132 1023 m 257
 132 0 l 257
 333 0 l 257
 333 1023 l 257
 132 1023 l 257
228 195 m 257
 228 0 l 257
 1869 0 l 257
 1869 195 l 257
 228 195 l 257
946 1546 m 257
 946 1359 l 257
 1406 1362 l 257
 1406 1549 l 257
 946 1546 l 257
EndSplineSet
EndChar

StartChar: percent
Encoding: 631 37 631
GlifName: percent
Width: 2048
VWidth: 0
GlyphClass: 2
Flags: W
LayerCount: 2
Fore
SplineSet
590 522 m 257
 634 377 l 257
 1458 716 l 257
 1414 860 l 257
 590 522 l 257
730 1148 m 257
 730 822 l 257
 808 822 l 257
 808 1148 l 257
 730 1148 l 257
730 1152 m 257
 730 1057 l 257
 1078 1057 l 257
 1078 1152 l 257
 730 1152 l 257
730 871 m 257
 730 789 l 257
 1074 789 l 257
 1074 871 l 257
 730 871 l 257
986 1152 m 257
 986 791 l 257
 1078 791 l 257
 1078 1152 l 257
 986 1152 l 257
1058 436 m 257
 1058 110 l 257
 1136 110 l 257
 1136 436 l 257
 1058 436 l 257
1058 440 m 257
 1058 345 l 257
 1404 345 l 257
 1404 440 l 257
 1058 440 l 257
1058 159 m 257
 1058 77 l 257
 1402 77 l 257
 1402 159 l 257
 1058 159 l 257
1312 440 m 257
 1312 79 l 257
 1404 79 l 257
 1404 440 l 257
 1312 440 l 257
EndSplineSet
EndChar

StartChar: period
Encoding: 632 46 632
GlifName: period
Width: 2048
VWidth: 0
GlyphClass: 2
Flags: W
LayerCount: 2
Fore
SplineSet
892 246 m 257
 892 0 l 257
 1156 0 l 257
 1156 246 l 257
 892 246 l 257
EndSplineSet
EndChar

StartChar: periodcentered
Encoding: 633 183 633
GlifName: periodcentered
Width: 2048
VWidth: 0
GlyphClass: 2
Flags: W
LayerCount: 2
Fore
SplineSet
892 1146 m 257
 892 899 l 257
 1156 899 l 257
 1156 1146 l 257
 892 1146 l 257
EndSplineSet
EndChar

StartChar: perthousand
Encoding: 635 8240 635
GlifName: perthousand
Width: 2048
VWidth: 0
GlyphClass: 2
Flags: W
LayerCount: 2
Fore
SplineSet
1174 436 m 257
 1174 110 l 257
 1252 110 l 257
 1252 436 l 257
 1174 436 l 257
1174 440 m 257
 1174 345 l 257
 1520 345 l 257
 1520 440 l 257
 1174 440 l 257
1174 159 m 257
 1174 77 l 257
 1518 77 l 257
 1518 159 l 257
 1174 159 l 257
1428 440 m 257
 1428 79 l 257
 1520 79 l 257
 1520 440 l 257
 1428 440 l 257
528 522 m 257
 570 377 l 257
 1394 716 l 257
 1350 860 l 257
 528 522 l 257
668 1148 m 257
 668 822 l 257
 746 822 l 257
 746 1148 l 257
 668 1148 l 257
668 1152 m 257
 668 1057 l 257
 1014 1057 l 257
 1014 1152 l 257
 668 1152 l 257
668 871 m 257
 668 789 l 257
 1012 789 l 257
 1012 871 l 257
 668 871 l 257
922 1152 m 257
 922 791 l 257
 1014 791 l 257
 1014 1152 l 257
 922 1152 l 257
772 436 m 257
 772 110 l 257
 850 110 l 257
 850 436 l 257
 772 436 l 257
772 440 m 257
 772 345 l 257
 1120 345 l 257
 1120 440 l 257
 772 440 l 257
772 159 m 257
 772 77 l 257
 1116 77 l 257
 1116 159 l 257
 772 159 l 257
1028 440 m 257
 1028 79 l 257
 1120 79 l 257
 1120 440 l 257
 1028 440 l 257
EndSplineSet
EndChar

StartChar: peseta
Encoding: 636 8359 636
GlifName: peseta
Width: 2048
VWidth: 0
GlyphClass: 2
Flags: W
LayerCount: 2
Fore
SplineSet
668 1548 m 257
 668 0 l 257
 738 0 l 257
 738 1548 l 257
 668 1548 l 257
697 1548 m 257
 697 1346 l 257
 939 1346 l 257
 939 1548 l 257
 697 1548 l 257
873 1548 m 257
 873 881 l 257
 947 881 l 257
 947 1548 l 257
 873 1548 l 257
691 1068 m 257
 691 868 l 257
 945 868 l 257
 945 1068 l 257
 691 1068 l 257
1043 1526 m 257
 1043 0 l 257
 1109 0 l 257
 1109 1526 l 257
 1043 1526 l 257
1043 198 m 257
 1043 0 l 257
 1175 0 l 257
 1175 198 l 257
 1043 198 l 257
965 1009 m 257
 965 813 l 257
 1188 813 l 257
 1188 1009 l 257
 965 1009 l 257
1226 609 m 257
 1226 491 l 257
 1380 491 l 257
 1380 609 l 257
 1226 609 l 257
1226 609 m 257
 1226 438 l 257
 1277 438 l 257
 1277 609 l 257
 1226 609 l 257
1226 118 m 257
 1226 0 l 257
 1380 0 l 257
 1380 118 l 257
 1226 118 l 257
1329 173 m 257
 1329 5 l 257
 1379 5 l 257
 1379 173 l 257
 1329 173 l 257
1226 438 m 257
 1329 173 l 257
 1379 173 l 257
 1277 438 l 257
 1226 438 l 257
EndSplineSet
EndChar

StartChar: phi
Encoding: 637 966 637
GlifName: phi
Width: 2048
VWidth: 0
GlyphClass: 2
Flags: W
LayerCount: 2
Fore
SplineSet
104 1023 m 257
 104 0 l 257
 304 0 l 257
 304 1023 l 257
 104 1023 l 257
1743 1023 m 257
 1743 0 l 257
 1945 0 l 257
 1945 1023 l 257
 1743 1023 l 257
227 1023 m 257
 227 822 l 257
 1837 822 l 257
 1837 1023 l 257
 227 1023 l 257
231 200 m 257
 231 0 l 257
 1827 0 l 257
 1827 200 l 257
 231 200 l 257
923 1202 m 257
 923 -413 l 257
 1125 -413 l 257
 1125 1202 l 257
 923 1202 l 257
EndSplineSet
EndChar

StartChar: phi1
Encoding: 638 981 638
GlifName: phiS_ymbol
Width: 2048
VWidth: 0
GlyphClass: 2
Flags: W
LayerCount: 2
Fore
SplineSet
71 1110 m 257
 71 25 l 257
 271 25 l 257
 271 1110 l 257
 71 1110 l 257
71 201 m 257
 71 1 l 257
 1910 1 l 257
 1910 201 l 257
 71 201 l 257
1799 1098 m 257
 1799 0 l 257
 1999 0 l 257
 1999 1098 l 257
 1799 1098 l 257
980 1098 m 257
 980 898 l 257
 1999 898 l 257
 1999 1098 l 257
 980 1098 l 257
963 1098 m 257
 963 -503 l 257
 1163 -503 l 257
 1163 1098 l 257
 963 1098 l 257
EndSplineSet
EndChar

StartChar: pi
Encoding: 640 960 640
GlifName: pi
Width: 2048
VWidth: 0
GlyphClass: 2
Flags: W
LayerCount: 2
Fore
SplineSet
200 990 m 257
 188 0 l 257
 389 0 l 257
 401 990 l 257
 200 990 l 257
1623 976 m 257
 1611 0 l 257
 1812 0 l 257
 1824 976 l 257
 1623 976 l 257
80 1023 m 257
 77 826 l 257
 1963 826 l 257
 1966 1023 l 257
 80 1023 l 257
EndSplineSet
EndChar

StartChar: plus
Encoding: 641 43 641
GlifName: plus
Width: 2048
VWidth: 0
GlyphClass: 2
Flags: W
LayerCount: 2
Fore
SplineSet
896 1221 m 257
 896 165 l 257
 1121 165 l 257
 1121 1221 l 257
 896 1221 l 257
573 821 m 257
 573 613 l 257
 1475 613 l 257
 1475 821 l 257
 573 821 l 257
EndSplineSet
EndChar

StartChar: plusminus
Encoding: 642 177 642
GlifName: plusminus
Width: 2048
VWidth: 0
GlyphClass: 2
Flags: W
LayerCount: 2
Fore
SplineSet
611 108 m 257
 611 -100 l 257
 1437 -100 l 257
 1437 108 l 257
 611 108 l 257
896 1221 m 257
 896 165 l 257
 1121 165 l 257
 1121 1221 l 257
 896 1221 l 257
573 821 m 257
 573 613 l 257
 1475 613 l 257
 1475 821 l 257
 573 821 l 257
EndSplineSet
EndChar

StartChar: product
Encoding: 644 8719 644
GlifName: product
Width: 2048
VWidth: 0
GlyphClass: 2
Flags: W
LayerCount: 2
Fore
SplineSet
366 1537 m 257
 366 0 l 257
 567 0 l 257
 567 1537 l 257
 366 1537 l 257
1475 1537 m 257
 1475 0 l 257
 1678 0 l 257
 1678 1537 l 257
 1475 1537 l 257
56 1537 m 257
 56 1337 l 257
 2006 1337 l 257
 2006 1537 l 257
 56 1537 l 257
EndSplineSet
EndChar

StartChar: psi
Encoding: 645 968 645
GlifName: psi
Width: 2048
VWidth: 0
GlyphClass: 2
Flags: W
LayerCount: 2
Fore
SplineSet
939 1015 m 257
 923 -129 l 257
 1125 -129 l 257
 1141 1015 l 257
 939 1015 l 257
179 1020 m 257
 170 278 l 257
 370 278 l 257
 379 1020 l 257
 179 1020 l 257
1708 1020 m 257
 1699 278 l 257
 1898 278 l 257
 1907 1020 l 257
 1708 1020 l 257
240 478 m 257
 238 278 l 257
 1808 278 l 257
 1810 478 l 257
 240 478 l 257
EndSplineSet
EndChar

StartChar: q
Encoding: 649 113 649
GlifName: q
Width: 2048
VWidth: 0
GlyphClass: 2
Flags: W
AnchorPoint: "top" 1518 1279 basechar 0
AnchorPoint: "base" 1538 -517 basechar 0
LayerCount: 2
Fore
SplineSet
1424 1201 m 257
 1424 -406 l 257
 1622 -406 l 257
 1622 1201 l 257
 1424 1201 l 257
150 1023 m 257
 150 823 l 257
 1600 823 l 257
 1600 1023 l 257
 150 1023 l 257
152 203 m 257
 152 0 l 257
 1568 0 l 257
 1568 203 l 257
 152 203 l 257
150 855 m 257
 150 107 l 257
 350 107 l 257
 350 855 l 257
 150 855 l 257
1462 -268 m 257
 1462 -406 l 257
 1898 -406 l 257
 1898 -268 l 257
 1462 -268 l 257
EndSplineSet
EndChar

StartChar: question
Encoding: 650 63 650
GlifName: question
Width: 2048
VWidth: 0
GlyphClass: 2
Flags: W
LayerCount: 2
Fore
SplineSet
880 247 m 257
 880 0 l 257
 1126 0 l 257
 1126 247 l 257
 880 247 l 257
704 1519 m 257
 704 1333 l 257
 1340 1333 l 257
 1340 1519 l 257
 704 1519 l 257
1150 1514 m 257
 1150 966 l 257
 1344 966 l 257
 1344 1514 l 257
 1150 1514 l 257
880 1015 m 257
 880 816 l 257
 1344 816 l 257
 1344 1015 l 257
 880 1015 l 257
880 1011 m 257
 880 392 l 257
 1128 392 l 257
 1128 1011 l 257
 880 1011 l 257
EndSplineSet
EndChar

StartChar: questiondown
Encoding: 651 191 651
GlifName: questiondown
Width: 2048
VWidth: 0
GlyphClass: 2
Flags: W
LayerCount: 2
Fore
SplineSet
1168 1273 m 257
 1168 1519 l 257
 918 1519 l 257
 918 1272 l 257
 1168 1273 l 257
1344 0 m 257
 1344 186 l 257
 708 186 l 257
 708 0 l 257
 1344 0 l 257
898 5 m 257
 898 553 l 257
 704 553 l 257
 704 5 l 257
 898 5 l 257
1168 504 m 257
 1168 703 l 257
 704 703 l 257
 704 504 l 257
 1168 504 l 257
1168 508 m 257
 1168 1127 l 257
 920 1127 l 257
 920 508 l 257
 1168 508 l 257
EndSplineSet
EndChar

StartChar: quotedbl
Encoding: 653 34 653
GlifName: quotedbl
Width: 2048
VWidth: 0
GlyphClass: 2
Flags: W
LayerCount: 2
Fore
SplineSet
752 1326 m 257
 896 1326 l 257
 896 1574 l 257
 752 1574 l 257
 752 1326 l 257
1152 1326 m 257
 1296 1326 l 257
 1296 1574 l 257
 1152 1574 l 257
 1152 1326 l 257
EndSplineSet
EndChar

StartChar: quotedblbase
Encoding: 654 8222 654
GlifName: quotedblbase
Width: 2048
VWidth: 0
GlyphClass: 2
Flags: W
LayerCount: 2
Fore
SplineSet
198 237 m 257
 198 8 l 257
 446 8 l 257
 446 237 l 257
 198 237 l 257
297 135 m 257
 179 -146 l 257
 322 -206 l 257
 444 0 l 257
 297 135 l 257
597 237 m 257
 597 8 l 257
 845 8 l 257
 845 237 l 257
 597 237 l 257
696 135 m 257
 578 -146 l 257
 721 -206 l 257
 843 0 l 257
 696 135 l 257
EndSplineSet
EndChar

StartChar: quotedblleft
Encoding: 655 8220 655
GlifName: quotedblleft
Width: 2048
VWidth: 0
GlyphClass: 2
Flags: W
LayerCount: 2
Fore
SplineSet
970 1842 m 257
 970 2071 l 257
 722 2071 l 257
 722 1842 l 257
 970 1842 l 257
872 1944 m 257
 990 2225 l 257
 846 2285 l 257
 724 2075 l 257
 872 1944 l 257
1306 1842 m 257
 1306 2071 l 257
 1058 2071 l 257
 1058 1842 l 257
 1306 1842 l 257
1208 1944 m 257
 1326 2225 l 257
 1182 2285 l 257
 1060 2075 l 257
 1208 1944 l 257
EndSplineSet
EndChar

StartChar: quotedblright
Encoding: 656 8221 656
GlifName: quotedblright
Width: 2048
VWidth: 0
GlyphClass: 2
Flags: W
LayerCount: 2
Fore
SplineSet
1068 2285 m 257
 1068 2056 l 257
 1316 2056 l 257
 1316 2285 l 257
 1068 2285 l 257
1168 2183 m 257
 1050 1902 l 257
 1192 1842 l 257
 1314 2052 l 257
 1168 2183 l 257
750 2285 m 257
 750 2056 l 257
 998 2056 l 257
 998 2285 l 257
 750 2285 l 257
850 2183 m 257
 732 1902 l 257
 874 1842 l 257
 996 2052 l 257
 850 2183 l 257
EndSplineSet
EndChar

StartChar: quoteleft
Encoding: 657 8216 657
GlifName: quoteleft
Width: 2048
VWidth: 0
GlyphClass: 2
Flags: W
LayerCount: 2
Fore
SplineSet
1138 1142 m 257
 1138 1371 l 257
 890 1371 l 257
 890 1142 l 257
 1138 1142 l 257
1040 1244 m 257
 1158 1525 l 257
 1014 1585 l 257
 892 1375 l 257
 1040 1244 l 257
EndSplineSet
EndChar

StartChar: quoteright
Encoding: 658 8217 658
GlifName: quoteright
Width: 2048
VWidth: 0
GlyphClass: 2
Flags: W
LayerCount: 2
Fore
SplineSet
910 2285 m 257
 910 2056 l 257
 1158 2056 l 257
 1158 2285 l 257
 910 2285 l 257
1008 2183 m 257
 890 1902 l 257
 1034 1842 l 257
 1156 2052 l 257
 1008 2183 l 257
EndSplineSet
EndChar

StartChar: quotesinglbase
Encoding: 659 8218 659
GlifName: quotesinglbase
Width: 2048
VWidth: 0
GlyphClass: 2
Flags: W
LayerCount: 2
Fore
SplineSet
910 237 m 257
 910 8 l 257
 1158 8 l 257
 1158 237 l 257
 910 237 l 257
1008 135 m 257
 890 -146 l 257
 1034 -206 l 257
 1156 0 l 257
 1008 135 l 257
EndSplineSet
EndChar

StartChar: quotesingle
Encoding: 660 39 660
GlifName: quotesingle
Width: 2048
VWidth: 0
GlyphClass: 2
Flags: W
LayerCount: 2
Fore
SplineSet
959 1496 m 257
 959 1264 l 257
 1089 1264 l 257
 1089 1496 l 257
 959 1496 l 257
EndSplineSet
EndChar

StartChar: r
Encoding: 661 114 661
GlifName: r
Width: 2048
VWidth: 0
GlyphClass: 2
Flags: W
AnchorPoint: "top" 996 1153 basechar 0
AnchorPoint: "base" 989 -94 basechar 0
LayerCount: 2
Fore
SplineSet
158 1023 m 257
 158 821 l 257
 1890 821 l 257
 1890 1023 l 257
 158 1023 l 257
872 954 m 257
 872 0 l 257
 1072 0 l 257
 1072 954 l 257
 872 954 l 257
1690 976 m 257
 1690 650 l 257
 1890 650 l 257
 1890 976 l 257
 1690 976 l 257
EndSplineSet
EndChar

StartChar: radical
Encoding: 663 8730 663
GlifName: radical
Width: 2048
VWidth: 0
GlyphClass: 2
Flags: W
LayerCount: 2
Fore
SplineSet
1212 1390 m 257
 1016 117 l 257
 1200 117 l 257
 1396 1390 l 257
 1212 1390 l 257
696 620 m 257
 622 396 l 257
 718 317 l 257
 901 675 l 257
 696 620 l 257
706 621 m 257
 1016 117 l 257
 1200 117 l 257
 904 679 l 257
 706 621 l 257
EndSplineSet
EndChar

StartChar: uni0264
Encoding: 664 612 664
GlifName: ramshorn
Width: 2048
VWidth: 0
GlyphClass: 2
Flags: W
AnchorPoint: "top" 1049 1110 basechar 0
LayerCount: 2
Fore
SplineSet
81 935 m 257
 1324 202 l 257
 1524 202 l 257
 281 935 l 257
 81 935 l 257
1754 965 m 257
 730 202 l 257
 929 202 l 257
 1954 965 l 257
 1754 965 l 257
731 0 m 257
 1525 -1 l 257
 1525 202 l 257
 731 202 l 257
 731 0 l 257
EndSplineSet
EndChar

StartChar: registered
Encoding: 666 174 666
GlifName: registered
Width: 2048
VWidth: 0
GlyphClass: 2
Flags: W
HStem: 1314 8<677 677 677 799>
LayerCount: 2
Fore
SplineSet
609 1545 m 257
 609 1014 l 257
 677 1014 l 257
 677 1545 l 257
 609 1545 l 257
634 1545 m 257
 634 1476 l 257
 1463 1476 l 257
 1463 1545 l 257
 634 1545 l 257
1403 1545 m 257
 1403 1315 l 257
 1472 1315 l 257
 1472 1545 l 257
 1403 1545 l 257
630 1388 m 257
 630 1314 l 257
 1468 1314 l 257
 1468 1388 l 257
 630 1388 l 257
677 1322 m 257
 1416 998 l 257
 1551 998 l 257
 799 1322 l 257
 677 1322 l 257
153 2050 m 257
 153 513 l 257
 354 513 l 257
 354 2050 l 257
 153 2050 l 257
1692 2050 m 257
 1692 513 l 257
 1895 513 l 257
 1895 2050 l 257
 1692 2050 l 257
294 2050 m 257
 294 1850 l 257
 1737 1850 l 257
 1737 2050 l 257
 294 2050 l 257
270 717 m 257
 270 513 l 257
 1743 513 l 257
 1743 717 l 257
 270 717 l 257
EndSplineSet
PickledDataWithLists: "(dp0
Vcom.fontlab.hintData
p1
(dp2
Vhhints
p3
(lp4
(dp5
Vposition
p6
I1314
sVwidth
p7
I8
sass."
EndChar

StartChar: uni027F
Encoding: 667 639 667
GlifName: rfishhookreversed
Width: 2048
VWidth: 0
GlyphClass: 2
Flags: W
AnchorPoint: "top" 996 1153 basechar 0
AnchorPoint: "base" 989 -94 basechar 0
LayerCount: 2
Fore
SplineSet
158 1023 m 257
 158 821 l 257
 1389 821 l 257
 1389 1023 l 257
 158 1023 l 257
1188 954 m 257
 1188 -492 l 257
 1388 -492 l 257
 1388 954 l 257
 1188 954 l 257
EndSplineSet
EndChar

StartChar: rho
Encoding: 668 961 668
GlifName: rho
Width: 2048
VWidth: 0
GlyphClass: 2
Flags: W
LayerCount: 2
Fore
SplineSet
173 1203 m 257
 173 -406 l 257
 373 -406 l 257
 373 1203 l 257
 173 1203 l 257
271 1203 m 257
 271 1001 l 257
 1834 821 l 257
 1834 1023 l 257
 271 1203 l 257
275 202 m 257
 275 0 l 257
 1839 147 l 257
 1839 349 l 257
 275 202 l 257
1637 876 m 257
 1637 266 l 257
 1835 266 l 257
 1835 876 l 257
 1637 876 l 257
EndSplineSet
EndChar

StartChar: arrowright
Encoding: 669 8594 669
GlifName: rightA_rrow
Width: 2048
VWidth: 0
GlyphClass: 2
Flags: W
LayerCount: 2
Fore
SplineSet
1713 647 m 257
 1713 858 l 257
 88 858 l 257
 88 647 l 257
 1713 647 l 257
1464 426 m 257
 1944 758 l 257
 1702 758 l 257
 1222 426 l 257
 1464 426 l 257
1944 758 m 257
 1445 1091 l 257
 1203 1091 l 257
 1701 758 l 257
 1944 758 l 257
EndSplineSet
EndChar

StartChar: uni25B8
Encoding: 670 9656 670
GlifName: rightB_lackS_mallT_riangle
Width: 2048
VWidth: 0
GlyphClass: 2
Flags: W
LayerCount: 2
Fore
SplineSet
1291 639 m 257
 878 879 l 257
 875 395 l 257
 1291 639 l 257
EndSplineSet
EndChar

StartChar: uni25B6
Encoding: 671 9654 671
GlifName: rightB_lackT_riangle
Width: 2048
VWidth: 0
GlyphClass: 2
Flags: W
LayerCount: 2
Fore
SplineSet
1496 769 m 257
 808 1169 l 257
 804 361 l 257
 1496 769 l 257
EndSplineSet
EndChar

StartChar: uni25B9
Encoding: 672 9657 672
GlifName: rightW_hiteS_mallT_riangle
Width: 2048
VWidth: 0
GlyphClass: 2
Flags: W
LayerCount: 2
Fore
SplineSet
1353 665 m 257
 940 905 l 257
 937 421 l 257
 1353 665 l 257
1295 665 m 257
 963 469 l 257
 964 857 l 257
 1295 665 l 257
EndSplineSet
EndChar

StartChar: uni25B7
Encoding: 673 9655 673
GlifName: rightW_hiteT_riangle
Width: 2048
VWidth: 0
GlyphClass: 2
Flags: W
LayerCount: 2
Fore
SplineSet
1481 621 m 257
 793 1021 l 257
 789 213 l 257
 1481 621 l 257
1385 620 m 257
 831 294 l 257
 834 940 l 257
 1385 620 l 257
EndSplineSet
EndChar

StartChar: ring
Encoding: 674 730 674
GlifName: ring
Width: 2048
VWidth: 0
GlyphClass: 2
Flags: W
HStem: 1145 310<844 1204>
VStem: 844 360<1145 1455 1145 1455>
LayerCount: 2
Fore
SplineSet
949 1364 m 257
 1097 1364 l 257
 1097 1234 l 257
 949 1234 l 257
 949 1364 l 257
844 1455 m 257
 844 1145 l 257
 1204 1145 l 257
 1204 1455 l 257
 844 1455 l 257
EndSplineSet
PickledDataWithLists: "(dp0
Vcom.fontlab.hintData
p1
(dp2
Vhhints
p3
(lp4
(dp5
Vposition
p6
I1145
sVwidth
p7
I310
sasVvhints
p8
(lp9
(dp10
g6
I844
sg7
I360
sass."
EndChar

StartChar: uni0325
Encoding: 675 805 675
GlifName: ringbelowcomb
Width: 0
VWidth: 0
GlyphClass: 4
Flags: W
AnchorPoint: "base" 7 -94 mark 0
LayerCount: 2
Fore
SplineSet
-44 -251 m 257
 104 -251 l 257
 104 -381 l 257
 -44 -381 l 257
 -44 -251 l 257
-149 -160 m 257
 -149 -470 l 257
 211 -470 l 257
 211 -160 l 257
 -149 -160 l 257
EndSplineSet
EndChar

StartChar: s
Encoding: 682 115 682
GlifName: s
Width: 2048
VWidth: 0
GlyphClass: 2
Flags: W
AnchorPoint: "top" 1013 1148 basechar 0
AnchorPoint: "base" 1021 -76 basechar 0
LayerCount: 2
Fore
SplineSet
219 1023 m 257
 219 826 l 257
 1828 826 l 257
 1828 1023 l 257
 219 1023 l 257
219 1023 m 257
 219 736 l 257
 419 736 l 257
 419 1023 l 257
 219 1023 l 257
220 201 m 257
 220 0 l 257
 1825 0 l 257
 1825 201 l 257
 220 201 l 257
1624 293 m 257
 1624 12 l 257
 1824 12 l 257
 1824 293 l 257
 1624 293 l 257
220 736 m 257
 1624 293 l 257
 1824 293 l 257
 420 736 l 257
 220 736 l 257
EndSplineSet
EndChar

StartChar: uniA78C
Encoding: 684 42892 684
GlifName: saltillo
Width: 2048
VWidth: 0
GlyphClass: 2
Flags: W
LayerCount: 2
Fore
SplineSet
948 1458 m 257
 1032 813 l 257
 1138 808 l 257
 1222 1458 l 257
 948 1458 l 257
EndSplineSet
EndChar

StartChar: section
Encoding: 689 167 689
GlifName: section
Width: 2048
VWidth: 0
GlyphClass: 2
Flags: W
LayerCount: 2
Fore
SplineSet
634 1238 m 257
 634 1035 l 257
 1232 1035 l 257
 1232 1238 l 257
 634 1238 l 257
634 1241 m 257
 634 605 l 257
 836 605 l 257
 836 1241 l 257
 634 1241 l 257
670 -61 m 257
 670 -260 l 257
 1378 -260 l 257
 1378 -61 l 257
 670 -61 l 257
1214 -259 m 257
 1414 -259 l 257
 1414 95 l 257
 1214 95 l 257
 1214 -259 l 257
634 605 m 257
 1214 95 l 257
 1414 95 l 257
 836 605 l 257
 634 605 l 257
634 1626 m 257
 634 1423 l 257
 1232 1423 l 257
 1232 1626 l 257
 634 1626 l 257
634 1629 m 257
 634 1237 l 257
 836 1237 l 257
 836 1629 l 257
 634 1629 l 257
662 286 m 257
 662 87 l 257
 1370 87 l 257
 1370 286 l 257
 662 286 l 257
1204 88 m 257
 1406 88 l 257
 1406 442 l 257
 1204 442 l 257
 1204 88 l 257
634 1237 m 257
 1204 442 l 257
 1406 442 l 257
 836 1237 l 257
 634 1237 l 257
EndSplineSet
EndChar

StartChar: semicolon
Encoding: 690 59 690
GlifName: semicolon
Width: 2048
VWidth: 0
GlyphClass: 2
Flags: W
LayerCount: 2
Fore
SplineSet
912 430 m 257
 912 201 l 257
 1160 201 l 257
 1160 430 l 257
 912 430 l 257
1010 328 m 257
 892 47 l 257
 1036 -13 l 257
 1158 197 l 257
 1010 328 l 257
888 871 m 257
 888 624 l 257
 1154 624 l 257
 1154 871 l 257
 888 871 l 257
EndSplineSet
EndChar

StartChar: seven
Encoding: 692 55 692
GlifName: seven
Width: 2048
VWidth: 0
GlyphClass: 2
Flags: W
LayerCount: 2
Fore
SplineSet
54 1355 m 257
 1788 1355 l 257
 1788 0 l 257
 1991 0 l 257
 1991 1557 l 257
 54 1557 l 257
 54 1355 l 257
EndSplineSet
Substitution2: "supsSuperscriptinLatinlookup16 subtable" uni2077
EndChar

StartChar: uni0448
Encoding: 694 1096 694
GlifName: sha-cy
Width: 2048
VWidth: 0
Flags: W
LayerCount: 2
Fore
SplineSet
134 1024 m 257
 134 3 l 257
 334 3 l 257
 334 1024 l 257
 134 1024 l 257
1729 1029 m 257
 1729 0 l 257
 1929 0 l 257
 1929 1029 l 257
 1729 1029 l 257
143 200 m 257
 143 0 l 257
 1929 0 l 257
 1929 200 l 257
 143 200 l 257
931 1033 m 257
 931 4 l 257
 1131 4 l 257
 1131 1033 l 257
 931 1033 l 257
EndSplineSet
EndChar

StartChar: uni0449
Encoding: 695 1097 695
GlifName: shcha-cy
Width: 2048
VWidth: 0
Flags: W
LayerCount: 2
Fore
SplineSet
37 1024 m 257
 37 3 l 257
 237 3 l 257
 237 1024 l 257
 37 1024 l 257
1632 1029 m 257
 1632 0 l 257
 1832 0 l 257
 1832 1029 l 257
 1632 1029 l 257
46 200 m 257
 46 0 l 257
 1832 0 l 257
 1832 200 l 257
 46 200 l 257
1828 198 m 257
 1828 -401 l 257
 2027 -401 l 257
 2027 198 l 257
 1828 198 l 257
834 1033 m 257
 834 4 l 257
 1034 4 l 257
 1034 1033 l 257
 834 1033 l 257
EndSplineSet
EndChar

StartChar: uni20AA
Encoding: 696 8362 696
GlifName: sheqel
Width: 2048
VWidth: 0
GlyphClass: 2
Flags: W
LayerCount: 2
Fore
SplineSet
629 1534 m 257
 629 4 l 257
 791 4 l 257
 791 1534 l 257
 629 1534 l 257
629 1538 m 257
 629 1381 l 257
 1100 1381 l 257
 1100 1538 l 257
 629 1538 l 257
1015 1538 m 257
 1132 1278 l 257
 1280 1277 l 257
 1168 1538 l 257
 1015 1538 l 257
1132 1278 m 257
 1136 673 l 257
 1280 673 l 257
 1280 1277 l 257
 1132 1278 l 257
1480 8 m 257
 1480 1538 l 257
 1318 1538 l 257
 1318 8 l 257
 1480 8 l 257
1480 4 m 257
 1480 161 l 257
 1009 161 l 257
 1009 4 l 257
 1480 4 l 257
1094 4 m 257
 977 264 l 257
 829 265 l 257
 941 4 l 257
 1094 4 l 257
977 264 m 257
 973 869 l 257
 829 869 l 257
 829 265 l 257
 977 264 l 257
EndSplineSet
EndChar

StartChar: sigma
Encoding: 698 963 698
GlifName: sigma
Width: 2048
VWidth: 0
GlyphClass: 2
Flags: W
LayerCount: 2
Fore
SplineSet
51 1023 m 257
 38 0 l 257
 238 0 l 257
 251 1023 l 257
 51 1023 l 257
1376 1023 m 257
 1363 0 l 257
 1565 0 l 257
 1578 1023 l 257
 1376 1023 l 257
174 1023 m 257
 171 822 l 257
 2003 822 l 257
 2006 1023 l 257
 174 1023 l 257
167 200 m 257
 165 0 l 257
 1505 0 l 257
 1507 200 l 257
 167 200 l 257
EndSplineSet
EndChar

StartChar: sigma1
Encoding: 699 962 699
GlifName: sigmafinal
Width: 2048
VWidth: 0
GlyphClass: 2
Flags: W
LayerCount: 2
Fore
SplineSet
164 1023 m 257
 164 823 l 257
 1884 823 l 257
 1884 1023 l 257
 164 1023 l 257
166 984 m 257
 166 51 l 257
 366 53 l 257
 366 986 l 257
 166 984 l 257
203 253 m 257
 203 53 l 257
 1881 51 l 257
 1881 251 l 257
 203 253 l 257
1231 -124 m 257
 1231 -324 l 257
 1881 -324 l 257
 1881 -124 l 257
 1231 -124 l 257
1681 100 m 257
 1681 -284 l 257
 1881 -284 l 257
 1881 100 l 257
 1681 100 l 257
EndSplineSet
EndChar

StartChar: six
Encoding: 700 54 700
GlifName: six
Width: 2048
VWidth: 0
GlyphClass: 2
Flags: W
LayerCount: 2
Fore
SplineSet
41 1548 m 257
 41 201 l 257
 41 0 l 257
 2004 0 l 257
 2004 959 l 257
 244 959 l 257
 244 1348 l 257
 2009 1348 l 257
 2009 1548 l 257
 41 1548 l 257
1796 759 m 257
 1796 203 l 257
 250 203 l 257
 250 759 l 257
 1796 759 l 257
EndSplineSet
Substitution2: "supsSuperscriptinLatinlookup16 subtable" uni2076
EndChar

StartChar: slash
Encoding: 701 47 701
GlifName: slash
Width: 2048
VWidth: 0
GlyphClass: 2
Flags: W
LayerCount: 2
Fore
SplineSet
1215 1483 m 257
 645 6 l 257
 833 -67 l 257
 1403 1410 l 257
 1215 1483 l 257
EndSplineSet
EndChar

StartChar: uni044C
Encoding: 703 1100 703
GlifName: softsign-cy
Width: 2048
VWidth: 0
Flags: W
AnchorPoint: "base" 1014 -78 basechar 0
AnchorPoint: "top" 258 1604 basechar 0
LayerCount: 2
Fore
SplineSet
55 1017 m 257
 55 0 l 257
 254 0 l 257
 254 1017 l 257
 55 1017 l 257
152 641 m 257
 152 442 l 257
 1808 442 l 257
 1808 641 l 257
 152 641 l 257
1748 641 m 257
 1748 0 l 257
 1947 0 l 257
 1947 641 l 257
 1748 641 l 257
180 207 m 257
 180 0 l 257
 1868 0 l 257
 1868 207 l 257
 180 207 l 257
EndSplineSet
EndChar

StartChar: uni2198
Encoding: 704 8600 704
GlifName: southE_astA_rrow
Width: 2048
VWidth: 0
GlyphClass: 2
Flags: W
LayerCount: 2
Fore
SplineSet
1432 188 m 257
 1581 338 l 257
 432 1487 l 257
 282 1337 l 257
 1432 188 l 257
1099 208 m 257
 1673 103 l 257
 1502 275 l 257
 928 379 l 257
 1099 208 l 257
1673 103 m 257
 1556 692 l 257
 1385 863 l 257
 1502 275 l 257
 1673 103 l 257
EndSplineSet
EndChar

StartChar: uni2199
Encoding: 705 8601 705
GlifName: southW_estA_rrow
Width: 2048
VWidth: 0
GlyphClass: 2
Flags: W
LayerCount: 2
Fore
SplineSet
446 346 m 257
 595 197 l 257
 1744 1346 l 257
 1595 1495 l 257
 446 346 l 257
466 678 m 257
 361 104 l 257
 532 275 l 257
 637 849 l 257
 466 678 l 257
361 104 m 257
 949 222 l 257
 1120 393 l 257
 533 276 l 257
 361 104 l 257
EndSplineSet
EndChar

StartChar: sterling
Encoding: 707 163 707
GlifName: sterling
Width: 2048
VWidth: 0
GlyphClass: 2
Flags: W
LayerCount: 2
Fore
SplineSet
934 1543 m 257
 934 1344 l 257
 1225 1344 l 257
 1225 1543 l 257
 934 1543 l 257
607 770 m 257
 607 571 l 257
 1333 571 l 257
 1333 770 l 257
 607 770 l 257
890 1542 m 257
 890 0 l 257
 1088 0 l 257
 1088 1542 l 257
 890 1542 l 257
715 202 m 257
 715 0 l 257
 1441 0 l 257
 1441 202 l 257
 715 202 l 257
EndSplineSet
EndChar

StartChar: summation
Encoding: 708 8721 708
GlifName: summation
Width: 2048
VWidth: 0
GlyphClass: 2
Flags: W
LayerCount: 2
Fore
SplineSet
1216 830 m 257
 110 112 l 257
 110 -112 l 257
 1216 627 l 257
 1216 830 l 257
1218 823 m 257
 128 1539 l 257
 129 1338 l 257
 1218 624 l 257
 1218 823 l 257
1874 1337 m 257
 1874 1537 l 257
 128 1537 l 257
 128 1337 l 257
 1874 1337 l 257
1812 -98 m 257
 1812 108 l 257
 125 108 l 257
 125 -98 l 257
 1812 -98 l 257
EndSplineSet
EndChar

StartChar: t
Encoding: 709 116 709
GlifName: t
Width: 2048
VWidth: 0
GlyphClass: 2
Flags: W
AnchorPoint: "top" 1009 1652 basechar 0
AnchorPoint: "base" 1020 -92 basechar 0
LayerCount: 2
Fore
SplineSet
922 1548 m 257
 922 0 l 257
 1122 0 l 257
 1122 1548 l 257
 922 1548 l 257
930 199 m 257
 930 0 l 257
 1822 0 l 257
 1822 199 l 257
 930 199 l 257
186 1023 m 257
 186 824 l 257
 1860 824 l 257
 1860 1023 l 257
 186 1023 l 257
EndSplineSet
EndChar

StartChar: tcaron
Encoding: 712 357 712
GlifName: tcaron
Width: 2048
VWidth: 0
GlyphClass: 2
Flags: W
AnchorPoint: "base" 1024 -78 basechar 0
LayerCount: 2
Fore
SplineSet
854 1529 m 257
 854 0 l 257
 1055 0 l 257
 1055 1529 l 257
 854 1529 l 257
1007 199 m 257
 1007 0 l 257
 1910 0 l 257
 1910 199 l 257
 1007 199 l 257
70 1023 m 257
 70 824 l 257
 1873 824 l 257
 1873 1023 l 257
 70 1023 l 257
1396 1496 m 257
 1396 1291 l 257
 1526 1291 l 257
 1526 1496 l 257
 1396 1496 l 257
EndSplineSet
EndChar

StartChar: uni0236
Encoding: 714 566 714
GlifName: tcurl
Width: 2048
VWidth: 0
GlyphClass: 2
Flags: W
AnchorPoint: "top" 1009 1652 basechar 0
AnchorPoint: "base" 1020 -92 basechar 0
LayerCount: 2
Fore
SplineSet
922 1548 m 257
 922 0 l 257
 1122 0 l 257
 1122 1548 l 257
 922 1548 l 257
930 199 m 257
 930 0 l 257
 1822 0 l 257
 1822 199 l 257
 930 199 l 257
186 1023 m 257
 186 824 l 257
 1860 824 l 257
 1860 1023 l 257
 186 1023 l 257
603 214 m 257
 603 15 l 257
 1631 358 l 257
 1631 557 l 257
 603 214 l 257
1631 2 m 257
 1827 1 l 257
 1827 556 l 257
 1631 557 l 257
 1631 2 l 257
EndSplineSet
EndChar

StartChar: uni0442
Encoding: 715 1090 715
GlifName: te-cy
Width: 2048
VWidth: 0
Flags: W
AnchorPoint: "top" 1027 1613 basechar 0
AnchorPoint: "base" 1016 -92 basechar 0
LayerCount: 2
Fore
SplineSet
125 1021 m 257
 125 821 l 257
 1923 821 l 257
 1923 1021 l 257
 125 1021 l 257
924 909 m 257
 924 6 l 257
 1124 6 l 257
 1124 909 l 257
 924 909 l 257
EndSplineSet
EndChar

StartChar: theta
Encoding: 717 952 717
GlifName: theta
Width: 2048
VWidth: 0
GlyphClass: 2
Flags: W
LayerCount: 2
Fore
SplineSet
242 908 m 257
 242 708 l 257
 1876 701 l 257
 1876 901 l 257
 242 908 l 257
295 1276 m 257
 1004 1359 l 257
 1754 1282 l 257
 1754 301 l 257
 998 208 l 257
 295 301 l 257
 295 1276 l 257
93 1425 m 257
 93 163 l 257
 1014 7 l 257
 1954 163 l 257
 1954 1431 l 257
 985 1559 l 257
 93 1425 l 257
EndSplineSet
EndChar

StartChar: uni01AD
Encoding: 718 429 718
GlifName: thook
Width: 2048
VWidth: 0
GlyphClass: 2
Flags: W
AnchorPoint: "top" 1009 1652 basechar 0
AnchorPoint: "base" 1020 -92 basechar 0
LayerCount: 2
Fore
SplineSet
922 1548 m 257
 922 0 l 257
 1122 0 l 257
 1122 1548 l 257
 922 1548 l 257
930 199 m 257
 930 0 l 257
 1822 0 l 257
 1822 199 l 257
 930 199 l 257
186 1023 m 257
 186 824 l 257
 1860 824 l 257
 1860 1023 l 257
 186 1023 l 257
1475.74 1591.41 m 257
 916.781 1584.51 l 257
 919.25 1384.53 l 257
 1476.21 1391.4 l 257
 1475.74 1591.41 l 257
916.781 1584.51 m 257
 921.298 1218.54 l 257
 1121.28 1221.01 l 257
 1116.77 1586.98 l 257
 916.781 1584.51 l 257
EndSplineSet
EndChar

StartChar: thorn
Encoding: 719 254 719
GlifName: thorn
Width: 2048
VWidth: 0
GlyphClass: 2
Flags: W
AnchorPoint: "base" 776 -491 basechar 0
LayerCount: 2
Fore
SplineSet
173 1630 m 257
 173 -406 l 257
 373 -406 l 257
 373 1630 l 257
 173 1630 l 257
360 1012 m 257
 360 813 l 257
 1940 813 l 257
 1940 1012 l 257
 360 1012 l 257
368 204 m 257
 368 3 l 257
 1938 3 l 257
 1938 204 l 257
 368 204 l 257
1740 942 m 257
 1740 94 l 257
 1938 94 l 257
 1938 942 l 257
 1740 942 l 257
EndSplineSet
EndChar

StartChar: three
Encoding: 720 51 720
GlifName: three
Width: 2048
VWidth: 0
GlyphClass: 2
Flags: W
LayerCount: 2
Fore
SplineSet
101 736 m 257
 1783 736 l 257
 1783 192 l 257
 59 192 l 257
 59 -8 l 257
 1987 -8 l 257
 1987 1553 l 257
 89 1553 l 257
 89 1353 l 257
 1781 1353 l 257
 1781 936 l 257
 101 936 l 257
 101 736 l 257
EndSplineSet
Substitution2: "supsSuperscriptinLatinlookup16 subtable" uni00B3
EndChar

StartChar: tilde
Encoding: 723 732 723
GlifName: tilde
Width: 2048
VWidth: 0
GlyphClass: 2
Flags: W
LayerCount: 2
Fore
SplineSet
878 1305 m 257
 878 1206 l 257
 1228 1145 l 257
 1228 1244 l 257
 878 1305 l 257
640 1247 m 257
 654 1149 l 257
 878 1206 l 257
 878 1305 l 257
 640 1247 l 257
1228 1244 m 257
 1228 1145 l 257
 1408 1286 l 257
 1384 1382 l 257
 1228 1244 l 257
EndSplineSet
EndChar

StartChar: tildecomb
Encoding: 725 771 725
GlifName: tildecomb
Width: 0
VWidth: 0
GlyphClass: 4
Flags: W
AnchorPoint: "top" 0 766 mark 0
LayerCount: 2
Fore
SplineSet
-183 975 m 257
 -183 876 l 257
 167 815 l 257
 167 914 l 257
 -183 975 l 257
-421 917 m 257
 -407 819 l 257
 -183 876 l 257
 -183 975 l 257
 -421 917 l 257
167 914 m 257
 167 815 l 257
 347 956 l 257
 323 1052 l 257
 167 914 l 257
EndSplineSet
EndChar

StartChar: tonos
Encoding: 727 900 727
GlifName: tonos
Width: 2048
VWidth: 0
GlyphClass: 2
Flags: W
AnchorPoint: "top" -1 785 mark 0
LayerCount: 2
Fore
SplineSet
1116 1074 m 257
 986 820 l 257
 1074 774 l 257
 1205 1029 l 257
 1116 1074 l 257
EndSplineSet
EndChar

StartChar: uni0288
Encoding: 729 648 729
GlifName: tretroflexhook
Width: 2048
VWidth: 0
GlyphClass: 2
Flags: W
AnchorPoint: "top" 1009 1652 basechar 0
AnchorPoint: "base" 1041 -497 basechar 0
LayerCount: 2
Fore
SplineSet
922 1548 m 257
 922 -423 l 257
 1122 -423 l 257
 1122 1548 l 257
 922 1548 l 257
930 -224 m 257
 930 -423 l 257
 1822 -423 l 257
 1822 -224 l 257
 930 -224 l 257
186 1023 m 257
 186 824 l 257
 1860 824 l 257
 1860 1023 l 257
 186 1023 l 257
EndSplineSet
EndChar

StartChar: uni0446
Encoding: 730 1094 730
GlifName: tse-cy
Width: 2048
VWidth: 0
Flags: W
LayerCount: 2
Fore
SplineSet
37 1024 m 257
 37 3 l 257
 237 3 l 257
 237 1024 l 257
 37 1024 l 257
1632 1029 m 257
 1632 0 l 257
 1832 0 l 257
 1832 1029 l 257
 1632 1029 l 257
46 200 m 257
 46 0 l 257
 1832 0 l 257
 1832 200 l 257
 46 200 l 257
1828 198 m 257
 1828 -401 l 257
 2027 -401 l 257
 2027 198 l 257
 1828 198 l 257
EndSplineSet
EndChar

StartChar: uni045B
Encoding: 731 1115 731
GlifName: tshe-cy
Width: 2048
VWidth: 0
Flags: W
LayerCount: 2
Fore
SplineSet
48 1365 m 257
 48 1165 l 257
 1604 1165 l 257
 1604 1365 l 257
 48 1365 l 257
745 1544 m 257
 745 -1 l 257
 945 -1 l 257
 945 1544 l 257
 745 1544 l 257
828 994 m 257
 828 794 l 257
 1953 794 l 257
 1953 994 l 257
 828 994 l 257
1753 989 m 257
 1753 0 l 257
 1953 0 l 257
 1953 989 l 257
 1753 989 l 257
EndSplineSet
EndChar

StartChar: two
Encoding: 733 50 733
GlifName: two
Width: 2048
VWidth: 0
GlyphClass: 2
Flags: W
LayerCount: 2
Fore
SplineSet
109 1344 m 257
 1742 1344 l 257
 1742 908 l 257
 116 908 l 257
 116 0 l 257
 1928 0 l 257
 1928 200 l 257
 319 200 l 257
 319 707 l 257
 1942 707 l 257
 1942 1548 l 257
 109 1548 l 257
 109 1344 l 257
EndSplineSet
Substitution2: "supsSuperscriptinLatinlookup16 subtable" uni00B2
EndChar

StartChar: u
Encoding: 735 117 735
GlifName: u
Width: 2048
VWidth: 0
GlyphClass: 2
Flags: W
AnchorPoint: "top" 886 1126 basechar 0
AnchorPoint: "base" 1025 -78 basechar 0
LayerCount: 2
Fore
SplineSet
150 1023 m 257
 150 0 l 257
 350 0 l 257
 350 1023 l 257
 150 1023 l 257
1382 1023 m 257
 1382 0 l 257
 1582 0 l 257
 1582 1023 l 257
 1382 1023 l 257
196 200 m 257
 196 0 l 257
 1898 0 l 257
 1898 200 l 257
 196 200 l 257
EndSplineSet
EndChar

StartChar: underscore
Encoding: 747 95 747
GlifName: underscore
Width: 2048
VWidth: 0
GlyphClass: 2
Flags: W
LayerCount: 2
Fore
SplineSet
0 -5 m 257
 0 -71 l 257
 2052 -71 l 257
 2052 -5 l 257
 0 -5 l 257
EndSplineSet
EndChar

StartChar: uni018F
Encoding: 765 399 765
GlifName: uni018F_
Width: 2048
VWidth: 0
GlyphClass: 2
Flags: W
AnchorPoint: "top" 568 1630 basechar 0
AnchorPoint: "base" 690 -117 basechar 0
LayerCount: 2
Fore
SplineSet
1717 0 m 257
 1717 200 l 257
 265 200 l 257
 265 0 l 257
 1717 0 l 257
1767 0 m 257
 1767 1543 l 257
 1565 1543 l 257
 1565 0 l 257
 1767 0 l 257
1665 1342 m 257
 1665 1543 l 257
 170 1543 l 257
 170 1342 l 257
 1665 1342 l 257
1729 668 m 257
 1729 868 l 257
 162 868 l 257
 162 668 l 257
 1729 668 l 257
462 30 m 257
 302 869 l 257
 107 869 l 257
 267 30 l 257
 462 30 l 257
EndSplineSet
EndChar

StartChar: florin
Encoding: 766 402 766
GlifName: uni0192
Width: 2048
VWidth: 0
GlyphClass: 2
Flags: W
LayerCount: 2
Fore
SplineSet
763 1023 m 257
 763 -406 l 257
 963 -406 l 257
 963 1023 l 257
 763 1023 l 257
825 1023 m 257
 825 831 l 257
 1603 831 l 257
 1603 1023 l 257
 825 1023 l 257
229 559 m 257
 229 356 l 257
 1506 356 l 257
 1506 559 l 257
 229 559 l 257
167 -201 m 257
 167 -406 l 257
 965 -406 l 257
 965 -201 l 257
 167 -201 l 257
EndSplineSet
EndChar

StartChar: uni0237
Encoding: 847 567 847
GlifName: uni0237
Width: 2048
VWidth: 0
GlyphClass: 2
Flags: W
AnchorPoint: "top" 1722 1119 basechar 0
LayerCount: 2
Fore
SplineSet
1640 1023 m 257
 1640 -411 l 257
 1838 -411 l 257
 1838 1023 l 257
 1640 1023 l 257
210 -209 m 257
 210 -406 l 257
 1740 -406 l 257
 1740 -209 l 257
 210 -209 l 257
210 -6 m 257
 210 -351 l 257
 410 -351 l 257
 410 -6 l 257
 210 -6 l 257
EndSplineSet
EndChar

StartChar: uni0259
Encoding: 848 601 848
GlifName: uni0259
Width: 2048
VWidth: 0
GlyphClass: 2
Flags: W
AnchorPoint: "top" 1028 1103 basechar 0
AnchorPoint: "base" 1027 -82 basechar 0
LayerCount: 2
Fore
SplineSet
1828 0 m 257
 1828 211 l 257
 240 278 l 257
 240 67 l 257
 1828 0 l 257
1878 0 m 257
 1878 1023 l 257
 1676 1023 l 257
 1676 0 l 257
 1878 0 l 257
1776 822 m 257
 1776 1023 l 257
 170 1023 l 257
 170 822 l 257
 1776 822 l 257
1808 398 m 257
 1808 577 l 257
 194 577 l 257
 194 398 l 257
 1808 398 l 257
437 97 m 257
 366 578 l 257
 171 578 l 257
 242 97 l 257
 437 97 l 257
EndSplineSet
EndChar

StartChar: uni02C9
Encoding: 852 713 852
GlifName: uni02C_9
Width: 2048
VWidth: 0
GlyphClass: 2
Flags: W
LayerCount: 2
Fore
SplineSet
744 1630 m 257
 744 1548 l 257
 1304 1548 l 257
 1304 1630 l 257
 744 1630 l 257
EndSplineSet
EndChar

StartChar: uni02CA
Encoding: 853 714 853
GlifName: uni02C_A_
Width: 2048
VWidth: 0
GlyphClass: 2
Flags: W
LayerCount: 2
Fore
SplineSet
1070 1330 m 257
 940 1076 l 257
 1028 1030 l 257
 1160 1285 l 257
 1070 1330 l 257
EndSplineSet
EndChar

StartChar: uni02CB
Encoding: 854 715 854
GlifName: uni02C_B_
Width: 2048
VWidth: 0
GlyphClass: 2
Flags: W
LayerCount: 2
Fore
SplineSet
918 2107 m 257
 1038 1871 l 257
 1130 1917 l 257
 1010 2154 l 257
 918 2107 l 257
EndSplineSet
EndChar

StartChar: uni0302
Encoding: 855 770 855
GlifName: uni0302
Width: 0
VWidth: 0
GlyphClass: 4
Flags: W
AnchorPoint: "top" 4 761 mark 0
LayerCount: 2
Fore
SplineSet
43 1146 m 257
 -32 1146 l 257
 -164 838 l 257
 -89 806 l 257
 43 1146 l 257
-29 1086 m 257
 99 806 l 257
 174 834 l 257
 43 1146 l 257
 -29 1086 l 257
EndSplineSet
EndChar

StartChar: uni0304
Encoding: 856 772 856
GlifName: uni0304
Width: 0
VWidth: 0
GlyphClass: 4
Flags: W
HStem: 1548 82
VStem: -280 560
AnchorPoint: "top" 10 776 mark 0
LayerCount: 2
Fore
SplineSet
-449 1006 m 257
 -443 834 l 257
 594 834 l 257
 589 1006 l 257
 -449 1006 l 257
EndSplineSet
PickledDataWithLists: "(dp0
Vcom.fontlab.hintData
p1
(dp2
Vhhints
p3
(lp4
(dp5
Vposition
p6
I1548
sVwidth
p7
I82
sasVvhints
p8
(lp9
(dp10
g6
I-280
sg7
I560
sass."
EndChar

StartChar: uni0305
Encoding: 857 773 857
GlifName: uni0305
Width: 0
VWidth: 0
GlyphClass: 4
Flags: W
HStem: 1542 60<-377 377>
AnchorPoint: "top" 542 1480 mark 0
LayerCount: 2
Fore
SplineSet
-377 1602 m 257
 -377 1542 l 257
 377 1542 l 257
 377 1602 l 257
 -377 1602 l 257
EndSplineSet
PickledDataWithLists: "(dp0
Vcom.fontlab.hintData
p1
(dp2
Vhhints
p3
(lp4
(dp5
Vposition
p6
I1542
sVwidth
p7
I60
sass."
EndChar

StartChar: uni0306
Encoding: 858 774 858
GlifName: uni0306
Width: 0
VWidth: 0
GlyphClass: 4
Flags: W
VStem: -330 660
AnchorPoint: "top" -7 774 mark 0
LayerCount: 2
Fore
SplineSet
137 933 m 257
 137 814 l 257
 302 882 l 257
 302 1030 l 257
 137 933 l 257
-187 933 m 257
 -187 814 l 257
 137 814 l 257
 137 933 l 257
 -187 933 l 257
-358 1015 m 257
 -358 933 l 257
 -187 814 l 257
 -187 933 l 257
 -358 1015 l 257
EndSplineSet
PickledDataWithLists: "(dp0
Vcom.fontlab.hintData
p1
(dp2
Vvhints
p3
(lp4
(dp5
Vposition
p6
I-330
sVwidth
p7
I660
sass."
EndChar

StartChar: uni0307
Encoding: 859 775 859
GlifName: uni0307
Width: 0
VWidth: 0
GlyphClass: 4
Flags: W
HStem: 1641 202
VStem: -112 224<814 1016 814 1016>
AnchorPoint: "top" 1 777 mark 0
LayerCount: 2
Fore
SplineSet
-112 1016 m 257
 -112 814 l 257
 112 814 l 257
 112 1016 l 257
 -112 1016 l 257
EndSplineSet
PickledDataWithLists: "(dp0
Vcom.fontlab.hintData
p1
(dp2
Vhhints
p3
(lp4
(dp5
Vposition
p6
I1641
sVwidth
p7
I202
sasVvhints
p8
(lp9
(dp10
g6
I-112
sg7
I224
sass."
EndChar

StartChar: uni0308
Encoding: 860 776 860
GlifName: uni0308
Width: 0
VWidth: 0
GlyphClass: 4
Flags: W
HStem: 1474 151<-266 -98 98 266>
AnchorPoint: "top" 0 1420 mark 0
LayerCount: 2
Fore
SplineSet
-266 1625 m 257
 -266 1474 l 257
 -98 1474 l 257
 -98 1625 l 257
 -266 1625 l 257
98 1625 m 257
 98 1474 l 257
 266 1474 l 257
 266 1625 l 257
 98 1625 l 257
EndSplineSet
PickledDataWithLists: "(dp0
Vcom.fontlab.hintData
p1
(dp2
Vhhints
p3
(lp4
(dp5
Vposition
p6
I1474
sVwidth
p7
I151
sass."
EndChar

StartChar: uni030A
Encoding: 861 778 861
GlifName: uni030A_
Width: 0
VWidth: 0
GlyphClass: 4
Flags: W
HStem: 1537 310
VStem: -180 360
AnchorPoint: "top" -6 771 mark 0
LayerCount: 2
Fore
SplineSet
-56 1004 m 257
 92 1004 l 257
 92 874 l 257
 -56 874 l 257
 -56 1004 l 257
-161 1095 m 257
 -161 785 l 257
 199 785 l 257
 199 1095 l 257
 -161 1095 l 257
EndSplineSet
PickledDataWithLists: "(dp0
Vcom.fontlab.hintData
p1
(dp2
Vhhints
p3
(lp4
(dp5
Vposition
p6
I1537
sVwidth
p7
I310
sasVvhints
p8
(lp9
(dp10
g6
I-180
sg7
I360
sass."
EndChar

StartChar: uni030B
Encoding: 862 779 862
GlifName: uni030B_
Width: 0
VWidth: 0
GlyphClass: 4
Flags: W
AnchorPoint: "top" -2 778 mark 0
LayerCount: 2
Fore
SplineSet
-263 802 m 257
 -119 802 l 257
 -119 1050 l 257
 -263 1050 l 257
 -263 802 l 257
137 802 m 257
 281 802 l 257
 281 1050 l 257
 137 1050 l 257
 137 802 l 257
EndSplineSet
EndChar

StartChar: uni030C
Encoding: 863 780 863
GlifName: uni030C_
Width: 0
VWidth: 0
GlyphClass: 4
Flags: W
AnchorPoint: "top" -1 751 mark 0
LayerCount: 2
Fore
SplineSet
27 810 m 257
 -79 1082 l 257
 -139 1057 l 257
 -33 810 l 257
 27 810 l 257
-34 809 m 257
 27 810 l 257
 171 1060 l 257
 111 1082 l 257
 -34 809 l 257
EndSplineSet
EndChar

StartChar: uni030F
Encoding: 864 783 864
GlifName: uni030F_
Width: 0
VWidth: 0
GlyphClass: 4
Flags: W
AnchorPoint: "top" -5 779 mark 0
LayerCount: 2
Fore
SplineSet
-50 1013 m 257
 70 777 l 257
 161 823 l 257
 42 1060 l 257
 -50 1013 l 257
-268 1013 m 257
 -148 777 l 257
 -57 823 l 257
 -176 1060 l 257
 -268 1013 l 257
EndSplineSet
EndChar

StartChar: uni0311
Encoding: 866 785 866
GlifName: uni0311
Width: 0
VWidth: 0
GlyphClass: 4
Flags: W
AnchorPoint: "top" -14 773 mark 0
LayerCount: 2
Fore
SplineSet
-174 831 m 257
 -174 899 l 257
 -339 831 l 257
 -339 734 l 257
 -174 831 l 257
150 831 m 257
 150 899 l 257
 -174 899 l 257
 -174 831 l 257
 150 831 l 257
321 749 m 257
 321 831 l 257
 150 899 l 257
 150 831 l 257
 321 749 l 257
EndSplineSet
EndChar

StartChar: uni0312
Encoding: 867 786 867
GlifName: uni0312
Width: 0
VWidth: 0
GlyphClass: 4
Flags: W
AnchorPoint: "top" 6 1468 mark 0
LayerCount: 2
Fore
SplineSet
-137 1557 m 257
 111 1557 l 257
 111 1786 l 257
 -137 1786 l 257
 -137 1557 l 257
-64 1659 m 257
 111 1787 l 257
 -13 2000 l 257
 -179 1882 l 257
 -64 1659 l 257
EndSplineSet
EndChar

StartChar: uni031B
Encoding: 868 795 868
GlifName: uni031B_
Width: 0
VWidth: 0
GlyphClass: 4
Flags: W
AnchorPoint: "top" 0 765 mark 0
LayerCount: 2
Fore
SplineSet
-64 1200 m 257
 -64 971 l 257
 184 971 l 257
 184 1200 l 257
 -64 1200 l 257
34 1098 m 257
 -84 817 l 257
 60 757 l 257
 182 963 l 257
 34 1098 l 257
EndSplineSet
EndChar

StartChar: uni0324
Encoding: 869 804 869
GlifName: uni0324
Width: 0
VWidth: 0
GlyphClass: 4
Flags: W
AnchorPoint: "base" -8 -147 mark 0
LayerCount: 2
Fore
SplineSet
164 -188 m 257
 164 -435 l 257
 428 -435 l 257
 428 -188 l 257
 164 -188 l 257
-425 -188 m 257
 -425 -435 l 257
 -161 -435 l 257
 -161 -188 l 257
 -425 -188 l 257
EndSplineSet
EndChar

StartChar: uni0326
Encoding: 870 806 870
GlifName: uni0326
Width: 0
VWidth: 0
GlyphClass: 4
Flags: W
AnchorPoint: "base" -13 -4 mark 0
LayerCount: 2
Fore
SplineSet
-114 0 m 257
 -114 -230 l 257
 134 -230 l 257
 134 0 l 257
 -114 0 l 257
-16 -103 m 257
 -134 -384 l 257
 10 -444 l 257
 132 -234 l 257
 -16 -103 l 257
EndSplineSet
EndChar

StartChar: uni0327
Encoding: 871 807 871
GlifName: uni0327
Width: 0
VWidth: 0
GlyphClass: 4
Flags: W
AnchorPoint: "base" -150 -12 mark 0
LayerCount: 2
Fore
SplineSet
-224 180 m 257
 -224 -144 l 257
 -68 -144 l 257
 -68 180 l 257
 -224 180 l 257
-222 -288 m 257
 -222 -406 l 257
 224 -406 l 257
 224 -288 l 257
 -222 -288 l 257
72 0 m 257
 72 -372 l 257
 224 -372 l 257
 224 0 l 257
 72 0 l 257
-222 0 m 257
 -222 -156 l 257
 224 -156 l 257
 224 0 l 257
 -222 0 l 257
EndSplineSet
EndChar

StartChar: uni0328
Encoding: 872 808 872
GlifName: uni0328
Width: 0
VWidth: 0
GlyphClass: 4
Flags: W
HStem: -406 406<-271 271 -271 -153 -153 -153>
VStem: -271 542<-406 -288 -406 -288 -406 -288 -121 0 -406 0 -406 -288 -406 -121 -121 0>
AnchorPoint: "base" -1191 0 mark 0
LayerCount: 2
Fore
SplineSet
-271 -288 m 257
 -271 -406 l 257
 271 -406 l 257
 271 -288 l 257
 -271 -288 l 257
-271 0 m 257
 -271 -406 l 257
 -153 -406 l 257
 -153 0 l 257
 -271 0 l 257
-271 0 m 257
 -271 -121 l 257
 271 -121 l 257
 271 0 l 257
 -271 0 l 257
EndSplineSet
PickledDataWithLists: "(dp0
Vcom.fontlab.hintData
p1
(dp2
Vhhints
p3
(lp4
(dp5
Vposition
p6
I-406
sVwidth
p7
I406
sasVvhints
p8
(lp9
(dp10
g6
I-271
sg7
I542
sass."
EndChar

StartChar: uni0329
Encoding: 873 809 873
GlifName: uni0329
Width: 0
VWidth: 0
GlyphClass: 4
Flags: W
AnchorPoint: "base" 4 -39 mark 0
LayerCount: 2
Fore
SplineSet
-99 -76 m 257
 -99 -419 l 257
 101 -419 l 257
 101 -76 l 257
 -99 -76 l 257
EndSplineSet
EndChar

StartChar: uni032E
Encoding: 874 814 874
GlifName: uni032E_
Width: 0
VWidth: 0
GlyphClass: 4
Flags: W
VStem: -298 660<-173 -91 -173 -76>
AnchorPoint: "base" -8 -4 mark 0
LayerCount: 2
Fore
SplineSet
197 -173 m 257
 197 -241 l 257
 362 -173 l 257
 362 -76 l 257
 197 -173 l 257
-127 -173 m 257
 -127 -241 l 257
 197 -241 l 257
 197 -173 l 257
 -127 -173 l 257
-298 -91 m 257
 -298 -173 l 257
 -127 -241 l 257
 -127 -173 l 257
 -298 -91 l 257
EndSplineSet
PickledDataWithLists: "(dp0
Vcom.fontlab.hintData
p1
(dp2
Vvhints
p3
(lp4
(dp5
Vposition
p6
I-298
sVwidth
p7
I660
sass."
EndChar

StartChar: uni0331
Encoding: 875 817 875
GlifName: uni0331
Width: 0
VWidth: 0
GlyphClass: 4
Flags: W
AnchorPoint: "base" 0 -15 mark 0
LayerCount: 2
Fore
SplineSet
-1000 -170 m 257
 -1000 -269 l 257
 1000 -269 l 257
 1000 -170 l 257
 -1000 -170 l 257
EndSplineSet
EndChar

StartChar: uni0335
Encoding: 877 821 877
GlifName: uni0335
Width: 0
VWidth: 0
GlyphClass: 4
Flags: W
HStem: 935 78<-575 -15>
VStem: -575 560<935 1013 935 1013>
AnchorPoint: "base" 4 -163 mark 0
LayerCount: 2
Fore
SplineSet
-575 1013 m 257
 -575 935 l 257
 -15 935 l 257
 -15 1013 l 257
 -575 1013 l 257
EndSplineSet
PickledDataWithLists: "(dp0
Vcom.fontlab.hintData
p1
(dp2
Vhhints
p3
(lp4
(dp5
Vposition
p6
I935
sVwidth
p7
I78
sasVvhints
p8
(lp9
(dp10
g6
I-575
sg7
I560
sass."
EndChar

StartChar: uni0345
Encoding: 878 837 878
GlifName: uni0345
Width: 0
VWidth: 0
GlyphClass: 4
Flags: W
LayerCount: 2
Fore
SplineSet
-100 111 m 257
 -100 -338 l 257
 100 -338 l 257
 100 111 l 257
 -100 111 l 257
-100 -338 m 257
 -22 -521 l 257
 313 -421 l 257
 236 -238 l 257
 -100 -338 l 257
EndSplineSet
EndChar

StartChar: uni0394
Encoding: 879 916 879
GlifName: uni0394
Width: 2048
VWidth: 0
GlyphClass: 2
Flags: W
LayerCount: 2
Fore
SplineSet
228 197 m 257
 125 -3 l 257
 1923 -3 l 257
 1818 197 l 257
 228 197 l 257
1941 0 m 257
 1169 1548 l 257
 948 1548 l 257
 1740 0 l 257
 1941 0 l 257
307 0 m 257
 1044 1548 l 257
 821 1548 l 257
 106 0 l 257
 307 0 l 257
EndSplineSet
EndChar

StartChar: uni03A9
Encoding: 880 937 880
GlifName: uni03A_9
Width: 2048
VWidth: 0
GlyphClass: 2
Flags: W
LayerCount: 2
Fore
SplineSet
1326 489 m 257
 1326 180 l 257
 1530 180 l 257
 1530 489 l 257
 1326 489 l 257
525 489 m 257
 525 180 l 257
 725 180 l 257
 725 489 l 257
 525 489 l 257
1326 213 m 257
 1326 9 l 257
 1939 9 l 257
 1939 213 l 257
 1326 213 l 257
112 213 m 257
 112 9 l 257
 725 9 l 257
 725 213 l 257
 112 213 l 257
1326 611 m 257
 1326 407 l 257
 1939 407 l 257
 1939 611 l 257
 1326 611 l 257
110 1537 m 257
 110 566 l 257
 311 566 l 257
 311 1537 l 257
 110 1537 l 257
1731 1537 m 257
 1731 566 l 257
 1934 566 l 257
 1934 1537 l 257
 1731 1537 l 257
174 1537 m 257
 174 1337 l 257
 1841 1337 l 257
 1841 1537 l 257
 174 1537 l 257
112 611 m 257
 112 407 l 257
 725 407 l 257
 725 611 l 257
 112 611 l 257
EndSplineSet
EndChar

StartChar: uni0900
Encoding: 918 2304 918
GlifName: uni0900
Width: 0
VWidth: 0
GlyphClass: 4
Flags: W
AnchorPoint: "abvm_deva" 42 1648 mark 0
LayerCount: 2
Fore
SplineSet
-402 2124 m 257
 -402 1639 l 257
 -203 1639 l 257
 -203 2124 l 257
 -402 2124 l 257
-356 2124 m 257
 -356 1925 l 257
 278 1925 l 257
 278 2124 l 257
 -356 2124 l 257
-90 1865 m 257
 -90 1665 l 257
 110 1665 l 257
 110 1865 l 257
 -90 1865 l 257
202 2124 m 257
 202 1636 l 257
 402 1636 l 257
 402 2124 l 257
 202 2124 l 257
EndSplineSet
EndChar

StartChar: uni0901
Encoding: 919 2305 919
GlifName: uni0901
Width: 0
VWidth: 0
GlyphClass: 4
Flags: W
AnchorPoint: "abvm_deva" 0 1618 mark 0
LayerCount: 2
Fore
SplineSet
-402 2124 m 257
 -402 1639 l 257
 -203 1639 l 257
 -203 2124 l 257
 -402 2124 l 257
-356 1842 m 257
 -356 1641 l 257
 278 1641 l 257
 278 1842 l 257
 -356 1842 l 257
-100 2095 m 257
 -100 1895 l 257
 100 1895 l 257
 100 2095 l 257
 -100 2095 l 257
202 2132 m 257
 202 1641 l 257
 402 1641 l 257
 402 2132 l 257
 202 2132 l 257
EndSplineSet
EndChar

StartChar: uni0902
Encoding: 920 2306 920
GlifName: uni0902
Width: 0
VWidth: 0
GlyphClass: 4
Flags: W
HStem: 1639 200<93 293>
VStem: 93 200<1639 1839 1639 1839>
AnchorPoint: "abvm_deva" -11 1615 mark 0
LayerCount: 2
Fore
SplineSet
93 1839 m 257
 93 1639 l 257
 293 1639 l 257
 293 1839 l 257
 93 1839 l 257
EndSplineSet
PickledDataWithLists: "(dp0
Vcom.fontlab.hintData
p1
(dp2
Vhhints
p3
(lp4
(dp5
Vposition
p6
I1639
sVwidth
p7
I200
sasVvhints
p8
(lp9
(dp10
g6
I93
sg7
I200
sass."
EndChar

StartChar: uni0903
Encoding: 921 2307 921
GlifName: uni0903
Width: 2048
VWidth: 0
GlyphClass: 2
Flags: W
LayerCount: 2
Fore
SplineSet
924 649 m 257
 924 449 l 257
 1124 449 l 257
 1124 649 l 257
 924 649 l 257
924 1317 m 257
 924 1117 l 257
 1124 1117 l 257
 1124 1317 l 257
 924 1317 l 257
EndSplineSet
EndChar

StartChar: uni0904
Encoding: 922 2308 922
GlifName: uni0904
Width: 2048
VWidth: 0
GlyphClass: 2
Flags: W
AnchorPoint: "abvm_deva" 636 1972 basechar 0
LayerCount: 2
Fore
SplineSet
766 2155 m 257
 766 1836 l 257
 964 1836 l 257
 964 2155 l 257
 766 2155 l 257
764 1967 m 257
 764 1768 l 257
 1936 1768 l 257
 1936 1967 l 257
 764 1967 l 257
1736 1956 m 257
 1736 1516 l 257
 1938 1516 l 257
 1938 1956 l 257
 1736 1956 l 257
1704 1548 m 257
 1704 1348 l 257
 2051 1348 l 257
 2051 1548 l 257
 1704 1548 l 257
1764 1419 m 257
 1764 0 l 257
 1964 0 l 257
 1964 1419 l 257
 1764 1419 l 257
38 1548 m 257
 38 1348 l 257
 1072 1348 l 257
 1072 1548 l 257
 38 1548 l 257
898 1548 m 257
 898 140 l 257
 1098 140 l 257
 1098 1548 l 257
 898 1548 l 257
122 894 m 257
 122 693 l 257
 1818 693 l 257
 1818 894 l 257
 122 894 l 257
12 201 m 257
 12 0 l 257
 1098 0 l 257
 1098 201 l 257
 12 201 l 257
EndSplineSet
EndChar

StartChar: uni0905
Encoding: 923 2309 923
GlifName: uni0905
Width: 2048
VWidth: 0
GlyphClass: 2
Flags: W
AnchorPoint: "abvm_deva" 1637 1598 basechar 0
LayerCount: 2
Fore
SplineSet
1671 1548 m 257
 1671 1347 l 257
 2050 1347 l 257
 2050 1548 l 257
 1671 1548 l 257
1800 1419 m 257
 1800 0 l 257
 1998 0 l 257
 1998 1419 l 257
 1800 1419 l 257
38 1548 m 257
 38 1348 l 257
 1072 1348 l 257
 1072 1548 l 257
 38 1548 l 257
898 1548 m 257
 898 140 l 257
 1098 140 l 257
 1098 1548 l 257
 898 1548 l 257
122 894 m 257
 122 693 l 257
 1854 693 l 257
 1854 894 l 257
 122 894 l 257
12 201 m 257
 12 0 l 257
 1098 0 l 257
 1098 201 l 257
 12 201 l 257
EndSplineSet
EndChar

StartChar: uni0906
Encoding: 924 2310 924
GlifName: uni0906
Width: 2048
VWidth: 0
GlyphClass: 2
Flags: W
AnchorPoint: "abvm_deva" 1634 1618 basechar 0
LayerCount: 2
Fore
SplineSet
1328 1548 m 257
 1328 1348 l 257
 2050 1348 l 257
 2050 1548 l 257
 1328 1548 l 257
1344 1419 m 257
 1344 0 l 257
 1543 0 l 257
 1543 1419 l 257
 1344 1419 l 257
25 1548 m 257
 25 1348 l 257
 897 1348 l 257
 897 1548 l 257
 25 1548 l 257
723 1548 m 257
 723 140 l 257
 923 140 l 257
 923 1548 l 257
 723 1548 l 257
109 894 m 257
 109 693 l 257
 1443 693 l 257
 1443 894 l 257
 109 894 l 257
0 201 m 257
 0 0 l 257
 923 0 l 257
 923 201 l 257
 0 201 l 257
1762 1420 m 257
 1762 0 l 257
 1961 0 l 257
 1961 1420 l 257
 1762 1420 l 257
EndSplineSet
EndChar

StartChar: uni0907
Encoding: 925 2311 925
GlifName: uni0907
Width: 2048
VWidth: 0
GlyphClass: 2
Flags: W
AnchorPoint: "abvm_deva" 1606 1600 basechar 0
LayerCount: 2
Fore
SplineSet
-6 1548 m 257
 -6 1349 l 257
 2054 1349 l 257
 2054 1548 l 257
 -6 1548 l 257
1064 1537 m 257
 1064 1110 l 257
 1264 1110 l 257
 1264 1537 l 257
 1064 1537 l 257
171 1205 m 257
 171 1004 l 257
 1264 1004 l 257
 1264 1205 l 257
 171 1205 l 257
171 1181 m 257
 171 738 l 257
 341 738 l 257
 341 1181 l 257
 171 1181 l 257
171 881 m 257
 171 681 l 257
 1278 681 l 257
 1278 881 l 257
 171 881 l 257
1157 881 m 257
 1157 262 l 257
 1356 262 l 257
 1356 881 l 257
 1157 881 l 257
149 298 m 257
 149 97 l 257
 1356 97 l 257
 1356 298 l 257
 149 298 l 257
265 298 m 257
 265 -244 l 257
 465 -244 l 257
 465 298 l 257
 265 298 l 257
EndSplineSet
EndChar

StartChar: uni0908
Encoding: 926 2312 926
GlifName: uni0908
Width: 2048
VWidth: 0
GlyphClass: 2
Flags: W
AnchorPoint: "abvm_deva" 1685 1612 basechar 0
LayerCount: 2
Fore
SplineSet
-6 1556 m 257
 -6 1355 l 257
 2054 1355 l 257
 2054 1556 l 257
 -6 1556 l 257
1064 1553 m 257
 1064 1110 l 257
 1264 1110 l 257
 1264 1553 l 257
 1064 1553 l 257
171 1205 m 257
 171 1004 l 257
 1264 1004 l 257
 1264 1205 l 257
 171 1205 l 257
171 1181 m 257
 171 738 l 257
 371 738 l 257
 371 1181 l 257
 171 1181 l 257
171 881 m 257
 171 681 l 257
 1278 681 l 257
 1278 881 l 257
 171 881 l 257
1175 881 m 257
 1175 285 l 257
 1356 285 l 257
 1356 881 l 257
 1175 881 l 257
149 298 m 257
 149 97 l 257
 1359 97 l 257
 1359 298 l 257
 149 298 l 257
265 298 m 257
 265 -244 l 257
 488 -244 l 257
 488 298 l 257
 265 298 l 257
274 1770 m 257
 1033 1423 l 257
 1196 1537 l 257
 436 1886 l 257
 274 1770 l 257
EndSplineSet
EndChar

StartChar: uni0909
Encoding: 927 2313 927
GlifName: uni0909
Width: 2048
VWidth: 0
GlyphClass: 2
Flags: W
AnchorPoint: "abvm_deva" 1617 1575 basechar 0
LayerCount: 2
Fore
SplineSet
0 1548 m 257
 0 1348 l 257
 2050 1348 l 257
 2050 1548 l 257
 0 1548 l 257
894 1530 m 257
 894 1001 l 257
 1093 1001 l 257
 1093 1530 l 257
 894 1530 l 257
237 1044 m 257
 237 845 l 257
 1591 845 l 257
 1591 1044 l 257
 237 1044 l 257
1392 994 m 257
 1392 8 l 257
 1592 8 l 257
 1592 994 l 257
 1392 994 l 257
132 201 m 257
 132 0 l 257
 1581 0 l 257
 1581 201 l 257
 132 201 l 257
132 363 m 257
 132 36 l 257
 332 36 l 257
 332 363 l 257
 132 363 l 257
EndSplineSet
EndChar

StartChar: uni090A
Encoding: 928 2314 928
GlifName: uni090A_
Width: 2048
VWidth: 0
GlyphClass: 2
Flags: W
AnchorPoint: "abvm_deva" 1606 1607 basechar 0
LayerCount: 2
Fore
SplineSet
-6 1548 m 257
 -6 1347 l 257
 2055 1347 l 257
 2055 1548 l 257
 -6 1548 l 257
818 1530 m 257
 818 1001 l 257
 1016 1001 l 257
 1016 1530 l 257
 818 1530 l 257
148 1044 m 257
 148 845 l 257
 1872 845 l 257
 1872 1044 l 257
 148 1044 l 257
1184 994 m 257
 1184 11 l 257
 1384 11 l 257
 1384 994 l 257
 1184 994 l 257
44 204 m 257
 44 5 l 257
 1382 5 l 257
 1382 204 l 257
 44 204 l 257
44 366 m 257
 44 39 l 257
 244 39 l 257
 244 366 l 257
 44 366 l 257
1672 946 m 257
 1672 217 l 257
 1872 217 l 257
 1872 946 l 257
 1672 946 l 257
EndSplineSet
EndChar

StartChar: uni090B
Encoding: 929 2315 929
GlifName: uni090B_
Width: 2048
VWidth: 0
GlyphClass: 2
Flags: W
AnchorPoint: "abvm_deva" 1685 1596 basechar 0
LayerCount: 2
Fore
SplineSet
0 1548 m 257
 0 1347 l 257
 2053 1347 l 257
 2053 1548 l 257
 0 1548 l 257
1018 1537 m 257
 1018 0 l 257
 1217 0 l 257
 1217 1537 l 257
 1018 1537 l 257
28 1044 m 257
 28 845 l 257
 332 845 l 257
 332 1044 l 257
 28 1044 l 257
1017 496 m 257
 124 329 l 257
 206 136 l 257
 1099 303 l 257
 1017 496 l 257
332 1044 m 257
 332 846 l 257
 1114 742 l 257
 1114 944 l 257
 332 1044 l 257
1201 897 m 257
 1201 699 l 257
 2016 699 l 257
 2016 897 l 257
 1201 897 l 257
1694 897 m 257
 1694 262 l 257
 1893 262 l 257
 1893 897 l 257
 1694 897 l 257
1770 464 m 257
 1770 264 l 257
 2034 264 l 257
 2034 464 l 257
 1770 464 l 257
EndSplineSet
EndChar

StartChar: uni090C
Encoding: 930 2316 930
GlifName: uni090C_
Width: 2048
VWidth: 0
GlyphClass: 2
Flags: W
AnchorPoint: "abvm_deva" 618 1588 basechar 0
LayerCount: 2
Fore
SplineSet
-8 1548 m 257
 -8 1348 l 257
 2056 1348 l 257
 2056 1548 l 257
 -8 1548 l 257
1065 1548 m 257
 1065 689 l 257
 1265 689 l 257
 1265 1548 l 257
 1065 1548 l 257
1764 791 m 257
 50 791 l 257
 50 590 l 257
 1764 590 l 257
 1764 791 l 257
50 777 m 257
 50 252 l 257
 251 252 l 257
 251 777 l 257
 50 777 l 257
701 791 m 257
 701 433 l 257
 902 433 l 257
 902 791 l 257
 701 791 l 257
1553 792 m 257
 1553 73 l 257
 1753 73 l 257
 1753 792 l 257
 1553 792 l 257
1628 259 m 257
 1628 71 l 257
 2054 71 l 257
 2054 259 l 257
 1628 259 l 257
EndSplineSet
EndChar

StartChar: uni090D
Encoding: 931 2317 931
GlifName: uni090D_
Width: 2048
VWidth: 0
GlyphClass: 2
Flags: W
AnchorPoint: "abvm_deva" 474 2104 basechar 0
LayerCount: 2
Fore
SplineSet
-5 1548 m 257
 -5 1348 l 257
 2049 1348 l 257
 2049 1548 l 257
 -5 1548 l 257
1748 1548 m 257
 1748 779 l 257
 1947 779 l 257
 1947 1548 l 257
 1748 1548 l 257
1189 839 m 257
 1189 639 l 257
 1947 639 l 257
 1947 839 l 257
 1189 839 l 257
142 1542 m 257
 142 338 l 257
 341 338 l 257
 341 1542 l 257
 142 1542 l 257
142 496 m 257
 142 297 l 257
 1124 297 l 257
 1124 496 l 257
 142 496 l 257
925 358 m 257
 925 -98 l 257
 1124 -98 l 257
 1124 358 l 257
 925 358 l 257
387 101 m 257
 387 -98 l 257
 1122 -98 l 257
 1122 101 l 257
 387 101 l 257
157 2124 m 257
 157 1639 l 257
 356 1639 l 257
 356 2124 l 257
 157 2124 l 257
203 1840 m 257
 203 1641 l 257
 1816 1641 l 257
 1816 1840 l 257
 203 1840 l 257
1641 2132 m 257
 1641 1641 l 257
 1840 1641 l 257
 1840 2132 l 257
 1641 2132 l 257
EndSplineSet
EndChar

StartChar: uni090E
Encoding: 932 2318 932
GlifName: uni090E_
Width: 2048
VWidth: 0
GlyphClass: 2
Flags: W
AnchorPoint: "abvm_deva" 2056 1660 basechar 0
LayerCount: 2
Fore
SplineSet
-5 1548 m 257
 -5 1348 l 257
 2049 1348 l 257
 2049 1548 l 257
 -5 1548 l 257
1748 1548 m 257
 1748 645 l 257
 1947 645 l 257
 1947 1548 l 257
 1748 1548 l 257
1221 845 m 257
 1221 645 l 257
 1947 645 l 257
 1947 845 l 257
 1221 845 l 257
142 1542 m 257
 142 338 l 257
 341 338 l 257
 341 1542 l 257
 142 1542 l 257
142 358 m 257
 142 159 l 257
 1117 159 l 257
 1117 358 l 257
 142 358 l 257
923 358 m 257
 923 -98 l 257
 1124 -98 l 257
 1124 358 l 257
 923 358 l 257
387 -38 m 257
 387 -238 l 257
 1122 -238 l 257
 1122 -38 l 257
 387 -38 l 257
270 2062 m 257
 270 1823 l 257
 470 1823 l 257
 470 2062 l 257
 270 2062 l 257
269 1868 m 257
 269 1667 l 257
 1971 1667 l 257
 1971 1868 l 257
 269 1868 l 257
1769 1858 m 257
 1769 1537 l 257
 1971 1537 l 257
 1971 1858 l 257
 1769 1858 l 257
EndSplineSet
EndChar

StartChar: uni090F
Encoding: 933 2319 933
GlifName: uni090F_
Width: 2048
VWidth: 0
GlyphClass: 2
Flags: W
AnchorPoint: "abvm_deva" 522 1630 basechar 0
LayerCount: 2
Fore
SplineSet
10 1548 m 257
 10 1348 l 257
 2038 1348 l 257
 2038 1548 l 257
 10 1548 l 257
1736 1548 m 257
 1736 782 l 257
 1936 782 l 257
 1936 1548 l 257
 1736 1548 l 257
1142 979 m 257
 1142 779 l 257
 1936 779 l 257
 1936 979 l 257
 1142 979 l 257
150 1542 m 257
 150 338 l 257
 350 338 l 257
 350 1542 l 257
 150 1542 l 257
150 497 m 257
 150 297 l 257
 1250 297 l 257
 1250 497 l 257
 150 497 l 257
1056 473 m 257
 1056 -98 l 257
 1256 -98 l 257
 1256 473 l 257
 1056 473 l 257
394 102 m 257
 394 -98 l 257
 1254 -98 l 257
 1254 102 l 257
 394 102 l 257
EndSplineSet
EndChar

StartChar: uni0910
Encoding: 934 2320 934
GlifName: uni0910
Width: 2048
VWidth: 0
GlyphClass: 2
Flags: W
AnchorPoint: "abvm_deva" 1989 1619 basechar 0
LayerCount: 2
Fore
SplineSet
0 1548 m 257
 0 1348 l 257
 2050 1348 l 257
 2050 1548 l 257
 0 1548 l 257
1748 1548 m 257
 1748 779 l 257
 1948 779 l 257
 1948 1548 l 257
 1748 1548 l 257
1143 979 m 257
 1143 779 l 257
 1948 779 l 257
 1948 979 l 257
 1143 979 l 257
138 1542 m 257
 138 338 l 257
 338 338 l 257
 338 1542 l 257
 138 1542 l 257
138 497 m 257
 138 297 l 257
 1250 297 l 257
 1250 497 l 257
 138 497 l 257
1050 473 m 257
 1050 -98 l 257
 1250 -98 l 257
 1250 473 l 257
 1050 473 l 257
383 102 m 257
 383 -98 l 257
 1255 -98 l 257
 1255 102 l 257
 383 102 l 257
954 1883 m 257
 1782 1433 l 257
 1946 1548 l 257
 1118 1998 l 257
 954 1883 l 257
EndSplineSet
EndChar

StartChar: uni0911
Encoding: 935 2321 935
GlifName: uni0911
Width: 2048
VWidth: 0
GlyphClass: 2
Flags: W
AnchorPoint: "abvm_deva" 2120 1722 basechar 0
LayerCount: 2
Fore
SplineSet
1331 1548 m 257
 1331 1348 l 257
 2048 1348 l 257
 2048 1548 l 257
 1331 1548 l 257
1344 1419 m 257
 1344 0 l 257
 1544 0 l 257
 1544 1419 l 257
 1344 1419 l 257
26 1548 m 257
 26 1348 l 257
 898 1348 l 257
 898 1548 l 257
 26 1548 l 257
724 1548 m 257
 724 140 l 257
 924 140 l 257
 924 1548 l 257
 724 1548 l 257
110 894 m 257
 110 693 l 257
 1444 693 l 257
 1444 894 l 257
 110 894 l 257
0 201 m 257
 0 0 l 257
 924 0 l 257
 924 201 l 257
 0 201 l 257
1836 1420 m 257
 1836 0 l 257
 2034 0 l 257
 2034 1420 l 257
 1836 1420 l 257
1326 2085 m 257
 1326 1639 l 257
 1526 1639 l 257
 1526 2085 l 257
 1326 2085 l 257
1332 1842 m 257
 1332 1641 l 257
 2048 1641 l 257
 2048 1842 l 257
 1332 1842 l 257
1848 2083 m 257
 1848 1641 l 257
 2048 1641 l 257
 2048 2083 l 257
 1848 2083 l 257
EndSplineSet
EndChar

StartChar: uni0912
Encoding: 936 2322 936
GlifName: uni0912
Width: 2048
VWidth: 0
GlyphClass: 2
Flags: W
AnchorPoint: "abvm_deva" 2062 1610 basechar 0
LayerCount: 2
Fore
SplineSet
1328 1548 m 257
 1328 1348 l 257
 2048 1348 l 257
 2048 1548 l 257
 1328 1548 l 257
1349 1419 m 257
 1349 0 l 257
 1548 0 l 257
 1548 1419 l 257
 1349 1419 l 257
25 1548 m 257
 25 1348 l 257
 897 1348 l 257
 897 1548 l 257
 25 1548 l 257
723 1548 m 257
 723 140 l 257
 923 140 l 257
 923 1548 l 257
 723 1548 l 257
109 894 m 257
 109 693 l 257
 1443 693 l 257
 1443 894 l 257
 109 894 l 257
0 201 m 257
 0 0 l 257
 923 0 l 257
 923 201 l 257
 0 201 l 257
1843 1420 m 257
 1843 0 l 257
 2042 0 l 257
 2042 1420 l 257
 1843 1420 l 257
1066 2155 m 257
 1066 1836 l 257
 1264 1836 l 257
 1264 2155 l 257
 1066 2155 l 257
1065 1967 m 257
 1065 1768 l 257
 1980 1768 l 257
 1980 1967 l 257
 1065 1967 l 257
1781 1956 m 257
 1781 1516 l 257
 1982 1516 l 257
 1982 1956 l 257
 1781 1956 l 257
EndSplineSet
EndChar

StartChar: uni0913
Encoding: 937 2323 937
GlifName: uni0913
Width: 2048
VWidth: 0
GlyphClass: 2
Flags: W
AnchorPoint: "abvm_deva" 2051 1571 basechar 0
LayerCount: 2
Fore
SplineSet
1344 1548 m 257
 1344 1348 l 257
 2032 1348 l 257
 2032 1548 l 257
 1344 1548 l 257
1360 1419 m 257
 1360 0 l 257
 1559 0 l 257
 1559 1419 l 257
 1360 1419 l 257
41 1548 m 257
 41 1348 l 257
 901 1348 l 257
 901 1548 l 257
 41 1548 l 257
727 1548 m 257
 727 140 l 257
 927 140 l 257
 927 1548 l 257
 727 1548 l 257
125 894 m 257
 125 693 l 257
 1459 693 l 257
 1459 894 l 257
 125 894 l 257
16 201 m 257
 16 0 l 257
 927 0 l 257
 927 201 l 257
 16 201 l 257
1827 1423 m 257
 1827 5 l 257
 2026 5 l 257
 2026 1423 l 257
 1827 1423 l 257
1455 1768 m 257
 1816 1458 l 257
 1994 1548 l 257
 1632 1861 l 257
 1455 1768 l 257
EndSplineSet
EndChar

StartChar: uni0914
Encoding: 938 2324 938
GlifName: uni0914
Width: 2048
VWidth: 0
GlyphClass: 2
Flags: W
AnchorPoint: "abvm_deva" 2080 1585 basechar 0
LayerCount: 2
Fore
SplineSet
1344 1548 m 257
 1344 1343 l 257
 2032 1343 l 257
 2032 1548 l 257
 1344 1548 l 257
1360 1419 m 257
 1360 0 l 257
 1559 0 l 257
 1559 1419 l 257
 1360 1419 l 257
41 1548 m 257
 41 1348 l 257
 901 1348 l 257
 901 1548 l 257
 41 1548 l 257
727 1548 m 257
 727 140 l 257
 927 140 l 257
 927 1548 l 257
 727 1548 l 257
125 894 m 257
 125 693 l 257
 1459 693 l 257
 1459 894 l 257
 125 894 l 257
16 201 m 257
 16 0 l 257
 927 0 l 257
 927 201 l 257
 16 201 l 257
1827 1420 m 257
 1827 0 l 257
 2026 0 l 257
 2026 1420 l 257
 1827 1420 l 257
1155 1750 m 257
 1435 1523 l 257
 1766 1523 l 257
 1291 1903 l 257
 1155 1750 l 257
1744 1949 m 257
 1807 1522 l 257
 2019 1548 l 257
 1941 1988 l 257
 1744 1949 l 257
EndSplineSet
EndChar

StartChar: uni0915
Encoding: 939 2325 939
GlifName: uni0915
Width: 2048
VWidth: 0
GlyphClass: 2
Flags: W
AnchorPoint: "abvm_deva" 1199 1603 basechar 0
AnchorPoint: "blwm_deva" 1196 -64 basechar 0
LayerCount: 2
Fore
SplineSet
5 1548 m 257
 5 1343 l 257
 2043 1343 l 257
 2043 1548 l 257
 5 1548 l 257
1108 1516 m 257
 1108 10 l 257
 1310 10 l 257
 1310 1516 l 257
 1108 1516 l 257
137 1029 m 257
 137 829 l 257
 1024 829 l 257
 1024 1029 l 257
 137 1029 l 257
137 1029 m 257
 137 408 l 257
 303 408 l 257
 303 1029 l 257
 137 1029 l 257
155 604 m 257
 155 401 l 257
 1162 401 l 257
 1162 604 l 257
 155 604 l 257
1214 947 m 257
 1214 746 l 257
 1950 746 l 257
 1950 947 l 257
 1214 947 l 257
1751 879 m 257
 1751 587 l 257
 1950 587 l 257
 1950 879 l 257
 1751 879 l 257
EndSplineSet
EndChar

StartChar: uni0915_uni0930_uni094D.vatu
Encoding: 940 -1 940
GlifName: uni0915_uni0930_uni094D_.vatu
Width: 2048
VWidth: 0
GlyphClass: 3
Flags: W
AnchorPoint: "abvm_deva" 1242 1562 basechar 0
AnchorPoint: "blwm_deva" 1210 -97 basechar 0
LayerCount: 2
Fore
SplineSet
5 1548 m 257
 5 1343 l 257
 2043 1343 l 257
 2043 1548 l 257
 5 1548 l 257
1108 1516 m 257
 1108 10 l 257
 1310 10 l 257
 1310 1516 l 257
 1108 1516 l 257
137 1029 m 257
 137 829 l 257
 1015 829 l 257
 1015 1029 l 257
 137 1029 l 257
137 989 m 257
 137 443 l 257
 303 443 l 257
 303 989 l 257
 137 989 l 257
132 604 m 257
 132 401 l 257
 1162 401 l 257
 1162 604 l 257
 132 604 l 257
1214 947 m 257
 1214 746 l 257
 1950 746 l 257
 1950 947 l 257
 1214 947 l 257
1751 879 m 257
 1751 587 l 257
 1950 587 l 257
 1950 879 l 257
 1751 879 l 257
52 0 m 257
 476 0 l 257
 1274 134 l 257
 1274 335 l 257
 52 0 l 257
EndSplineSet
Ligature2: "rkrfRakarVariantsinDevanagari2lookup0 subtable" uni0915 uni094D uni0930
EndChar

